<?xml version="1.0" encoding="utf-8"?>
<!-- Generator: Adobe Illustrator 22.0.1, SVG Export Plug-In . SVG Version: 6.00 Build 0)  -->
<svg version="1.1" id="Layer_1" xmlns="http://www.w3.org/2000/svg" xmlns:xlink="http://www.w3.org/1999/xlink" x="0px" y="0px"
	 viewBox="0 0 120.9 89" style="enable-background:new 0 0 120.9 89;" xml:space="preserve">
<g>
	<path d="M14.1,39.4c0.5,0.4,0.9,0.9,1.2,1.5c0.3,0.6,0.4,1.3,0.4,2c0,1.1-0.3,1.9-0.8,2.5c-0.6,0.6-1.4,0.9-2.5,0.9h-0.4
		c-0.1,0.9-0.4,1.7-0.9,2.3c-0.5,0.6-1.2,1.1-2,1.4c-0.8,0.3-1.7,0.5-2.6,0.5c-1.4,0-2.6-0.3-3.6-0.9c-1-0.6-1.7-1.4-2.1-2.4
		c-0.5-1-0.7-2-0.7-3.1c0-1.1,0.2-2.1,0.5-3c0.3-0.8,0.7-1.5,1.3-1.9c0.5-0.4,1.2-0.7,1.9-0.7c0.5,0,0.9,0.1,1.3,0.3
		c0.4,0.2,0.6,0.5,0.8,0.9c0.2,0.3,0.3,0.7,0.3,1.1c0,0.4-0.1,0.8-0.3,1.2c-0.2,0.4-0.4,0.7-0.8,0.9c-0.4,0.2-0.8,0.4-1.4,0.4
		c-0.4,0-0.7-0.1-1-0.2c-0.3-0.1-0.6-0.3-0.8-0.5c-0.1,0.4-0.1,0.9-0.1,1.4c0,0.8,0.2,1.6,0.5,2.3c0.3,0.7,0.9,1.3,1.6,1.7
		c0.7,0.5,1.6,0.7,2.7,0.7c0.9,0,1.8-0.2,2.5-0.6s1.1-1,1.3-1.9H6.4c0-1.6,0-2.8,0-3.6c0-0.8,0-2,0-3.6L8.3,39c0,1.3,0,2.2,0,2.9
		c0,0.6,0,1.6,0,2.9h1.9v-4c0-0.6,0.2-1,0.5-1.4c0.4-0.3,0.8-0.5,1.5-0.5C12.9,38.8,13.6,39,14.1,39.4z M11.9,10.9
		c0.4,0.4,0.7,0.9,0.7,1.5v5.6h-1.9v-2.5c0-1.3,0-2.1,0-2.4c0-0.3-0.1-0.5-0.3-0.7c-0.2-0.1-0.4-0.2-0.7-0.2c-0.3,0-0.6,0.1-1,0.3
		c-0.4,0.2-0.7,0.5-0.9,0.8v4.7H5.8v-2.5c0-1.3,0-2.1,0-2.4c0-0.3-0.1-0.5-0.3-0.7c-0.2-0.1-0.4-0.2-0.7-0.2c-0.3,0-0.7,0.1-1,0.4
		c-0.4,0.2-0.6,0.5-0.8,0.9c0,1.7,0,3.3,0,4.6H1c0-2.6,0-5.1,0-7.6l1.7-0.1l0,1.2c0.3-0.3,0.8-0.6,1.3-0.9c0.5-0.2,1.1-0.4,1.6-0.4
		c0.4,0,0.8,0.1,1.1,0.3c0.3,0.2,0.6,0.5,0.7,0.9c0.4-0.3,0.8-0.6,1.3-0.8s1-0.3,1.5-0.3C10.9,10.4,11.4,10.5,11.9,10.9z M8.2,22.6
		c0.7,0.5,1.3,1.1,1.6,1.9c0.4,0.8,0.5,1.7,0.5,2.6c0,0.8-0.1,1.5-0.4,2.3v6.1H8.2C8,35.2,7.8,35,7.5,34.9c-0.3-0.1-0.6-0.2-0.9-0.2
		c-0.2,0-0.4,0-0.6,0.1c-0.2,0.1-0.4,0.2-0.7,0.3c-0.3,0.2-0.6,0.3-0.8,0.4c-0.2,0.1-0.5,0.1-0.7,0.1c-0.5,0-1-0.2-1.4-0.5
		s-0.7-0.7-0.8-1.2L2.7,33c0.2,0.3,0.4,0.4,0.5,0.6c0.2,0.1,0.4,0.2,0.6,0.2c0.3,0,0.6-0.1,1.1-0.3c0.4-0.2,0.7-0.3,0.9-0.3
		c0.2-0.1,0.5-0.1,0.8-0.1c0.3,0,0.6,0,0.9,0.1c0.3,0.1,0.5,0.2,0.7,0.3v-1.8c-0.7,0.5-1.6,0.7-2.6,0.7c-0.8,0-1.5-0.2-2.2-0.5
		c-0.7-0.3-1.2-0.8-1.7-1.4c-0.4-0.6-0.7-1.5-0.7-2.4c0-0.8,0.2-1.5,0.6-2c0.4-0.5,0.9-0.8,1.5-0.8c0.3,0,0.5,0,0.8,0.1
		c0.2,0.1,0.5,0.2,0.7,0.3c0.2,0.1,0.4,0.2,0.5,0.3c0,0.1,0,0.2-0.1,0.5c0,0.3,0,0.5,0,0.8c0,0.5,0.1,0.8,0.4,0.8
		c0.4,0,0.6-0.3,0.6-1c0-0.5-0.1-1-0.3-1.5l1.5-0.2c0.3,0.6,0.4,1.1,0.4,1.7c0,0.7-0.2,1.3-0.5,1.8c-0.3,0.5-0.9,0.7-1.5,0.7
		c-0.7,0-1.2-0.2-1.5-0.6c-0.3-0.4-0.5-1-0.5-1.7c0-0.2,0-0.4,0-0.7c-0.1,0-0.2,0-0.3,0c-0.2,0-0.4,0.1-0.5,0.4
		c-0.1,0.3-0.2,0.6-0.2,1c0,0.5,0.1,0.9,0.4,1.3c0.2,0.4,0.6,0.7,1,0.9c0.4,0.2,0.9,0.3,1.5,0.3c0.5,0,1-0.1,1.5-0.4
		c0.4-0.3,0.8-0.7,1.1-1.2c0.3-0.5,0.4-1.1,0.4-1.9c0-1.1-0.3-2-0.9-2.6c-0.6-0.6-1.4-0.9-2.4-0.9c-0.4,0-0.9,0.1-1.3,0.2
		c-0.4,0.1-0.9,0.3-1.4,0.5L2,22.8c0.4-0.2,1-0.5,1.6-0.6c0.6-0.2,1.2-0.3,1.9-0.3C6.6,21.9,7.5,22.1,8.2,22.6z M2.1,41.3
		c0.1,0.1,0.3,0.2,0.6,0.3c0.2,0.1,0.4,0.1,0.6,0.1c0.6,0,0.9-0.2,0.9-0.7c0-0.2-0.1-0.4-0.2-0.5c-0.1-0.1-0.3-0.2-0.6-0.2
		C2.9,40.3,2.4,40.6,2.1,41.3z M21.7,25.5c0.6,0.7,0.8,1.5,0.8,2.5c0,0.7-0.1,1.3-0.4,1.9c-0.3,0.6-0.6,1-1.1,1.4
		c-0.5,0.4-1,0.6-1.5,0.7l-0.5-1.5c0.5-0.1,0.9-0.4,1.3-0.8s0.5-1,0.5-1.7c0-0.6-0.2-1.1-0.6-1.6c-0.4-0.4-0.9-0.6-1.5-0.6
		c-0.4,0-0.8,0.1-1.2,0.3c-0.4,0.2-0.8,0.5-1.2,0.9l0.2,0.3c0.6,0,1.2,0.2,1.6,0.5c0.4,0.4,0.6,0.9,0.6,1.6c0,0.5-0.1,1-0.4,1.4
		c-0.3,0.4-0.6,0.8-1.1,1c-0.5,0.2-1.1,0.4-1.8,0.4c-1.4,0-2.5-0.4-3.3-1.2c-0.8-0.8-1.2-2-1.2-3.5l1.4-0.2c0,0.5,0.1,0.8,0.1,1
		c0.3-0.1,0.6-0.2,1-0.5c0.3-0.3,0.7-0.6,1-0.9c-0.1-0.4-0.2-0.7-0.5-0.8c-0.2-0.2-0.4-0.3-0.7-0.3c-0.2,0-0.4,0-0.6,0.1
		c-0.2,0.1-0.5,0.2-0.8,0.4L11.3,25c0.8-0.5,1.5-0.8,2.1-0.8c0.5,0,1,0.1,1.4,0.4c0.4,0.3,0.6,0.7,0.8,1.1c0-0.1,0.1-0.1,0.2-0.2
		c-0.3-0.6-0.5-1.2-0.5-1.7c0-0.9,0.3-1.6,0.9-2.1c0.6-0.5,1.4-0.8,2.4-0.8c1,0,1.9,0.3,2.5,0.8c0.6,0.5,1,1.3,1,2.2
		C22.1,24.5,22,25,21.7,25.5z M13.6,44.1c0.2-0.4,0.3-0.8,0.3-1.4c0-0.4-0.1-0.8-0.2-1.1c-0.1-0.4-0.3-0.6-0.5-0.8
		c-0.2-0.2-0.4-0.3-0.7-0.3c-0.4,0-0.6,0.2-0.6,0.7v3.6h0.4C13,44.7,13.4,44.5,13.6,44.1z M16.6,30.3c0.3-0.2,0.5-0.5,0.5-0.9
		c0-0.3-0.1-0.5-0.4-0.6c-0.2-0.1-0.6-0.2-1-0.2l-0.5-0.5c-0.8,0.8-1.3,1.2-1.7,1.4c0,0-0.1,0-0.2,0c-0.2,0-0.3,0-0.4-0.1h-0.1
		c0.2,0.3,0.5,0.6,1,0.9c0.5,0.2,1,0.4,1.6,0.4C15.9,30.7,16.3,30.6,16.6,30.3z M15.7,17.8c-0.6-0.4-1-0.8-1.3-1.4
		c-0.3-0.6-0.4-1.2-0.4-1.9c0-0.8,0.2-1.5,0.5-2.1c0.3-0.6,0.8-1.1,1.3-1.4c0.6-0.3,1.2-0.5,1.9-0.5c0.8,0,1.4,0.2,2,0.5
		c0.6,0.3,1,0.8,1.3,1.4c0.3,0.6,0.5,1.2,0.5,2c0,0.8-0.1,1.5-0.4,2.1c-0.3,0.6-0.7,1.1-1.3,1.5c-0.5,0.4-1.2,0.5-1.9,0.5
		C17,18.3,16.3,18.1,15.7,17.8z M19.1,16c0.3-0.4,0.5-0.9,0.5-1.5c0-0.5-0.1-0.9-0.3-1.2c-0.2-0.3-0.4-0.6-0.7-0.8
		c-0.3-0.2-0.6-0.3-1-0.3c-0.6,0-1,0.2-1.3,0.6c-0.3,0.4-0.5,0.9-0.5,1.6c0,0.4,0.1,0.8,0.3,1.1c0.2,0.3,0.4,0.6,0.7,0.8
		c0.3,0.2,0.6,0.3,1,0.3C18.4,16.5,18.8,16.3,19.1,16z M18.9,24.2c0.5,0,0.9,0.1,1.4,0.2c0-0.1,0-0.2,0-0.4c0-0.5-0.2-0.9-0.5-1.1
		c-0.4-0.2-0.8-0.4-1.2-0.4c-0.6,0-1.1,0.1-1.3,0.4c-0.3,0.3-0.4,0.6-0.4,1.1c0,0.2,0.1,0.5,0.2,0.7C17.6,24.4,18.2,24.2,18.9,24.2z
		 M27.2,36c0.7,0.3,1.2,0.9,1.6,1.6c0.4,0.7,0.6,1.5,0.6,2.5l0,1.1c0,1.3,0,2.4,0,3.2c0,0.5,0,1.2,0,2.3h-1.7c0-0.9,0-1.8,0-2.8
		c0-1.2,0-2.4-0.1-3.3c0-1-0.3-1.8-0.7-2.4c-0.5-0.6-1.1-0.9-2.1-0.9c-0.7,0-1.2,0.2-1.6,0.5c-0.4,0.3-0.5,0.7-0.6,1.2h1.7l-0.1,1.6
		H23v1.2c0.4-0.2,0.8-0.3,1.3-0.3c0.7,0,1.3,0.3,1.8,0.9c0.5,0.6,0.7,1.4,0.7,2.4c0,0.8-0.2,1.6-0.5,2.3c-0.3,0.7-0.8,1.2-1.5,1.6
		c-0.7,0.4-1.5,0.6-2.4,0.6l-2,0c-0.5,0-0.8,0.1-1.1,0.3c-0.3,0.2-0.4,0.5-0.4,0.8l-1.9-0.3c0-0.7,0.3-1.3,0.8-1.8
		c0.5-0.5,1.3-0.7,2.3-0.7h1.7c1.1,0,1.9-0.2,2.4-0.7c0.5-0.5,0.8-1.3,0.8-2.3c0-0.5-0.1-0.9-0.2-1.2c-0.2-0.3-0.5-0.4-0.9-0.4
		c-0.2,0-0.3,0.1-0.5,0.2c-0.1,0.1-0.2,0.3-0.3,0.5v3h-1.7v-6.1h-2.1c0,1.4,0,2.4,0,3.1c0,0.7,0,1.7,0,3.1h-1.9c0-1.7,0-3,0-3.9
		c0-0.9,0-2.1,0-3.9h4c0-0.1,0-0.2,0-0.3c0-0.6,0.2-1.2,0.5-1.6c0.3-0.5,0.8-0.8,1.3-1.1c0.6-0.3,1.2-0.4,1.8-0.4
		C25.7,35.4,26.5,35.6,27.2,36z M24.4,17.8c-0.6-0.4-1-0.8-1.3-1.4c-0.3-0.6-0.4-1.2-0.4-1.9c0-0.8,0.2-1.5,0.5-2.1
		c0.3-0.6,0.8-1.1,1.3-1.4c0.6-0.3,1.2-0.5,1.9-0.5c0.8,0,1.4,0.2,2,0.5c0.6,0.3,1,0.8,1.3,1.4c0.3,0.6,0.5,1.2,0.5,2
		c0,0.8-0.1,1.5-0.4,2.1c-0.3,0.6-0.7,1.1-1.3,1.5c-0.5,0.4-1.2,0.5-1.9,0.5C25.7,18.3,25,18.1,24.4,17.8z M29.9,26.4
		c0.6,0,1.1,0.1,1.5,0.3c0.5,0.2,0.8,0.6,1.1,1c0.3,0.4,0.4,1,0.4,1.6c0,0.6-0.1,1.1-0.3,1.5c-0.2,0.5-0.5,0.8-0.9,1.1
		c-0.4,0.3-0.9,0.4-1.4,0.4c-0.5,0-0.9-0.1-1.2-0.3c-0.3-0.2-0.6-0.5-0.8-0.8c-0.2,0.3-0.4,0.6-0.8,0.8c-0.3,0.2-0.8,0.3-1.3,0.3
		c-0.6,0-1.2-0.1-1.6-0.4c-0.5-0.3-0.8-0.7-1.1-1.2c-0.3-0.5-0.4-1.1-0.4-1.8c0-0.7,0.1-1.4,0.4-1.9c0.3-0.6,0.7-1,1.2-1.3
		c0.5-0.3,1.1-0.5,1.7-0.5c0.3,0,0.6,0,0.9,0.1l-0.2,1.6c-0.2,0-0.4,0-0.4,0c-0.6,0-1,0.2-1.3,0.5c-0.3,0.3-0.5,0.8-0.5,1.3
		c0,0.6,0.1,1,0.4,1.3c0.3,0.3,0.7,0.5,1.2,0.5c0.4,0,0.7-0.1,0.9-0.4c0.2-0.3,0.3-0.7,0.3-1.2h1.2c0,0.5,0.1,0.9,0.3,1.2
		c0.2,0.3,0.5,0.4,0.9,0.4c0.3,0,0.6-0.1,0.8-0.3c0.2-0.2,0.3-0.5,0.3-0.8c0-0.5-0.2-0.9-0.5-1.1c-0.3-0.3-0.8-0.4-1.5-0.4
		c-0.5,0-1,0-1.5,0.1c0-0.3,0-0.6,0-0.8c0-1,0.2-1.7,0.7-2.2c0.5-0.5,1.1-0.7,1.9-0.7c0.4,0,0.7,0,1,0.1c0.3,0.1,0.7,0.3,1.2,0.5
		L32,26.2c-0.4-0.2-0.7-0.3-0.9-0.4c-0.2-0.1-0.5-0.1-0.7-0.1c-0.6,0-0.9,0.2-1,0.7C29.5,26.4,29.6,26.4,29.9,26.4z M27.8,16
		c0.3-0.4,0.5-0.9,0.5-1.5c0-0.5-0.1-0.9-0.3-1.2c-0.2-0.3-0.4-0.6-0.7-0.8c-0.3-0.2-0.6-0.3-1-0.3c-0.6,0-1,0.2-1.3,0.6
		c-0.3,0.4-0.5,0.9-0.5,1.6c0,0.4,0.1,0.8,0.3,1.1c0.2,0.3,0.4,0.6,0.7,0.8c0.3,0.2,0.6,0.3,1,0.3C27,16.5,27.5,16.3,27.8,16z
		 M41.4,39c0,1.4,0,2.6,0,3.7c0,1.3,0,2.6,0,3.9h-5.7l0.1-1.2c-0.5,1-1.4,1.5-2.5,1.5c-0.6,0-1.1-0.2-1.5-0.5
		c-0.4-0.4-0.6-0.9-0.6-1.5v-5.8l1.9-0.1v5c0,0.4,0.1,0.7,0.3,1c0.2,0.2,0.4,0.3,0.7,0.3c0.3,0,0.5-0.1,0.7-0.2
		c0.2-0.1,0.4-0.4,0.5-0.6c0-0.5,0-1.4,0-2.4c0-1.3,0-2.3,0-3l1.8,0c0,1.4,0,2.4,0,3.1c0,0.7,0,1.7,0,3.1h2.4c0-0.7,0-1.7,0-3
		c0-1.3,0-2.4,0-3L41.4,39z M37.7,10.9c0.4,0.4,0.7,0.9,0.7,1.5v5.6h-1.9v-2.5c0-1.3,0-2.1,0-2.4c0-0.3-0.1-0.5-0.3-0.7
		c-0.2-0.1-0.4-0.2-0.7-0.2c-0.3,0-0.7,0.1-1.1,0.4c-0.4,0.2-0.7,0.5-0.8,0.9c0,1.7,0,3.3,0,4.6h-1.9c0-2.6,0-5.1,0-7.6l1.7,0l0,1.2
		c0.3-0.4,0.7-0.7,1.2-0.9c0.5-0.2,1-0.4,1.5-0.4C36.7,10.4,37.2,10.5,37.7,10.9z M37.9,30.7l0.3,1.4c-0.2,0.1-0.4,0.1-0.7,0.2
		c-0.3,0-0.5,0.1-0.8,0.1c-1,0-1.8-0.3-2.4-0.8c-0.5-0.5-0.8-1.2-0.8-2.1c0-0.6,0.2-1.2,0.5-1.7c0.3-0.5,0.8-0.9,1.5-1.1l0.8-0.1
		h-2.7v-1.5h4.2l0,2c-0.8,0.2-1.5,0.4-1.9,0.8c-0.5,0.4-0.7,0.9-0.7,1.4c0,0.5,0.2,0.9,0.5,1.2c0.3,0.2,0.7,0.4,1.2,0.4
		C37.2,30.9,37.5,30.8,37.9,30.7z M50.6,26.5c0.2,0.5,0.3,1,0.3,1.6c0,1.1-0.3,2-0.8,2.7c-0.5,0.7-1.2,1.2-2,1.4l-0.5-1.6
		c0.6-0.2,1-0.5,1.3-1c0.2-0.4,0.4-0.9,0.4-1.5c0-0.4-0.1-0.8-0.3-1.1c-0.2-0.3-0.5-0.6-0.9-0.8c-0.4-0.2-0.7-0.3-1.2-0.3
		c-0.5,0-0.9,0.1-1.3,0.2c-0.4,0.1-0.9,0.4-1.3,0.7l0.1,0.2l0.3,0c0.7,0,1.4,0.2,1.9,0.7c0.5,0.4,0.8,1,0.8,1.8
		c0,0.4-0.1,0.8-0.2,1.2c-0.2,0.4-0.4,0.7-0.7,1c-0.3,0.3-0.7,0.4-1.2,0.4c-0.4,0-0.7-0.1-1-0.2c-0.3-0.2-0.5-0.4-0.6-0.6
		c-0.1,0.3-0.4,0.5-0.6,0.6c-0.3,0.2-0.6,0.2-0.9,0.2c-0.7,0-1.2-0.2-1.5-0.6c-0.3-0.4-0.5-1-0.5-1.7v-0.1l-0.8,0.5l-0.9-1.3l4-2.7
		c-0.3-0.3-0.6-0.5-0.9-0.5c-0.2,0-0.5,0.1-0.7,0.2c-0.2,0.1-0.5,0.3-0.7,0.5l-0.7-1.3c0.4-0.3,0.7-0.5,1.1-0.6
		c0.4-0.2,0.8-0.2,1.3-0.2c0.4,0,0.8,0.1,1.2,0.3c0.3,0.2,0.6,0.5,0.7,0.9l0.1-0.1c0.5-0.3,1-0.6,1.6-0.8c0.5-0.2,1.1-0.3,1.7-0.3
		c0.4,0,0.8,0,1.2,0.1v-2.9h1.7v3.8C50.1,25.6,50.4,26,50.6,26.5z M40.2,9c-0.2-0.2-0.3-0.5-0.3-0.8c0-0.3,0.1-0.6,0.3-0.9
		C40.5,7.1,40.8,7,41.1,7c0.3,0,0.6,0.1,0.8,0.3c0.2,0.2,0.3,0.5,0.3,0.9c0,0.3-0.1,0.6-0.3,0.8c-0.2,0.2-0.5,0.3-0.8,0.3
		C40.8,9.4,40.5,9.3,40.2,9z M40.2,14.2c0-1.1,0-2.1,0-3c0-0.1,0-0.4,0-0.7l1.9-0.1l0,4.9l0,2.7h-1.9C40.2,16.6,40.2,15.3,40.2,14.2
		z M45.3,28.7c-0.3-0.3-0.7-0.4-1.2-0.4h-0.7L43,27.6l-1.9,1.3h0.3l0,0.7c0,0.7,0.2,1,0.7,1c0.4,0,0.7-0.5,0.7-1.4h1.3
		c0,0.4,0.1,0.8,0.2,1c0.1,0.2,0.4,0.4,0.7,0.4c0.2,0,0.4-0.1,0.5-0.3c0.1-0.2,0.2-0.4,0.2-0.8C45.8,29.3,45.6,28.9,45.3,28.7z
		 M51.9,42.2c0.5,0.4,0.8,1,0.8,1.9c0,1-0.3,1.7-0.8,2.1c-0.6,0.4-1.2,0.6-2,0.6h-0.3l-0.3-1.2c1.2-0.2,1.8-0.7,1.8-1.4
		c0-0.3-0.1-0.6-0.3-0.7c-0.2-0.2-0.5-0.3-0.9-0.3h-0.5v0.5c0,0.9-0.3,1.7-0.8,2.3c-0.6,0.6-1.4,0.9-2.6,0.9c-0.7,0-1.3-0.1-1.8-0.4
		c-0.5-0.3-0.8-0.6-1.1-1c-0.2-0.4-0.4-0.9-0.4-1.3c0-0.7,0.2-1.2,0.5-1.6c0.3-0.4,0.8-0.7,1.4-0.8V39h6.2l0,1.5h-1.4v1.1h0.9
		C50.8,41.6,51.4,41.8,51.9,42.2z M48.2,18.1l0-1c-0.2,0.3-0.5,0.6-0.9,0.8c-0.4,0.2-0.8,0.3-1.3,0.3c-0.6,0-1-0.1-1.4-0.3
		c-0.4-0.2-0.6-0.5-0.8-0.8c-0.2-0.3-0.3-0.7-0.3-1c0-0.9,0.3-1.5,0.8-1.9c0.6-0.4,1.2-0.6,1.8-0.8c0.5-0.1,1.1-0.1,1.8-0.1v-0.1
		c0-0.4-0.1-0.6-0.3-0.8c-0.2-0.2-0.5-0.2-0.8-0.2c-0.3,0-0.6,0.1-0.9,0.2c-0.3,0.2-0.6,0.4-0.8,0.6l-1-1c0.3-0.5,0.8-0.9,1.3-1.2
		c0.6-0.3,1.2-0.4,1.8-0.4c0.8,0,1.5,0.2,1.9,0.6c0.5,0.4,0.7,1,0.7,1.7l0,3.8l0,1.6H48.2z M47.5,43.1l-2.4,0
		c-0.3,0-0.6,0.1-0.7,0.3c-0.2,0.2-0.3,0.4-0.3,0.7c0,0.4,0.2,0.7,0.5,0.9c0.3,0.2,0.7,0.3,1.2,0.3c0.5,0,0.9-0.2,1.2-0.5
		c0.3-0.3,0.5-0.8,0.5-1.3V43.1z M47.5,16.2c0.3-0.3,0.5-0.6,0.5-1v-0.6c-0.5,0-0.9,0.1-1.3,0.1c-0.4,0.1-0.8,0.2-1,0.4
		s-0.4,0.4-0.4,0.8c0,0.2,0.1,0.4,0.3,0.5c0.2,0.1,0.4,0.2,0.7,0.2C46.8,16.6,47.2,16.4,47.5,16.2z M46,40.5v1.1h1.6v-1.1H46z
		 M47.3,37.5c-0.2-0.2-0.3-0.5-0.3-0.8c0-0.3,0.1-0.6,0.3-0.9c0.2-0.2,0.5-0.3,0.8-0.3s0.6,0.1,0.8,0.3c0.2,0.2,0.3,0.5,0.3,0.9
		c0,0.3-0.1,0.6-0.3,0.8c-0.2,0.2-0.5,0.3-0.8,0.3S47.5,37.7,47.3,37.5z M59.1,18.1h-2.4l-2.4-2.7l-0.5-0.9l0,3.6h-1.8L51.8,7.3
		l1.9,0l0,4.8l1.2,1.3l1.5-2.9h2l-2.3,4.2L59.1,18.1z"/>
</g>
</svg>
