<?xml version="1.0" encoding="UTF-8" standalone="no"?>
<!DOCTYPE svg  PUBLIC '-//W3C//DTD SVG 1.1//EN'  'http://www.w3.org/Graphics/SVG/1.1/DTD/svg11.dtd'>
<svg xmlns="http://www.w3.org/2000/svg">
<defs>
<font id="SriTamil-Bold" horiz-adv-x="563">
<font-face underline-position="-50" font-weight="700" descent="-200" panose-1="2 0 5 3 0 0 0 2 0 4" units-per-em="1000" unicode-range="U+0020-25CC" bbox="-141 -298 2616 1005" x-height="545" underline-thickness="50" font-family="SriTamil" ascent="800" cap-height="738"/>
<missing-glyph d="M113 62h250v881h-250v-881zM51 0l-1 1005h375l1 -1005h-375z" horiz-adv-x="476"/>
<glyph glyph-name=".notdef" d="M113 62h250v881h-250v-881zM51 0l-1 1005h375l1 -1005h-375z" horiz-adv-x="476"/>
<glyph glyph-name=".null" horiz-adv-x="0"/>
<glyph glyph-name="nonmarkingreturn" horiz-adv-x="500"/>
<glyph glyph-name="space" horiz-adv-x="500" unicode=" "/>
<glyph glyph-name="exclam" horiz-adv-x="326" unicode="!" d="M191 228q-22 -16 -44 -23l-16 12l-28 602q43 28 91 48l26 -14zM229 72q0 -64 -48 -88q-15 -7 -32 -7q-59 0 -59 65q0 63 50 89q14 7 32 7q57 0 57 -66z"/>
<glyph glyph-name="quotedbl" horiz-adv-x="510" unicode='&quot;' d="M392 489q-25 -12 -58 -12l-30 358q19 11 69 27q13 4 19 5l25 -12zM181 489q-25 -12 -56 -12l-31 358q10 6 44 19q22 7 43 13l25 -12z"/>
<glyph glyph-name="numbersign" d="M472 563h89l14 -15q-6 -27 -18 -52h-104l-43 -150h89l13 -16q-5 -18 -17 -52h-104l-51 -178q-15 -12 -54 -26l-15 12l54 192h-111l-50 -178q-17 -13 -53 -26l-15 12l54 192h-86l-13 15q8 31 17 53h101l43 150h-84l-15 14q4 18 18 53h100l49 170q9 7 52 24l17 -13 l-53 -181h111l48 170q10 7 53 24l16 -13zM234 346h111l42 150h-110z" unicode="#"/>
<glyph glyph-name="dollar" d="M306 -84q-14 -12 -37 -18l-16 13v84h-6q-4 -1 -6 -1q-84 0 -181 62q-8 5 -8 58q0 56 8 85l25 -2q54 -115 168 -130v281q-54 20 -69 27q-126 55 -126 159q0 60 42 106q52 57 153 69v85q8 6 25 14q4 1 13 3l15 -13v-87q117 -3 169 -52q2 -2 2 -5q0 -11 -15 -34 q-18 -28 -36 -44l-23 5q-45 51 -97 66v-220q97 -38 136 -71q63 -53 63 -135q0 -76 -47 -136q-54 -67 -152 -85v-84zM426 190q0 51 -35 86q-27 26 -85 51v-261q49 6 84 40q36 35 36 84zM132 562q0 -58 74 -94q20 -10 47 -21v206q-49 -1 -82 -22q-39 -24 -39 -69z" unicode="$"/>
<glyph glyph-name="percent" horiz-adv-x="828" unicode="%" d="M373 525q0 -57 -28 -106q-29 -51 -79 -76q-31 -16 -66 -16q-52 0 -92 37q-35 32 -52 85q-12 37 -12 76q0 76 48 135q51 63 124 63q53 0 93 -35q36 -32 53 -85q11 -36 11 -78zM783 181q0 -57 -28 -106q-28 -52 -78 -77q-31 -16 -65 -16q-73 0 -117 65q-39 58 -39 134 q0 57 28 106q30 51 79 76q31 15 64 15q54 0 93 -34q36 -32 52 -86q11 -35 11 -77zM210 10q-11 -8 -38 -17q-11 -4 -41 -13l-14 20l501 696q25 15 78 29l17 -19zM288 514q0 57 -17 101q-22 61 -71 61q-38 0 -57 -53q-14 -39 -14 -84q0 -164 87 -164q40 0 59 53q13 38 13 86z M700 169q0 58 -17 101q-23 61 -71 61q-38 0 -57 -53q-13 -38 -13 -84q0 -164 85 -164q40 0 59 53q14 39 14 86z"/>
<glyph glyph-name="ampersand" horiz-adv-x="800" unicode="&amp;" d="M789 438q-23 -28 -59 -52q-41 21 -100 24q19 -32 19 -92q0 -86 -69 -178q50 -48 66 -60q43 -33 80 -33q16 0 36 5l5 -26q-100 -44 -134 -44q-28 0 -119 88q-103 -88 -222 -88q-111 0 -176 56q-69 59 -69 168q0 134 176 262q-37 91 -37 161q0 85 51 150q55 71 138 71 q66 0 101 -40q33 -38 33 -104q0 -122 -147 -213q-15 -10 -40 -27q57 -107 158 -222q29 -34 60 -65q38 59 38 115q0 77 -59 110q-17 9 -35 9l-12 17q16 18 43 29h260zM310 49q92 0 166 58q-104 108 -178 221q-28 43 -49 84q-107 -93 -107 -193q0 -74 47 -122t121 -48z M260 662q0 -62 37 -146q3 0 5 3q69 37 100 85q25 38 25 82q0 68 -47 93q-15 8 -35 8q-61 0 -79 -79q-6 -23 -6 -46z"/>
<glyph glyph-name="quotesingle" horiz-adv-x="300" unicode="&apos;" d="M181 489q-25 -12 -56 -12l-31 358q10 6 44 19q22 7 43 13l25 -12z"/>
<glyph glyph-name="parenleft" horiz-adv-x="380" unicode="(" d="M339 -185q-140 64 -210 234q-58 139 -58 316q0 174 61 324q73 178 207 248l18 -26q-80 -67 -131 -203q-56 -148 -56 -327q0 -154 40 -291q50 -169 147 -248z"/>
<glyph glyph-name="parenright" horiz-adv-x="380" unicode=")" d="M311 389q0 -174 -62 -325q-73 -178 -207 -249l-18 27q96 80 146 244q41 136 41 286q0 156 -40 291q-49 169 -147 248l18 26q140 -62 210 -232q59 -140 59 -316z"/>
<glyph glyph-name="asterisk" horiz-adv-x="508" unicode="*" d="M109 421q-10 -6 -22 -6q-28 0 -42 24q-4 7 -4 18q0 5 1 12q5 22 23 32q4 3 76 18q67 13 78 15q-50 -53 -110 -113zM67 584q-26 15 -26 45q0 11 5 20q16 18 44 18q11 0 21 -6q5 -2 53.5 -55t52.5 -61q-70 16 -150 39zM348 656q11 7 25 7q25 0 40 -23q3 -5 3 -14 q0 -7 -2 -16q-6 -23 -23 -32q-5 -3 -74.5 -17.5t-77.5 -14.5q50 53 109 110zM389 494q26 -15 26 -44q0 -11 -5 -20q-14 -19 -42 -19q-13 0 -23 6q-7 4 -55 57t-50 60q70 -15 149 -40zM271 700q0 -11 -42 -149q-5 5 -26.5 72t-21.5 76q0 20 18 36q13 13 26 13q20 0 33 -14 t13 -34zM270 375q0 -20 -14 -34.5t-33 -14.5q-12 0 -26 14q-17 16 -17 36q0 9 22 76.5t27 72.5q41 -139 41 -150z"/>
<glyph glyph-name="plus" horiz-adv-x="492" unicode="+" d="M279 138q-22 -11 -52 -18l-15 13v163h-162l-14 15q6 25 18 51h158v160q17 6 54 17l13 -14v-163h163l14 -14q-8 -30 -18 -52h-159v-158z"/>
<glyph glyph-name="comma" horiz-adv-x="275" unicode="," d="M229 41q0 -57 -42 -123q-38 -58 -90 -97l-26 21q60 68 60 158q0 54 -61 54h-9l-9 28q10 14 60 34q47 18 67 18h2q48 -23 48 -93z"/>
<glyph glyph-name="hyphen" horiz-adv-x="404" unicode="-" d="M369 319q-10 -33 -18 -52h-301l-14 14q6 25 18 52h300z"/>
<glyph glyph-name="period" horiz-adv-x="275" unicode="." d="M216 72q0 -64 -49 -88q-15 -7 -32 -7q-58 0 -58 65q0 63 50 89q14 7 31 7q58 0 58 -66z"/>
<glyph glyph-name="slash" d="M124 -167q-16 -10 -56 -23l-18 -6l-21 14l410 1091q26 16 72 28l22 -12z" unicode="/"/>
<glyph glyph-name="zero" d="M519 353q0 -135 -57 -241q-68 -130 -192 -130q-121 0 -181 133q-45 100 -45 238q0 134 57 240q69 131 192 131q121 0 181 -134q45 -99 45 -237zM422 331q0 107 -27 196q-41 129 -125 129q-129 0 -129 -278q0 -113 26 -199q39 -129 126 -129q129 0 129 281z" unicode="0"/>
<glyph glyph-name="one" d="M100 0v31q158 18 158 53v467q0 46 -11 57q-7 8 -35 8h-6q-44 -2 -112 -16l-12 30q78 22 191 75q34 15 51 24l22 -20v-625q0 -14 29 -26q41 -17 117 -27v-31h-392z" unicode="1"/>
<glyph glyph-name="two" d="M481 0h-407l-16 43q109 128 210 253q66 84 99 148q25 50 25 98q0 126 -119 126q-44 0 -77 -38q-31 -37 -31 -83q-17 -9 -53 -25q-9 -2 -23 -3l-16 17q0 63 75 124q79 64 165 64q79 0 123.5 -44t44.5 -122q0 -61 -47 -139q-25 -43 -87 -120q-26 -32 -84 -102l-107 -126 h245q28 0 44 36q12 28 14 58l1 10l30 -7z" unicode="2"/>
<glyph glyph-name="three" d="M483 223q0 -110 -67 -175.5t-178 -65.5q-77 0 -146 46q-26 16 -52 42l20 39q73 -55 128 -64q19 -3 42 -3q74 0 117 44.5t43 117.5q0 80 -49 125q-41 36 -101 36h-12q-2 0 -15 -2q-5 -1 -13 -2l-8 35q164 44 164 155q0 49 -28 82q-30 35 -78 35q-46 0 -73 -29 q-20 -22 -20 -53q0 -8 1 -16q-40 -20 -81 -23l-16 18q0 53 67 104q71 55 155 55q74 0 120 -44.5t46 -117.5q0 -50 -39 -93q-34 -37 -85 -60q70 -8 114 -62t44 -124z" unicode="3"/>
<glyph glyph-name="four" d="M512 252q-16 -24 -46 -47h-41v-144q0 -18 81 -36v-25h-286v25q47 8 100 23q23 7 23 19v138h-291l-20 20l291 463q27 14 80 41l22 -20v-439h72zM343 609l-218 -339h218v339z" unicode="4"/>
<glyph glyph-name="five" d="M490 240q0 -108 -61 -180q-65 -78 -171 -78q-118 0 -212 88l20 39q96 -67 179 -67q71 0 113 52q38 48 38 121q0 82 -38 128q-42 50 -122 50q-67 0 -128 -47l-28 19l8 49q4 19 10 59l10 63q11 73 16 121q3 32 4 49h256q35 0 52 5l19 6l17 -17q-21 -31 -50 -57 q-6 -6 -15 -13h-227q-5 -63 -19 -151q-2 -14 -6 -37q51 15 116 15q97 0 158 -60.5t61 -156.5z" unicode="5"/>
<glyph glyph-name="six" d="M516 241q0 -61 -26 -118q-27 -61 -73 -98q-53 -43 -121 -43q-109 0 -174 96q-57 85 -57 199q0 175 97 295q106 132 300 160l11 -35q-131 -30 -215 -122q-76 -84 -94 -194q72 70 153 70q95 0 148 -58q51 -56 51 -152zM293 386q-75 0 -135 -72q0 -107 29 -174 q40 -96 132 -96q58 0 87 54q22 43 22 106q0 98 -46 146q-36 36 -89 36z" unicode="6"/>
<glyph glyph-name="seven" d="M519 684l-55 -128q-47 -107 -104 -249q-41 -101 -81 -207q-13 -36 -26 -74q-41 -29 -95 -44l-24 20q88 155 167 329q24 55 129 299h-266q-24 0 -35 -8q-20 -17 -41 -77l-27 11q7 53 18 117q4 20 7 33h413z" unicode="7"/>
<glyph glyph-name="eight" d="M506 206q0 -95 -74 -161q-72 -63 -168 -63q-87 0 -146 48q-63 52 -63 137q0 125 154 210q-58 27 -87 59q-37 41 -37 100q0 85 63 138q60 50 146 50q79 0 128 -38q56 -42 56 -118q0 -67 -72 -128q-20 -18 -48 -37q71 -34 103 -72q45 -52 45 -125zM414 181q0 69 -50 114 q-30 27 -110 62q-52 -38 -76 -73q-29 -43 -29 -99q0 -65 40 -104.5t104 -39.5q59 0 91 42q30 38 30 98zM161 557q0 -46 46 -79q26 -20 105 -54q80 57 80 126q0 118 -128 118q-46 0 -74.5 -32t-28.5 -79z" unicode="8"/>
<glyph glyph-name="nine" d="M510 428q0 -191 -104 -308.5t-295 -144.5l-10 34q286 71 312 328q-70 -77 -156 -77q-91 0 -144.5 57.5t-53.5 148.5q0 62 32 121.5t83 96.5q57 40 122 40q90 0 148 -70q66 -79 66 -226zM282 325q79 0 134 81q-3 134 -50 202q-37 54 -94 54q-90 0 -118 -96q-8 -29 -8 -65 q0 -75 29 -122q35 -54 107 -54z" unicode="9"/>
<glyph glyph-name="colon" horiz-adv-x="275" unicode=":" d="M216 497q0 -64 -49 -88q-15 -8 -32 -8q-58 0 -58 66q0 63 50 89q14 7 31 7q58 0 58 -66zM216 72q0 -64 -49 -88q-15 -7 -32 -7q-58 0 -58 65q0 63 50 89q14 7 31 7q58 0 58 -66z"/>
<glyph glyph-name="semicolon" horiz-adv-x="275" unicode=";" d="M216 497q0 -64 -49 -88q-15 -8 -32 -8q-58 0 -58 66q0 63 50 89q14 7 31 7q58 0 58 -66zM229 41q0 -57 -42 -123q-38 -58 -90 -97l-26 21q60 68 60 158q0 54 -61 54h-9l-9 28q10 14 60 34q47 18 67 18h2q48 -23 48 -93z"/>
<glyph glyph-name="less" horiz-adv-x="527" unicode="&lt;" d="M491 188q-14 -12 -34 -28q-5 -4 -15 -10l-392 146l-14 15v1v2l2 5q0 8 7 25q0 1 5 15q1 2 3 7l1 3l423 158l14 -15l-4 -14q-8 -30 -13 -44l-325 -121l332 -123z"/>
<glyph glyph-name="equal" horiz-adv-x="527" unicode="=" d="M491 260q-6 -17 -17 -52h-424l-14 15q6 26 18 52h423zM491 436q-3 -12 -8 -27l-9 -25h-424l-14 14q7 28 18 52h423z"/>
<glyph glyph-name="greater" horiz-adv-x="527" unicode="&gt;" d="M487 352q0 -3 -2 -8q0 -1 -0.5 -2.5t-0.5 -2.5q-2 -6 -5 -17q-2 -7 -6 -15l-423 -157l-14 15q6 20 13 44q2 5 5 13l323 121l-331 123l-10 23q16 12 49 38l393 -147l13 -14z"/>
<glyph glyph-name="question" horiz-adv-x="520" unicode="?" d="M473 663q0 -44 -14 -79q-5 -14 -15.5 -25t-19.5 -21q-30 -34 -92 -116q-53 -68 -57 -138l-4 -56q-12 -9 -44 -24l-15 12l-4 68v10q0 55 40 122q3 4 83 124q11 10 32 40q12 28 12 57q0 68 -28 108q-33 47 -98 47q-44 0 -76 -37q-30 -35 -30 -80q0 -14 7 -33 q-30 -17 -86 -23l-16 18q-1 5 -1 9v10q0 88 82 143q73 49 165 49q84 0 132 -51q47 -49 47 -134zM316 72q0 -64 -49 -88q-15 -7 -32 -7q-59 0 -59 65q0 63 51 89q14 7 31 7q58 0 58 -66z"/>
<glyph glyph-name="at" horiz-adv-x="964" unicode="@" d="M925 322q0 -143 -88 -246q-51 -60 -109 -82q-29 -12 -53 -12q-65 0 -80 113q-25 -34 -36 -48q-22 -26 -43 -42q-31 -23 -77 -23q-65 0 -116 74q-57 81 -57 204q0 70 32.5 140.5t86.5 113.5q60 48 133 48q39 0 70 -26q11 -10 27 -27q33 20 64 53l18 -17l-3 -10 q-7 -21 -12 -65q-3 -22 -3 -46v-257q0 -103 63 -103q33 0 71 69q42 75 42 167q0 175 -81 286q-90 125 -258 125q-112 0 -201.5 -53.5t-141.5 -151.5q-48 -91 -48 -199q0 -205 122 -334q114 -123 279 -123q90 0 184 36q81 31 121 66l16 -32q-52 -55 -133 -92 q-103 -48 -217 -48q-212 0 -338 141q-121 136 -121 351q0 132 68 250q67 116 181 186q118 73 252 73q194 0 295 -136q91 -121 91 -323zM591 428q-35 71 -91 71q-79 0 -117 -75q-29 -58 -29 -146q0 -93 43 -159q38 -59 83 -59q28 0 63 32q12 12 48 54v282z"/>
<glyph glyph-name="A" horiz-adv-x="714" unicode="A" d="M455 0v25q75 5 75 32q0 4 -1 8l-67 195h-239l-65 -195q-1 -3 -1 -5q0 -25 87 -35v-25h-244v25q37 7 52 11q35 11 41 29l218 660q18 20 68 46l246 -706q11 -33 77 -40v-25h-247zM241 313h203l-103 302z"/>
<glyph glyph-name="B" horiz-adv-x="660" unicode="B" d="M595 208q0 -105 -83 -165q-74 -51 -184 -51q-40 0 -154 4l-102 4h-43v25q85 17 85 36v636q-47 -6 -85 -12l-5 36q77 21 184 31q37 4 67 4q98 0 165 -31q90 -41 90 -127q0 -131 -111 -174q78 -15 127 -75.5t49 -140.5zM305 380q-48 0 -97 -8v-311q0 -5 5 -9 q32 -11 101 -11q77 0 127 35q58 40 58 112q0 74 -46 129q-55 63 -148 63zM242 707q-16 0 -34 -1v-281h20q211 0 211 144q0 138 -197 138z"/>
<glyph glyph-name="C" horiz-adv-x="644" unicode="C" d="M597 124q-134 -142 -263 -142q-114 0 -200 96q-93 104 -93 265q0 168 92 285q100 128 263 128q117 0 189 -59q1 -1 1 -3q0 -7 -17 -28q-16 -20 -36 -41l-21 4q-68 62 -165 62q-56 0 -107 -41q-44 -36 -71 -92q-37 -79 -37 -193q0 -146 80 -234q71 -78 165 -78 q81 0 198 97q5 -2 12 -13q5 -8 10 -13z"/>
<glyph glyph-name="D" horiz-adv-x="711" unicode="D" d="M659 396q0 -260 -184 -358q-70 -38 -147 -38h-299v25q85 17 85 36v635l-85 -11l-5 36q91 25 206 32q36 3 74 3q166 0 260.5 -96.5t94.5 -263.5zM266 707q-30 0 -58 -2v-615q0 -28 38 -36q23 -5 68 -5q93 0 163 79q81 93 81 245q0 150 -70 238q-76 96 -222 96z"/>
<glyph glyph-name="E" horiz-adv-x="595" unicode="E" d="M559 143q-8 -84 -24 -143h-506v25q85 17 85 36v616q0 20 -85 36v25h472l20 -14q-4 -50 -17 -105q-3 -13 -7 -27h-26q-5 94 -49 94h-214v-255h237l15 -17q-14 -24 -40 -50q-7 -8 -13 -12q-26 25 -74 30q-20 2 -42 2h-83v-294q0 -37 120 -37h75q57 0 80 16q28 19 51 84z "/>
<glyph glyph-name="F" horiz-adv-x="574" unicode="F" d="M29 0v25q85 17 85 36v616q0 20 -85 36v25h478l18 -14q-1 -46 -15 -105q-3 -14 -7 -27h-28q-4 94 -48 94h-219v-255h219l17 -17q-16 -24 -42 -50q-7 -8 -13 -12q-25 25 -73 30q-20 2 -43 2h-65v-323q0 -16 103 -36v-25h-282z"/>
<glyph glyph-name="G" horiz-adv-x="700" unicode="G" d="M610 696q2 -1 2 -3q0 -7 -18 -27q-8 -9 -40 -39l-19 4q-64 60 -184 60q-38 0 -83 -28q-137 -84 -137 -290q0 -152 79 -242q70 -78 168 -78q84 0 143 32v199q0 28 -120 48v25h270v-25q-62 -15 -62 -48v-190l-2 -2l2 -2q-78 -64 -140 -89q-47 -19 -107 -19q-130 0 -219 89 q-102 100 -102 270q0 180 105 295q108 120 286 120q98 0 178 -60z"/>
<glyph glyph-name="H" horiz-adv-x="785" unicode="H" d="M29 0v25q85 17 85 36v616q0 20 -85 36v25h264v-25q-85 -17 -85 -36v-264h357v264q0 20 -85 36v25h264v-25q-85 -17 -85 -36v-616q0 -19 85 -36v-25h-264v25q85 17 85 36v299h-357v-299q0 -19 85 -36v-25h-264z"/>
<glyph glyph-name="I" horiz-adv-x="357" unicode="I" d="M41 0v25q85 17 85 36v616q0 20 -85 36v25h264v-25q-85 -17 -85 -36v-616q0 -19 85 -36v-25h-264z"/>
<glyph glyph-name="J" horiz-adv-x="366" unicode="J" d="M325 713q-85 -17 -85 -36v-557q0 -124 -35 -195q-24 -48 -81 -94q-28 -22 -74 -39q-39 -15 -65 -15q-51 0 -88 34q-8 8 -8 13q0 11 28 33q25 20 40 26q45 -29 71 -32q8 -1 21 -1q58 0 82 92q15 58 15 136v599q0 19 -114 36v25h293v-25z"/>
<glyph glyph-name="K" horiz-adv-x="694" unicode="K" d="M29 0v25q85 17 85 36v616q0 20 -85 36v25h264v-25q-85 -17 -85 -36v-616q0 -19 85 -36v-25h-264zM688 21q-93 -29 -132 -29q-35 0 -56 25l-291 360l239 284q18 22 18 31q0 17 -62 21v25h246v-25q-40 -5 -53 -9q-29 -8 -46 -27l-255 -284l281 -319q26 -29 74 -29h3 q16 0 30 2z"/>
<glyph glyph-name="L" horiz-adv-x="571" unicode="L" d="M553 143q-8 -84 -24 -143h-500v25q85 17 85 36v616q0 20 -85 36v25h264v-25q-85 -17 -85 -36v-581q0 -43 109 -43h84q55 0 78 16q25 19 49 84z"/>
<glyph glyph-name="M" horiz-adv-x="967" unicode="M" d="M908 713q-35 0 -79 -21l6 -631q0 -19 85 -36v-25h-266v25q91 19 91 36l-5 552q0 -1 -2 -4l-256 -609h-28l-263 609l-5 -548q0 -19 85 -36v-25h-236v25q85 17 85 36l6 628q-39 24 -85 24v25h167q16 0 38 -49l233 -528l224 528q7 16 21 42q5 7 17 7h167v-25z"/>
<glyph glyph-name="N" horiz-adv-x="779" unicode="N" d="M29 0v25q85 11 85 36v612q-33 31 -85 40v25h124q24 0 57 -46l385 -530v515q0 24 -85 36v25h240v-25q-85 -12 -85 -36v-695q-53 7 -70 30l-410 570v-521q0 -24 85 -36v-25h-241z"/>
<glyph glyph-name="O" horiz-adv-x="720" unicode="O" d="M667 379q0 -149 -89 -267q-97 -130 -241 -130q-103 0 -177 69q-68 62 -99 166q-20 68 -20 141q0 151 88 269q96 129 242 129q137 0 220 -117q76 -106 76 -260zM576 369q0 125 -61 220q-65 100 -161 100q-159 0 -207 -184q-15 -58 -15 -130q0 -112 54 -208 q64 -114 168 -114q156 0 206 179q16 60 16 137z"/>
<glyph glyph-name="P" horiz-adv-x="627" unicode="P" d="M29 0v25q85 17 85 36v636q-46 -6 -85 -12l-5 36q130 35 275 35q116 0 188 -45q88 -54 88 -163q0 -76 -41 -133q-54 -73 -149 -95q-28 -7 -49 -7q-55 0 -95 18l-13 44q39 -17 90 -17q60 0 110 42q56 47 56 124q0 93 -65 141q-58 42 -153 42q-30 0 -58 -1v-645 q0 -18 103 -36v-25h-282z"/>
<glyph glyph-name="Q" horiz-adv-x="720" unicode="Q" d="M751 -68q-19 -36 -44 -66q-37 -45 -61 -45q-62 0 -143 61q-38 30 -140 102q-13 -2 -26 -2q-139 0 -222 123q-74 108 -74 253q0 151 88 269q96 129 242 129q137 0 220 -117q76 -106 76 -260q0 -191 -132 -314q-40 -37 -87 -58l106 -65q60 -36 95 -36q25 0 86 46zM576 369 q0 125 -61 220q-65 100 -161 100q-159 0 -207 -184q-15 -58 -15 -130q0 -112 54 -208q64 -114 168 -114q156 0 206 179q16 60 16 137z"/>
<glyph glyph-name="R" horiz-adv-x="673" unicode="R" d="M29 0v25q85 17 85 36v636l-85 -12l-5 36q100 25 179 32q33 3 72 3q109 0 182 -35q97 -46 97 -143q0 -87 -54 -145q-51 -54 -139 -73l195 -278q23 -34 69 -36h12q12 0 24 1l6 -26q-89 -29 -131 -29q-38 0 -57 32l-200 327h-9q-32 0 -62 6v-296q0 -19 85 -36v-25h-264z M253 707q-22 0 -45 -2v-300q22 -4 52 -4q204 0 204 159q0 104 -116 136q-40 11 -95 11z"/>
<glyph glyph-name="S" horiz-adv-x="571" unicode="S" d="M519 221q0 -60 -31.5 -114.5t-83.5 -85.5q-64 -39 -146 -39q-91 0 -181 58q-9 5 -9 61q0 61 9 89l24 -3q52 -134 190 -134q55 0 102 41t47 96q0 63 -57 107q-29 22 -126 67q-88 41 -125 75q-58 52 -58 127q0 48 28 91q27 42 69 66q58 33 137 33q84 0 145 -32 q19 -10 29 -22q2 -2 2 -6q0 -9 -13 -30q-18 -27 -34 -42l-21 3q-58 68 -143 68q-49 0 -84 -26q-40 -27 -40 -75q0 -49 58 -88q20 -14 126 -67q88 -43 128 -83q58 -56 58 -135z"/>
<glyph glyph-name="T" horiz-adv-x="661" unicode="T" d="M180 0v25q96 18 96 42v619h-175q-26 0 -48 -48q-9 -20 -22 -55l-25 11q7 86 19 144h592l18 -14q-3 -57 -18 -138h-26q-10 44 -11 50q-15 50 -44 50h-166v-619q0 -22 96 -42v-25h-286z"/>
<glyph glyph-name="U" horiz-adv-x="785" unicode="U" d="M747 713q-85 -17 -85 -36v-370q0 -142 -63 -228q-72 -97 -209 -97q-131 0 -203.5 73t-72.5 205v417q0 20 -85 36v25h264v-25q-85 -17 -85 -36v-387q0 -108 47 -171q54 -70 158 -70q84 0 132 79q41 67 41 155v394q0 20 -85 36v25h246v-25z"/>
<glyph glyph-name="V" horiz-adv-x="780" unicode="V" d="M756 713q-41 -8 -51 -11q-34 -10 -40 -28l-225 -639q-12 -35 -87 -53l-258 692q-11 30 -83 39v25h255v-25q-76 -5 -76 -31q0 -3 1 -8l206 -555l197 555q1 4 1 7q0 16 -32 24q-10 3 -52 8v25h244v-25z"/>
<glyph glyph-name="W" horiz-adv-x="1020" unicode="W" d="M997 713l-33 -7q-52 -12 -56 -29l-134 -642q-4 -22 -36 -37q-19 -10 -46 -16l-191 571l-168 -518q-7 -24 -40 -38q-14 -7 -27 -10l-21 -5l-152 690q-6 27 -81 41v25h251v-25q-80 -7 -80 -36q0 -3 1 -5l116 -526l190 592h32l207 -592l110 531q2 12 -24 21q-20 7 -66 15v25 h248v-25z"/>
<glyph glyph-name="X" horiz-adv-x="738" unicode="X" d="M456 0v25q70 7 70 28q0 8 -8 21l-164 239l-148 -239q-7 -12 -7 -20q0 -23 83 -29v-25h-264v25q81 6 107 49l186 303l-196 287q-18 27 -39 37q-15 7 -52 12v25h264v-25q-72 -6 -72 -26q0 -9 10 -23l144 -213l133 213q8 13 7 22q-3 22 -84 27v25h265v-25q-65 -7 -89 -28 q-11 -10 -18 -21l-170 -276l213 -314q28 -40 93 -49v-25h-264z"/>
<glyph glyph-name="Y" horiz-adv-x="713" unicode="Y" d="M211 0v25q96 20 96 42v247q-93 206 -208 360q-24 33 -97 33l-2 25q91 12 128 12q28 0 55 -33q3 -3 38 -56q50 -78 99 -169q26 -48 45 -88l157 276q2 5 2 9q0 21 -67 30v25h232v-25q-37 -7 -50 -11q-32 -11 -41 -28l-197 -357v-250q0 -24 97 -42v-25h-287z"/>
<glyph glyph-name="Z" horiz-adv-x="627" unicode="Z" d="M581 172q-1 -13 -2 -42l-5 -130h-522l-17 26l416 654h-269q-30 0 -53 -45q-16 -31 -25 -71l-33 7l17 177q42 -10 81 -10h391l15 -25l-413 -654h306q32 0 54 47q9 18 26 74z"/>
<glyph glyph-name="bracketleft" horiz-adv-x="370" unicode="[" d="M346 -146q-8 -30 -17 -50h-247v1133h243l20 -15q-7 -31 -16 -50h-164v-1001h160z"/>
<glyph glyph-name="backslash" d="M510 -196q-48 15 -67 29l-411 1092l22 12q34 -8 66 -28l410 -1091z" unicode="\"/>
<glyph glyph-name="bracketright" horiz-adv-x="370" unicode="]" d="M44 -196l-19 17q4 30 15 50h165v1001h-161l-20 15q2 18 16 50h247v-1133h-243z"/>
<glyph glyph-name="asciicircum" horiz-adv-x="591" unicode="^" d="M531 372q-26 -24 -62 -41l-21 16l-166 424l-147 -399q-21 -19 -49 -34l-14 -7l-13 16l188 509q25 26 78 52z"/>
<glyph glyph-name="underscore" d="M525 -91q-6 -29 -16 -53h-459l-14 16q6 25 18 51h458z" unicode="_"/>
<glyph glyph-name="grave" horiz-adv-x="383" unicode="`" d="M257 632q-15 -13 -33 -19l-206 221l12 24q29 7 86 15z"/>
<glyph glyph-name="a" horiz-adv-x="551" unicode="a" d="M542 48q-94 -66 -131 -66q-43 0 -46 102q-101 -102 -193 -102q-49 0 -84 30q-41 35 -41 97q0 111 112 168q36 18 86 29l120 24v81q0 93 -94 93h-4q-38 -1 -66 -21q-30 -21 -30 -52v-8q0 -11 -42 -23q-34 -10 -51 -10q-4 0 -7 1l-8 23q29 62 108 107q76 41 148 41 q63 0 98.5 -32.5t35.5 -94.5v-331q0 -45 24 -45q20 0 57 15zM206 59q73 0 159 74v153l-70 -14q-152 -29 -152 -138q0 -41 24 -61q17 -14 39 -14z"/>
<glyph glyph-name="b" horiz-adv-x="609" unicode="b" d="M556 288q0 -72 -36.5 -143.5t-95.5 -113.5q-68 -49 -149 -49q-59 0 -193 74v703q0 51 -14 64q-10 9 -62 15v23q45 11 73 19q42 13 69 28q8 -6 22 -20v-462q41 50 90 87q65 49 113 49q96 0 145 -94q38 -74 38 -180zM478 239q0 85 -31 155q-40 89 -115 89q-26 0 -66 -26 q-52 -35 -96 -100v-238q42 -32 94 -48q42 -12 68 -12q69 0 110 58q36 51 36 122z"/>
<glyph glyph-name="c" horiz-adv-x="524" unicode="c" d="M492 111q-69 -81 -120 -109q-37 -20 -100 -20q-104 0 -168 90q-57 79 -57 188q0 127 86 214.5t213 87.5q62 0 112 -27q16 -9 25 -19q1 -3 1 -6q0 -15 -11 -43q-11 -29 -23 -47l-22 6q-11 25 -42 46q-39 26 -93 26q-80 0 -123 -74q-35 -60 -35 -146q0 -85 46 -149 q51 -69 133 -69q55 0 101 32q20 14 54 43z"/>
<glyph glyph-name="d" horiz-adv-x="624" unicode="d" d="M616 49q-99 -67 -130 -67q-41 0 -49 117q-96 -117 -193 -117q-71 0 -131 74q-66 81 -66 204q0 73 37 143t96 112q66 47 143 47q64 0 114 -37v222q0 63 -12 78q-13 18 -73 22v23q65 9 154 38l18 -17v-742q0 -41 4 -60q5 -31 25 -31h5q14 3 50 16zM437 428q-41 70 -132 70 q-119 0 -158 -123q-12 -42 -12 -97q0 -94 51 -159q46 -59 99 -59q36 0 78 29q26 18 74 64v275z"/>
<glyph glyph-name="e" horiz-adv-x="562" unicode="e" d="M511 326q-18 -20 -64 -39h-308v-2q0 -63 24 -117q26 -60 76 -89q33 -19 73 -19q62 0 117 36q24 15 57 42q10 -5 22 -24q-76 -83 -125 -109q-42 -23 -107 -23q-104 0 -168 87q-57 78 -57 185q0 78 33 147q35 73 96 115q68 46 131 46q82 0 134 -51q50 -49 62 -133 q4 -25 4 -52zM295 501q-91 0 -133 -95q-13 -29 -19 -66h250q22 0 22 21q0 60 -30 99q-33 41 -90 41z"/>
<glyph glyph-name="f" horiz-adv-x="373" unicode="f" d="M479 852q0 -10 -29 -34q-26 -22 -46 -31q-39 35 -80 46q-11 3 -19 3q-39 0 -65 -48q-35 -62 -35 -193v-50h151l17 -17q-17 -27 -44 -50q-8 -6 -13 -9q-40 21 -111 21v-430q0 -12 123 -35v-25h-293v25q82 15 82 35v430h-78l-13 16l46 39h45v18q0 126 35 196q24 49 82 95 q47 38 107 51q16 3 28 3q31 0 72 -23q38 -21 38 -33z"/>
<glyph glyph-name="g" horiz-adv-x="585" unicode="g" d="M486 375q0 -64 -43 -117q-40 -48 -104 -71q-41 -15 -85 -15h-3q-48 -40 -48 -57q0 -16 29 -27q41 -15 121 -24q215 -24 215 -134q0 -64 -48 -119q-42 -46 -108 -75q-69 -29 -139 -29q-141 0 -213 67q-42 38 -42 92q0 35 28 68q37 42 128 90q-68 24 -68 66q0 32 84 91 q-61 16 -96 62t-35 110q0 85 70 148q68 61 155 61q69 0 122 -38q52 5 99 18q31 8 63 20l12 -17q-9 -20 -34 -59q-42 -7 -92 -9q32 -48 32 -102zM304 -2q-43 4 -76 11q-123 -66 -123 -120q0 -58 75 -93q60 -28 126 -28q70 0 119 34q55 39 55 106q0 70 -176 90zM404 352 q0 70 -46 111q-44 40 -114 40q-35 0 -66 -29q-37 -35 -37 -88q0 -72 44 -113q43 -39 116 -39q46 0 75 37q28 34 28 81z"/>
<glyph glyph-name="h" horiz-adv-x="662" unicode="h" d="M393 0v25q82 22 82 36v310q0 56 -11 80q-16 35 -65 35q-52 0 -114 -60q-45 -43 -83 -104v-261q0 -18 82 -36v-25h-252v25q82 21 82 36v700q0 49 -16 61q-11 9 -66 16v23q71 14 115 32q18 7 34 15l21 -20v-487q48 70 118 118q64 43 113 43q59 0 94 -34.5t35 -93.5v-373 q0 -15 83 -36v-25h-252z"/>
<glyph glyph-name="i" horiz-adv-x="325" unicode="i" d="M41 0v25q82 17 82 36v332q0 64 -10 77q-12 17 -72 22v24q65 12 117 32q13 6 33 14h20v-501q0 -20 82 -36v-25h-252zM229 739q0 -31 -19 -55q-19 -25 -49 -25q-50 0 -50 56q0 31 18 54q20 25 50 25q50 0 50 -55z"/>
<glyph glyph-name="j" horiz-adv-x="311" unicode="j" d="M196 58q0 -115 -26 -181q-32 -81 -118 -134q-36 -22 -69 -32q-15 -4 -26 -4q-21 0 -56 11q-42 13 -42 30q0 10 32 35q27 22 43 29q30 -26 81 -26q93 0 93 239v368q0 62 -10 76q-13 16 -72 23v24q58 9 114 32q11 5 35 14h21v-504zM214 739q0 -52 -41 -74q-12 -6 -27 -6 q-49 0 -49 56q0 53 41 74q12 5 27 5q49 0 49 -55z"/>
<glyph glyph-name="k" horiz-adv-x="600" unicode="k" d="M32 0v25q82 21 82 36v698q0 51 -15 64q-11 9 -67 15v23q103 21 149 47l21 -20v-580l181 160q25 22 25 35q0 12 -22 15q-12 2 -29 2v25h223v-25q-57 -7 -94 -37l-198 -159l218 -259q23 -27 60 -29q14 -1 31 0l3 -25q-29 -7 -65 -12q-30 -5 -43 -5q-43 0 -67 31l-223 283 v-247q0 -15 65 -36v-25h-235z"/>
<glyph glyph-name="l" horiz-adv-x="325" unicode="l" d="M35 0v25q88 14 88 36v698q0 50 -17 63q-11 10 -65 16v23q93 18 149 47l21 -20v-827q0 -21 88 -36v-25h-264z"/>
<glyph glyph-name="m" horiz-adv-x="964" unicode="m" d="M695 0v25q81 22 81 36v310q0 57 -7 80q-15 41 -59 41q-81 0 -177 -156v-275q0 -15 83 -36v-25h-252v25q81 22 81 36v310q0 57 -8 80q-13 41 -58 41q-72 0 -177 -156v-275q0 -18 82 -36v-25h-252v25q82 21 82 36v356q0 47 -17 60q-11 8 -65 15v24q65 10 141 46l20 -20 l7 -134q106 154 203 154q130 0 130 -138v-11q38 57 86 97q62 52 115 52q61 0 95.5 -33.5t34.5 -94.5v-373q0 -15 83 -36v-25h-252z"/>
<glyph glyph-name="n" horiz-adv-x="662" unicode="n" d="M393 0v25q82 22 82 36v310q0 58 -11 80q-15 35 -65 35q-52 0 -114 -60q-46 -44 -83 -104v-261q0 -18 82 -36v-25h-252v25q82 21 82 36v356q0 48 -16 61q-11 8 -66 14v24q70 11 141 46l20 -20l7 -146q39 60 100 108q74 58 133 58t94 -34.5t35 -93.5v-373q0 -15 83 -36v-25 h-252z"/>
<glyph glyph-name="o" horiz-adv-x="611" unicode="o" d="M562 284q0 -94 -54 -176q-56 -85 -143 -114q-33 -12 -69 -12q-115 0 -182 84q-62 78 -62 194q0 95 53 177q55 83 143 114q33 11 70 11q114 0 182 -83q62 -79 62 -195zM472 267q0 77 -46 149q-51 82 -125 82q-159 0 -159 -221q0 -62 30 -120q31 -60 83 -92q30 -18 57 -18 q160 0 160 220z"/>
<glyph glyph-name="p" horiz-adv-x="636" unicode="p" d="M588 288q0 -67 -32.5 -139t-81.5 -118q-54 -49 -109 -49q-77 0 -163 76v-278q0 -21 99 -36v-25h-269v25q82 20 82 36v637q0 47 -17 61q-14 12 -65 14v24q76 15 141 46l20 -20l6 -116q41 50 92 87q65 49 113 49q96 0 145 -94q39 -75 39 -180zM510 250q0 80 -32 150 q-41 89 -113 89q-39 0 -93 -50q-38 -36 -70 -82v-232q88 -66 162 -66q101 0 135 108q11 36 11 83z"/>
<glyph glyph-name="q" horiz-adv-x="618" unicode="q" d="M337 -281v25q100 15 100 36v317q-95 -115 -193 -115q-71 0 -131 74q-66 81 -66 204q0 92 57 172q43 62 98 92q69 38 121 38q73 0 135 -54q29 17 66 54l18 -17l-2 -10q-7 -21 -13 -66q-3 -22 -3 -49v-640q0 -21 82 -36v-25h-269zM285 60q36 0 78 29q26 18 74 64v275 q-42 71 -132 71q-83 0 -130 -71q-40 -62 -40 -150q0 -94 51 -159q46 -59 99 -59z"/>
<glyph glyph-name="r" horiz-adv-x="475" unicode="r" d="M451 541q6 -3 5 -20q0 -34 -16 -85q-7 -25 -14 -40h-25q-13 84 -65 84q-31 0 -66 -44q-42 -54 -68 -145v-230q0 -21 99 -36v-25h-269v25q82 19 82 36v341q0 57 -13 75q-12 11 -41 13l-28 2v24l72 19q42 12 69 27l20 -20l8 -133q76 153 166 153q48 0 84 -21z"/>
<glyph glyph-name="s" horiz-adv-x="463" unicode="s" d="M410 166q0 -79 -46 -126t-125 -56q-18 -2 -31 -2q-68 0 -146 43q-6 3 -6 39v20q3 56 10 82l25 -7q3 -54 49 -88q42 -31 98 -31q66 0 89 55q7 17 7 38q0 41 -46 75q-21 15 -100 55q-59 31 -87 58q-40 39 -40 89q0 69 53 112q50 40 121 40q63 0 123 -26q21 -9 31 -18 q4 -4 1 -17q-5 -22 -20 -54q-7 -14 -10 -17l-23 4q-50 76 -117 76q-32 0 -56 -19q-27 -21 -27 -52q0 -32 41 -62q17 -12 41 -24l48 -25q38 -20 50 -28q27 -15 47 -34q46 -43 46 -100z"/>
<glyph glyph-name="t" horiz-adv-x="413" unicode="t" d="M396 68q-118 -86 -194 -86q-72 0 -94 79q-8 28 -8 68v361h-76l-12 16l46 39h42v144l69 61l18 -15v-190h192l17 -17q-30 -47 -59 -59q-41 21 -119 21h-31v-310q0 -56 7 -78q14 -42 57 -42q53 0 128 39z"/>
<glyph glyph-name="u" horiz-adv-x="636" unicode="u" d="M626 48q-101 -66 -128 -66q-43 0 -50 115q-115 -115 -209 -115q-139 0 -139 182v253q0 54 -11 66t-65 17v24q56 6 110 25q21 7 37 13l16 -22v-344q0 -143 90 -143q76 0 171 100v264q0 52 -14.5 66.5t-67.5 16.5v24q61 7 153 38l17 -22v-391q0 -79 14 -88q7 -5 24 -2 q18 3 47 15z"/>
<glyph glyph-name="v" horiz-adv-x="592" unicode="v" d="M580 520q-18 -4 -47 -16q-12 -7 -18 -24l-166 -445q-14 -37 -79 -53l-193 498q-11 28 -65 40v25h226v-25q-23 -3 -60 -14q-7 -4 -9 -10q-1 -7 3 -16l144 -376l135 376q3 8 2 15q-1 12 -28 18q-9 3 -35 7v25h190v-25z"/>
<glyph glyph-name="w" horiz-adv-x="847" unicode="w" d="M835 520q-20 -4 -30 -8q-19 -8 -24 -16q-2 -4 -5 -13l-129 -448q-11 -37 -81 -53l-139 398l-120 -345q-12 -35 -59 -48q-5 -1 -19 -5l-153 501q-8 24 -64 37v25h226v-25q-54 -6 -68 -16q-6 -4 -7 -10q0 -6 2 -11l110 -372l144 434h40l153 -434l101 372v4q0 22 -68 33v25 h190v-25z"/>
<glyph glyph-name="x" horiz-adv-x="604" unicode="x" d="M360 0v25q55 5 55 26q0 10 -12 26l-116 157l-111 -157q-11 -16 -9 -26q5 -17 38 -22q16 -3 29 -4v-25h-222v25q70 11 101 55l142 198l-137 189q-28 37 -60 47q-16 4 -40 6v25h246v-25q-57 -6 -57 -28q0 -8 12 -24l94 -130l90 130q12 18 12 26q0 22 -55 26v25h223v-25 q-82 -6 -115 -53l-123 -173l156 -214q36 -48 94 -55v-25h-235z"/>
<glyph glyph-name="y" horiz-adv-x="592" unicode="y" d="M580 520q-18 -4 -47 -16q-12 -7 -18 -24l-196 -528q-45 -121 -117 -187q-64 -58 -128 -58q-26 0 -57 6q-44 9 -44 25q0 11 28 42q27 29 40 37q28 -16 56 -17h9q30 0 50 12q19 11 44 43q30 40 52 91l17 40l-192 494q-11 28 -65 40v25h226v-25q-23 -3 -60 -14q-7 -4 -9 -10 q-1 -7 3 -16l144 -374l135 374q3 8 1 15q-5 14 -68 25v25h196v-25z"/>
<glyph glyph-name="z" horiz-adv-x="530" unicode="z" d="M486 146q0 -56 -5 -119q-1 -18 -2 -27h-419l-16 26l326 466h-203q-49 0 -68 -88l-29 7l10 143q35 -9 70 -9h322l12 -25l-326 -467h247q28 0 53 98z"/>
<glyph glyph-name="braceleft" horiz-adv-x="403" unicode="{" d="M380 910q-108 -66 -108 -177q0 -32 12 -95.5t12 -96.5q0 -51 -29 -94.5t-76 -63.5q105 -19 105 -157q0 -36 -20 -150q-4 -22 -4 -51q0 -67 21.5 -104.5t81.5 -69.5l-14 -36q-93 38 -134 82q-52 56 -52 145q0 35 12 102.5t12 102.5q0 96 -91 96h-12q5 0 -26 -3l-10 31 q139 37 139 135q0 52 -12 97q-8 27 -10 56q-2 15 -2 41q0 115 111 193q35 24 79 44z"/>
<glyph glyph-name="bar" horiz-adv-x="275" unicode="|" d="M187 -207q-19 -17 -61 -30l-21 13v1174q37 22 62 29l20 -13v-1173z"/>
<glyph glyph-name="braceright" horiz-adv-x="403" unicode="}" d="M345 381q-140 -36 -140 -134q0 -55 11 -96q7 -22 10 -56q2 -19 2 -41q0 -116 -111 -194q-35 -25 -78 -45l-16 29q108 67 108 177q0 33 -11.5 96.5t-11.5 96.5q0 51 29 93.5t77 62.5q-106 21 -106 158q0 32 19 149q4 24 4 51q0 68 -21.5 104.5t-80.5 69.5l13 35 q92 -36 134 -81q52 -55 52 -144q0 -34 -7 -74q-5 -25 -13 -75q-3 -21 -3 -56q0 -97 91 -97h12q5 0 13 2l13 2z"/>
<glyph glyph-name="asciitilde" horiz-adv-x="585" unicode="~" d="M557 454q-48 -112 -123 -158q-27 -17 -55 -17q-29 0 -108 47t-109 47q-55 0 -102 -95l-31 16q47 110 123 158q27 16 54 16q35 0 112 -46.5t104 -46.5q56 0 103 93z"/>
<glyph glyph-name="NBSP" horiz-adv-x="500" unicode=" "/>
<glyph glyph-name="currency" horiz-adv-x="569" unicode="¤" d="M285 221q25 0 47.5 10t39.5 26.5t27 39t10 48.5q0 25 -10 48t-27 39.5t-40 26.5t-47 10q-25 0 -47.5 -10t-39.5 -26.5t-27.5 -39.5t-10.5 -48q0 -26 10.5 -48.5t27 -39t39 -26.5t48.5 -10zM519 168l-55 -56l-66 66q-52 -35 -113 -35q-63 0 -112 36l-67 -67l-56 56l66 66 q-33 52 -33 111q0 58 33 110q2 0 -66 67l56 56q67 -64 67 -66q48 34 112 34q63 0 113 -34l66 66l55 -56l-65 -67q33 -52 33 -110q0 -60 -35 -111z"/>
<glyph glyph-name="section" horiz-adv-x="524" unicode="§" d="M335 108q59 30 59 81q0 30 -24 57.5t-87 66t-96 64.5q-58 -28 -58 -85q0 -32 21.5 -58t89.5 -67t95 -59zM350 503q-7 87 -93 87q-40 0 -62 -19.5t-22 -49.5t27.5 -55.5t125.5 -84.5t123 -96.5t25 -80.5q0 -79 -100 -127q69 -44 69 -122q0 -62 -49 -103t-125 -41 q-80 0 -131 40.5t-62 117.5h86q10 -92 107 -92q44 0 68 23t24 54t-33 58t-132.5 87.5t-122.5 99t-23 84.5q0 79 99 125q-59 50 -59 109q0 53 43.5 95.5t118.5 42.5q82 0 129 -40.5t55 -111.5h-86z"/>
<glyph glyph-name="logicalnot" horiz-adv-x="538" unicode="¬" d="M488 319v-195h-65v130h-373v65h438z"/>
<glyph glyph-name="degree" horiz-adv-x="362" unicode="°" d="M181 494q16 0 31 6.5t26 17.5t17 26t6 31t-6 30.5t-17 25.5t-26 17t-31 6q-17 0 -31.5 -6t-25.5 -16.5t-17 -25.5t-6 -31t6 -31t17 -26t25.5 -17.5t31.5 -6.5zM181 707q27 0 51 -11t41.5 -29.5t28 -42t10.5 -49.5q0 -28 -10.5 -52t-28.5 -42t-41.5 -28.5t-50.5 -10.5 t-51 10.5t-41.5 28.5t-28 42t-10.5 52q0 27 10.5 50.5t28 42t41.5 29t51 10.5z"/>
<glyph glyph-name="paragraph" horiz-adv-x="639" unicode="¶" d="M589 631h-70v-830h-82v830h-109v-830h-82v510q-95 6 -145.5 61.5t-50.5 137.5q0 89 55.5 147.5t174.5 58.5h309v-85z"/>
<glyph glyph-name="periodcentered" horiz-adv-x="264" unicode="·" d="M50 390q0 17 6 32t17.5 26.5t26.5 18t31 6.5q17 0 32.5 -7t26.5 -18t17.5 -26t6.5 -32t-6.5 -32t-17.5 -26.5t-26.5 -18t-32.5 -6.5q-16 0 -31 6.5t-26.5 18t-17.5 26.5t-6 32z"/>
<glyph glyph-name="uni0B83" horiz-adv-x="696" unicode="ஃ" d="M57 150q0 -42 16.5 -71.5t39.5 -29.5t40 29.5t17 71.5t-17 71.5t-40 29.5t-39.5 -29.5t-16.5 -71.5zM439 151q0 -42 16.5 -71.5t39.5 -29.5t40 29.5t17 71.5t-17 71.5t-40 29.5t-39.5 -29.5t-16.5 -71.5zM239 530q0 -42 16.5 -71.5t40.5 -29.5q23 0 39.5 29.5t16.5 71.5 t-16.5 71.5t-39.5 29.5q-24 0 -40.5 -29.5t-16.5 -71.5zM392 150q0 63 38.5 108t93.5 45t93.5 -45t38.5 -108t-38.5 -108t-93.5 -45t-93.5 45t-38.5 108zM10 150q0 63 38.5 108t93.5 45t93.5 -45t38.5 -108t-38.5 -108t-93.5 -45t-93.5 45t-38.5 108zM194 532q0 63 38.5 108 t93.5 45t93.5 -45t38.5 -108t-38.5 -108t-93.5 -45t-93.5 45t-38.5 108z"/>
<glyph glyph-name="uni0B85" horiz-adv-x="971" unicode="அ" d="M376 263q0 -37 14.5 -56.5t33.5 -19.5h2q45 2 45 74q0 77 -41 82h-6q-21 0 -34.5 -20.5t-13.5 -59.5zM600 49h-500q-27 0 -32 -1q-17 -4 -17 -21q0 -28 70 -67t140 -47q29 -3 59 -3q41 0 82 6q58 9 107 40q25 16 52 43q31 31 39 50zM931 -187h-111v236h-96 q-31 -61 -85 -103q-98 -77 -284 -77q-52 0 -100 7q-78 12 -158 60q-37 23 -60 49q-22 26 -22 49q0 5 1 10q8 36 89 36h511q22 43 22 107q0 10 -1 21q-3 64 -38 112q-38 51 -92 54q30 -16 46 -55q13 -28 13 -58q0 -6 -1 -12q-4 -48 -36.5 -78.5t-79.5 -30.5q-50 0 -81 33.5 t-31 95.5q0 70 49.5 105t123.5 35q14 0 28 -1q158 -11 202 -156q10 -35 10 -76q0 -54 -14 -96h84v328h111v-595z"/>
<glyph glyph-name="uni0B86" horiz-adv-x="1117" unicode="ஆ" d="M376 263q0 -37 14.5 -56.5t33.5 -19.5h2q45 2 45 74q0 77 -41 82h-6q-21 0 -34.5 -20.5t-13.5 -59.5zM600 49h-500q-27 0 -32 -1q-17 -4 -17 -21q0 -28 70 -67t140 -47q29 -3 59 -3q41 0 82 6q58 9 107 40q25 16 52 43q31 31 39 50zM965 -50q-4 1 -8 1q-21 0 -26 -25 v-108h-111v231h-96q-31 -61 -85 -103q-98 -77 -284 -77q-52 0 -100 7q-78 12 -158 60q-37 23 -60 49q-22 26 -22 49q0 5 1 10q8 36 89 36h511q22 43 22 107q0 10 -1 21q-3 64 -38 112q-38 51 -92 54q30 -16 46 -55q13 -28 13 -58q0 -6 -1 -12q-4 -48 -36.5 -78.5 t-79.5 -30.5q-50 0 -81 33.5t-31 95.5q0 70 49.5 105t123.5 35q14 0 28 -1q158 -11 202 -156q10 -35 10 -76q0 -54 -14 -96h84v328h111v-435q15 29 68 29q50 0 81.5 -33t31.5 -83q0 -22 -7 -42q-26 -78 -124 -114q-76 -28 -185 -28h-15q-97 2 -166 27q-78 28 -78 73 q0 28 26 42q20 11 46 11l114 -1v-31h-118q-35 0 -35 -18q0 -10 9 -22q14 -19 60 -33q51 -15 115 -15q46 0 93 8q130 23 149 115q3 14 3 27q0 59 -34 65z"/>
<glyph glyph-name="uni0B87" horiz-adv-x="904" unicode="இ" d="M262 262q4 -79 51 -79h4q42 3 42 84q0 78 -43 81h-4q-22 0 -36 -21t-14 -56v-9zM579 -42q-27 -46 -84 -104q-23 -24 -82 -63q28 -18 99 -21h7q45 0 79.5 24t34.5 73q0 29 -15.5 54.5t-38.5 36.5zM139 -48q-31 -18 -55 -45q-31 -37 -31 -73q0 -43 28 -65.5t71 -22.5h8 q103 4 155 54q-19 8 -98 72q-4 3 -78 80zM169 -26q19 -36 91 -95q41 -33 81 -54q13 6 76 79q39 45 62 96q-35 17 -106 17q-19 0 -41 -1q-115 -7 -163 -42zM864 -265h-40v390q0 204 -107 322q-104 114 -277 115h-5q-257 0 -332 -187q-24 -60 -24 -133q0 -72 23 -143 q21 -64 51 -100q16 12 63 28q58 19 110 23q24 2 48 2q76 0 125 -14q42 68 42 155v12q-3 91 -43 144q-36 48 -86 48q-9 0 -18 -2q68 -30 68 -132q0 -20 -4 -41q-7 -41 -40.5 -69t-74.5 -28q-22 0 -43 9q-38 16 -59 55q-19 35 -19 78q0 81 56 124q49 39 130 39h4 q107 -2 172 -63t68 -169v-13q0 -55 -15 -109q-13 -48 -29 -71q51 -22 87 -65q39 -48 39 -99q0 -21 -7 -41q-30 -90 -154 -90q-46 0 -105 16q-62 17 -95 41q-7 -9 -44 -25q-44 -18 -90 -27q-37 -7 -70 -7q-60 0 -95 23q-31 20 -43 37q-15 22 -17 56v9q0 53 41 98q8 8 62 51 q-40 48 -66 122q-27 81 -27 165q0 68 18 128q44 146 158 221q103 67 244 67h24q185 -7 292 -142q104 -132 104 -347v-461z"/>
<glyph glyph-name="uni0B88" horiz-adv-x="539" unicode="ஈ" d="M387 202q0 23 16.5 39.5t39.5 16.5t39.5 -16.5t16.5 -39.5t-16.5 -39.5t-39.5 -16.5t-39.5 16.5t-16.5 39.5zM85 202q0 23 16.5 39.5t39.5 16.5t39.5 -16.5t16.5 -39.5t-16.5 -39.5t-39.5 -16.5t-39.5 16.5t-16.5 39.5zM10 0v408h481v-33h-144v-375h-111v375h-190v-375 h-36z"/>
<glyph glyph-name="uni0B89" horiz-adv-x="798" unicode="உ" d="M70 278q0 -32 12.5 -50t27.5 -18q3 0 6 1q34 7 34 59q0 65 -35 67h-3q-42 0 -42 -59zM190 130q57 0 92.5 31.5t35.5 87.5q0 58 -31 94.5t-78 36.5q-13 0 -26 -3q26 -11 40.5 -43t14.5 -59v-10q-4 -64 -58 -88q-22 -10 -45 -10q-15 0 -30 4q-33 9 -52.5 38t-19.5 67 q0 65 56 100q47 29 125 33h16q74 0 128 -33q67 -42 71 -123v-9q0 -62 -52 -103q-52 -43 -130 -43h-126q-26 0 -40.5 -11t-10.5 -26q6 -23 57 -28q12 -1 73 -1h558v-32h-630q-117 0 -117 66q0 64 107 64h72z"/>
<glyph glyph-name="uni0B8A" horiz-adv-x="1179" unicode="ஊ" d="M70 278q0 -67 40 -67h3q37 3 37 59q0 65 -35 67h-3q-42 0 -42 -59zM190 130q57 0 93 32q35 31 35 87q0 58 -32 95q-30 36 -77 36q-13 0 -26 -3q28 -13 43 -47q12 -28 12 -54v-11q-4 -64 -58 -88q-22 -10 -45 -10q-15 0 -30 4q-33 9 -53 39q-19 28 -19 66q0 76 74 112 q42 19 107 22h12q76 0 131 -34q68 -42 72 -123v-9q0 -62 -52 -103q-52 -43 -130 -43h-126q-27 0 -41 -11t-10 -26q4 -17 30 -23t100 -6h939v-32h-1011q-117 0 -117 66q0 64 107 64h72zM614 208q0 -21 8 -34t18 -12q25 2 25 43q0 40 -21 42h-4q-25 0 -26 -39zM806 407h276 v-30h-62v-256h-82v256h-56v-256h-83v127q-1 50 -37 86q-36 35 -85 35h-3q-58 -1 -94 -35q-34 -33 -34 -81v-5q2 -35 20 -63t45 -35q-9 7 -16 17q-13 19 -13 42q0 5 1 9q6 71 74 71q31 1 53 -23t22 -55v-6q0 -42 -27 -65q-26 -21 -66 -21q-18 0 -35 5q-47 13 -70 55 q-19 33 -19 78v12q3 63 49 101t116 39q55 -1 94 -30q28 -21 32 -37v65z"/>
<glyph glyph-name="uni0B8E" horiz-adv-x="723" unicode="எ" d="M144 124q0 -33 13.5 -55.5t33.5 -22.5q22 0 35 20.5t13 54.5q0 69 -45 71h-3q-47 0 -47 -68zM564 0h-111v375h-181q-103 0 -158 -40q-70 -51 -70 -151q0 -56 28.5 -97t77.5 -56q-19 14 -30 38q-12 25 -12 56v12q3 45 32 73.5t74 28.5q44 0 75.5 -34t32.5 -78v-7 q0 -58 -35 -91t-97 -33q-27 0 -52 7q-61 18 -94.5 68t-33.5 116q0 99 65.5 160t184.5 61h458v-33h-154v-375z"/>
<glyph glyph-name="uni0B8F" horiz-adv-x="723" unicode="ஏ" d="M144 124q0 -33 13.5 -55.5t33.5 -22.5q22 0 35 20.5t13 54.5q0 69 -45 71h-3q-47 0 -47 -68zM453 9v366h-181q-103 0 -158 -40q-70 -51 -70 -151q0 -56 28.5 -97t77.5 -56q-19 14 -30 38q-12 25 -12 56v12q3 45 32 73.5t74 28.5q44 0 75.5 -34t32.5 -78v-7q0 -58 -35 -91 t-97 -33q-27 0 -52 7q-61 18 -94.5 68t-33.5 116q0 99 65.5 160t184.5 61h458v-33h-154v-374l-312 -155v40z"/>
<glyph glyph-name="uni0B90" horiz-adv-x="751" unicode="ஐ" d="M145 224q0 -26 10 -39.5t22 -13.5q3 0 7 1q28 6 28 52q0 53 -30 54h-3q-34 0 -34 -54zM620 390q50 -24 72 -80q15 -38 15 -88q0 -14 -1 -28q-6 -70 -60.5 -111t-144.5 -41h-246q-64 0 -97 -36t-33 -84q0 -8 1 -17q7 -70 58 -82q15 -4 29 -4q49 0 118 73q51 54 89 76 q60 34 144 34h5q63 -1 100 -32q38 -32 38 -87v-11q-4 -56 -49 -86q-32 -22 -74 -27q-11 -1 -21 -1l-55 9q-52 18 -65 43l18 28q30 -34 67 -34q35 0 54.5 21.5t19.5 56.5q0 32 -21.5 55.5t-58.5 23.5q-32 0 -55 -8q-53 -19 -110 -81q-50 -54 -84 -78q-48 -33 -98 -33 q-24 0 -49 7q-106 30 -106 150q0 12 1 24q7 68 68 104q54 32 141 32h249q51 0 81 33q35 37 35 110q0 53 -17 96q-19 47 -49 53q-11 2 -21 2q-68 0 -68 -100v-131h-111v99q0 60 -34.5 94.5t-89.5 38.5h-13q-57 0 -98 -32.5t-41 -88.5q0 -46 24 -77q27 -33 72 -33h8 q-23 9 -35 33.5t-12 50.5v8q3 33 24 56.5t56 23.5q42 0 64.5 -27.5t22.5 -65.5q0 -52 -38 -80.5t-87 -28.5q-28 0 -53 10q-81 32 -81 126q0 10 1 20q6 81 83 118q48 24 109 24q11 0 23 -1q140 -9 177 -79q12 33 37 55q29 25 78 25q8 0 17 -1q45 -4 77 -19z"/>
<glyph glyph-name="uni0B92" horiz-adv-x="728" unicode="ஒ" d="M143 111v-9q0 -27 11.5 -43.5t30.5 -16.5h2q38 2 38 60q0 59 -29 63q-5 1 -10 1q-40 0 -43 -55zM168 -150q-1 -7 -1 -14q0 -38 30 -59q29 -21 72 -21h8q52 2 76 40q11 17 25 66q16 54 87 56q-24 8 -49 31q-45 42 -45 106q0 57 37 95t93 38q-14 -18 -14 -64q0 -75 46 -84 q5 -1 15 -1q42 0 64 31q19 27 19 70q0 84 -62 132q-89 69 -225 69h-11q-129 -2 -199 -51t-77 -136q-1 -6 -1 -13q0 -42 25.5 -74.5t60.5 -39.5q-39 27 -39 84q0 9 1 19q4 45 37 70q28 21 65 21h6q50 -3 75.5 -36t25.5 -77v-10q-3 -51 -40 -79.5t-89 -28.5q-58 0 -102.5 31.5 t-60.5 86.5q-9 28 -9 57q0 8 1 15q10 135 128 197q89 46 192 48h6q79 0 154 -27q72 -26 117 -69q73 -69 76 -167v-7q0 -65 -36 -110q-36 -46 -93 -46q-8 0 -16 1q-91 9 -91 115q0 12 1 24q-42 -26 -42 -86q0 -59 47 -94q42 -31 103 -31h110v-33h-128q-47 0 -63 -63 q-31 -122 -175 -122q-67 0 -114 31q-56 36 -56 99q0 10 2 21q4 24 24 42l24 -18q-12 -14 -15 -35z"/>
<glyph glyph-name="uni0B93" horiz-adv-x="728" unicode="ஓ" d="M143 111v-9q0 -27 11.5 -43.5t30.5 -16.5h2q38 2 38 60q0 59 -29 63q-5 1 -10 1q-40 0 -43 -55zM308 -129q0 -38 -47 -61l-16 28q27 5 27 37q0 9 -7 16q-10 9 -32 9h-4q-55 -3 -61 -50q-1 -7 -1 -14q0 -38 30 -59q29 -21 72 -21h8q52 2 76 40q11 17 25 66q16 54 87 56 q-24 8 -49 31q-45 42 -45 106q0 57 37 95t93 38q-14 -18 -14 -64q0 -75 46 -84q5 -1 15 -1q42 0 64 31q19 27 19 70q0 84 -62 132q-89 69 -225 69h-11q-129 -2 -199 -51t-77 -136q-1 -6 -1 -13q0 -42 25.5 -74.5t60.5 -39.5q-39 27 -39 84q0 9 1 19q4 45 37 70q28 21 65 21 h6q50 -3 75.5 -36t25.5 -77v-10q-3 -51 -40 -79.5t-89 -28.5q-58 0 -102.5 31.5t-60.5 86.5q-9 28 -9 57q0 8 1 15q10 135 128 197q89 46 192 48h6q79 0 154 -27q72 -26 117 -69q73 -69 76 -167v-7q0 -65 -36 -110q-36 -46 -93 -46q-8 0 -16 1q-91 9 -91 115q0 12 1 24 q-42 -26 -42 -86q0 -59 47 -94q42 -31 103 -31h110v-33h-128q-47 0 -63 -63q-31 -122 -175 -122q-67 0 -114 31q-56 36 -56 99q0 53 40 76q29 17 61 17q22 0 36.5 -5t26 -21.5t11.5 -35.5z"/>
<glyph glyph-name="uni0B94" horiz-adv-x="1377" unicode="ஔ" d="M143 111v-9q0 -26 11 -42q12 -18 31 -18h2q38 2 38 60q0 59 -29 63q-5 1 -10 1q-40 0 -43 -55zM168 -150q-1 -7 -1 -14q0 -38 30 -59q29 -21 72 -21h8q52 2 76 40q11 17 25 66q16 54 87 56q-24 8 -49 31q-45 42 -45 106q0 57 37 95t93 38q-14 -18 -14 -64q0 -75 46 -84 q5 -1 15 -1q42 0 64 31q19 27 19 70q0 84 -62 132q-89 69 -225 69h-11q-129 -2 -199 -51t-77 -136q-1 -6 -1 -13q0 -42 24 -72q27 -35 62 -42q-39 27 -39 84q0 9 1 19q4 45 37 70q28 21 65 21h6q50 -3 77 -38q24 -32 24 -75v-10q-3 -52 -40 -80t-89 -28q-58 0 -102 32 t-61 86q-9 28 -9 57q0 8 1 15q10 135 128 197q89 46 192 48h6q79 0 154 -27q72 -26 117 -69q73 -69 76 -167v-7q0 -65 -36 -110q-36 -46 -93 -46q-8 0 -16 1q-91 9 -91 115q0 12 1 24q-42 -26 -42 -86q0 -59 47 -94q42 -31 103 -31h110v-33h-128q-47 0 -63 -63 q-31 -122 -175 -122q-67 0 -114 31q-56 36 -56 99q0 10 2 21q4 24 24 42l24 -18q-12 -14 -15 -35zM843 99q0 -17 6 -33q7 -20 21 -20h2q28 3 28 49q0 45 -24 48h-4q-28 0 -29 -44zM1060 324h312v-34h-70v-290h-92v290h-64v-290h-94v144q0 58 -42 98t-99 40q-64 -1 -105 -37 t-41 -93v-8q2 -38 20 -68q20 -35 54 -44q-32 26 -32 68v9q3 37 25 59t59 22q35 0 59 -26t26 -62v-6q0 -45 -27 -71q-29 -28 -78 -28q-19 0 -40 6q-53 15 -80 63q-22 38 -22 86q0 8 1 16q5 74 59 118q51 40 124 40h4q62 -1 107 -34q32 -24 36 -41v73z"/>
<glyph glyph-name="uni0B95" horiz-adv-x="596" unicode="க" d="M251 189h-123q-80 0 -80 -58q0 -38 42 -62q34 -18 78 -18h13q70 4 70 84v54zM180 377v-157h70v157h-70zM142 409h351v-32h-132v-157h63q126 0 130 -105v-6q0 -53 -33 -83q-30 -26 -81 -26l-36 26q16 1 30 23t16 48v12q0 80 -63 80h-26v-82q0 -102 -164 -107h-8 q-69 0 -120.5 35t-55.5 93v9q0 43 29 64t100 22v186z"/>
<glyph glyph-name="uni0B99" horiz-adv-x="675" unicode="ங" d="M525 409h110v-409h-476v31h135q35 4 56 34t21 67v7q-1 39 -10 55q-11 21 -38 21h-3q-50 -1 -50 -55v-48h-111v264h-111v-376h-38v408h411v-32h-151v-149q20 37 82 37q12 0 24 -2q88 -16 88 -130q0 -31 -12 -62t-28 -38h101v377z"/>
<glyph glyph-name="uni0B9A" horiz-adv-x="551" unicode="ச" d="M251 189h-123q-80 0 -80 -58q0 -35 34.5 -57.5t79.5 -22.5q89 0 89 82v56zM180 377v-157h70v157h-70zM142 409h369v-32h-150v-157h150v-31h-150v-82q0 -102 -164 -107h-8q-69 0 -120.5 35t-55.5 93v9q0 43 29 64t100 21v187z"/>
<glyph glyph-name="uni0B9C" horiz-adv-x="751" unicode="ஜ" d="M145 224q0 -26 10 -39.5t22 -13.5q3 0 7 1q28 6 28 52q0 53 -30 54h-3q-34 0 -34 -54zM620 390q53 -25 74 -86q13 -36 13 -82q0 -14 -1 -28q-6 -70 -60.5 -111t-144.5 -41h-246q-64 0 -97 -36t-33 -84q0 -8 1 -17q7 -70 58 -82q15 -4 29 -4q49 0 118 73q51 54 89 76 q60 34 144 34h5q63 -1 100 -32q38 -32 38 -87v-11q-4 -56 -49 -86q-32 -22 -74 -27q-11 -1 -21 -1l-55 9q-52 18 -65 43l18 28q30 -34 67 -34q35 0 54.5 21.5t19.5 56.5q0 32 -21.5 55.5t-58.5 23.5q-32 0 -55 -8q-53 -19 -110 -81q-50 -54 -84 -78q-48 -33 -98 -33 q-24 0 -49 7q-106 30 -106 150q0 12 1 24q7 68 68 104q54 32 141 32h249q51 0 81 33q35 37 35 110q0 53 -17 95q-19 48 -49 54q-11 2 -21 2q-68 0 -68 -100v-131h-111v99q0 60 -34.5 94.5t-89.5 38.5h-13q-57 0 -98 -32.5t-41 -88.5q0 -46 24 -77q27 -33 72 -33h8 q-23 9 -35 33.5t-12 50.5v8q3 34 24 57t56 23q42 0 64.5 -27.5t22.5 -65.5q0 -52 -38 -80.5t-87 -28.5q-28 0 -53 10q-81 32 -81 126q0 10 1 20q6 81 83 118q48 24 109 24q11 0 23 -1q140 -9 177 -79q12 33 37 55q29 25 78 25q8 0 17 -1q45 -4 77 -19z"/>
<glyph glyph-name="uni0B9E" horiz-adv-x="969" unicode="ஞ" d="M289 124q0 -66 44 -66h3q41 2 41 62q-1 59 -38 63q-4 1 -8 1q-42 0 -42 -60zM763 183q-14 5 -30 5q-29 0 -46 -18v-170h-110v375h-160q-103 0 -158 -40q-70 -51 -70 -151q0 -56 28.5 -97t77.5 -56q-43 32 -43 89q0 8 1 17q4 47 33 74.5t73 27.5t75.5 -34t32.5 -78v-7 q0 -58 -35 -91t-97 -33q-27 0 -52 7q-61 18 -94.5 68t-33.5 116q0 99 65.5 160t184.5 61h458v-33h-176v-151q34 26 93 26h13q50 -2 89 -42q45 -47 45 -127v-7q-3 -169 -139 -260q-116 -78 -294 -80h-7q-182 0 -319 100q-158 114 -158 298q0 90 42.5 167t117.5 115l28 -25 q-62 -21 -106 -90.5t-48 -144.5q-1 -9 -1 -18q0 -77 39 -148q39 -72 110 -124q78 -58 212 -76q40 -6 77 -6q153 0 243 86q84 80 84 201q0 98 -45 114z"/>
<glyph glyph-name="uni0B9F" horiz-adv-x="900" unicode="ட" d="M121 408v-378h739v-30h-850v408h111z"/>
<glyph glyph-name="uni0BA3" horiz-adv-x="1161" unicode="ண" d="M118 112q1 -34 14 -49.5t28 -15.5h5q36 5 36 72t-42 68h-2q-23 0 -31 -17t-8 -45v-13zM700 308q-19 -24 -29 -43q-20 -41 -22 -88v-10q0 -41 14.5 -71t38.5 -30h5q21 2 33.5 29t12.5 65q0 35 -15 82q-17 54 -38 66zM403 301q-49 -49 -51 -124v-7q0 -47 12 -73 q15 -31 48 -31h6q43 4 43 82q0 20 -3 41q-9 57 -55 112zM381 325q-42 24 -48 26q-42 16 -112 17h-3q-84 0 -128 -52.5t-44 -133.5v-18q4 -79 58 -123q-23 33 -23 82q0 7 1 15q7 97 85 104q6 1 12 1q46 0 75 -34q27 -33 29 -81v-7q0 -61 -35 -94q-33 -30 -85 -30q-23 0 -46 7 q-50 15 -78.5 64t-28.5 112q0 106 60 167q57 57 152 63q25 2 41 2q11 0 18 -1q82 -7 149 -38q53 39 150 39q91 0 139 -36q39 32 130 32h272v-32h-103v-376h-111v376h-68q-58 0 -85 -19q40 -27 68 -78q31 -56 31 -117q0 -66 -31 -114q-34 -52 -91 -52h-2q-57 1 -88 54 q-26 44 -26 105v9q2 102 59 165q-29 20 -31 21q-30 15 -70 21q-15 2 -30 2q-50 0 -83 -21q103 -69 103 -185v-11q-3 -78 -37.5 -119.5t-92.5 -41.5q-60 0 -92 64q-23 46 -23 104q0 12 1 25q6 76 62 137z"/>
<glyph glyph-name="uni0BA4" horiz-adv-x="610" unicode="த" d="M251 189h-123q-80 0 -80 -58q0 -35 34.5 -57.5t79.5 -22.5q89 0 89 84v54zM180 377v-157h70v157h-70zM142 409h368v-32h-149v-157h71q46 0 82 -26q52 -38 54 -120v-5q0 -82 -64 -125q-54 -36 -134 -36h-191q-54 0 -71 -13q-12 -9 -12 -23q17 9 34 9q50 0 54 -49v-5 q0 -22 -16.5 -36.5t-42.5 -14.5q-16 0 -32 6q-40 16 -40 66v9q7 83 102 83h154q59 0 98 28q46 34 50 101v12q0 54 -25 83q-22 25 -54 25h-17v-82q0 -102 -164 -107h-8q-69 0 -120.5 35t-55.5 93v9q0 43 29 64t100 21v187z"/>
<glyph glyph-name="uni0BA8" horiz-adv-x="528" unicode="ந" d="M431 408v-31h-161v-156q18 29 75 29h7q50 -2 88 -40q46 -47 46 -129v-7q-2 -84 -62 -128q-52 -38 -128 -38h-155q-54 0 -71 -13q-12 -9 -12 -23q13 5 29 5q48 0 56 -45q1 -4 1 -9q0 -18 -15 -33t-42 -15q-16 0 -32 6q-41 15 -41 65q0 5 1 11q7 83 102 83h109 q140 0 151 126q1 11 1 22q0 47 -18 77q-17 28 -38 30h-10q-34 0 -43 -25v-170h-110v376h-93v-376h-40v408h405z"/>
<glyph glyph-name="uni0BA9" horiz-adv-x="851" unicode="ன" d="M118 112q3 -65 40 -65h5q38 4 38 74q0 66 -42 66q-1 0 -21 -0.5t-20 -65.5v-9zM414 302q-43 -47 -47 -125v-9q0 -41 15.5 -70t40.5 -29h6q16 2 31 30.5t15 65.5q0 33 -17 77q-20 49 -44 60zM846 408v-30h-102v-378h-111v378h-59q-63 0 -111 -25q44 -25 76 -73 q37 -58 37 -122q0 -63 -34 -110q-37 -52 -94 -52h-2q-57 1 -88 54q-25 43 -25 105v9q2 98 60 165q-27 14 -53 27q-38 14 -93 14q-13 0 -27 -1q-88 -5 -131 -55.5t-43 -131.5v-18q5 -84 47 -109q-12 28 -12 66q0 8 1 17q6 96 85 104q7 1 14 1q44 0 73 -34q27 -32 29 -81v-7 q0 -61 -35 -94q-33 -30 -85 -30q-23 0 -46 7q-50 15 -78.5 64t-28.5 112q0 106 60 167q56 57 152 63q23 1 43 1q64 0 109 -14q17 -5 60 -26q57 37 150 37h262z"/>
<glyph glyph-name="uni0BAA" horiz-adv-x="598" unicode="ப" d="M447 408h111v-408h-548v408h111v-376h326v376z"/>
<glyph glyph-name="uni0BAE" horiz-adv-x="694" unicode="ம" d="M412 31h175q19 1 28 55q6 37 6 75q0 80 -31 140q-35 68 -100 68q-16 0 -32 -5q-31 -9 -40 -38q-6 -17 -6 -60v-235zM359 394q31 16 92 16q48 0 75 -10q62 -23 94 -93q26 -58 31 -128q1 -12 1 -25q0 -34 -6 -76q-12 -78 -38 -78h-598v409h110v-378h182v245q0 88 57 118z "/>
<glyph glyph-name="uni0BAF" horiz-adv-x="634" unicode="ய" d="M483 408h111v-408h-371v44q-16 -25 -56 -39q-29 -9 -55 -9h-9q-52 3 -72.5 35t-20.5 109v268h111v-270q0 -91 39 -91q56 0 56 109v252h111v-376h156v376z"/>
<glyph glyph-name="uni0BB0" horiz-adv-x="377" unicode="ர" d="M372 408v-33h-81v-375l-264 -147l-13 33l167 121v368h-130v-375h-41v408h362z"/>
<glyph glyph-name="uni0BB1" horiz-adv-x="568" unicode="ற" d="M407 404q58 -24 91 -89q30 -58 30 -152q0 -24 -2 -46q-9 -96 -61.5 -152.5t-127.5 -56.5h-197q-54 0 -71 -13q-12 -9 -12 -23q16 6 31 6q46 0 52 -46v-6q0 -18 -16 -34t-42 -16q-14 0 -28 6q-40 17 -40 66v9q7 84 102 84h151q66 0 106.5 62.5t40.5 151.5q0 10 -1 21 q-5 98 -17 135q-18 54 -63 54h-2q-23 -1 -36 -21.5t-13 -48.5v-295h-111v282q0 46 -3 58q-8 31 -39 34h-5q-23 0 -39.5 -17t-16.5 -51v-306h-37v306q0 93 89 104q17 2 33 2q79 0 107 -53q16 42 90 53q7 1 14 1q21 0 43 -9z"/>
<glyph glyph-name="uni0BB2" horiz-adv-x="758" unicode="ல" d="M148 125q-1 -30 13 -51q14 -23 37 -23h2q40 2 40 71q0 65 -41 69h-6q-45 0 -45 -66zM676 172q2 14 2 26q0 30 -15 63t-48 57q-39 28 -76 40q-30 9 -30 40q0 17 13 30q12 12 34 12q12 0 26 -3q22 -6 46 -30q75 -75 87 -179q1 -11 1 -22q0 -26 -5 -53q-9 -42 -31 -81 q-41 -72 -131 -72h-2q-20 0 -36 1q-57 7 -88 40q-23 25 -30 70q-4 67 -4 104q-4 85 -39 119q-32 31 -108 34h-9q-79 0 -133 -51.5t-54 -124.5v-10q3 -54 31.5 -94.5t74.5 -54.5q-41 33 -41 94v11q3 47 32.5 74.5t73.5 27.5t75.5 -34t32.5 -78v-6q0 -61 -40 -95 q-36 -30 -93 -30q-26 0 -51 7q-66 19 -100 78q-27 50 -27 113v17q5 89 71 143.5t165 55.5h5q109 0 172 -43q68 -46 71 -136q3 -84 3 -115q5 -30 22 -46q21 -20 57 -20q47 0 76 56q16 30 20 65z"/>
<glyph glyph-name="uni0BB3" horiz-adv-x="829" unicode="ள" d="M147 125q0 -34 15 -54.5t33 -20.5q3 0 7 1q41 7 41 66v6q-2 64 -41 68h-5q-20 0 -35 -16.5t-15 -49.5zM824 408v-30h-110v-378h-111v378h-83v-378h-111v147q0 74 -50 135t-122 66q-10 1 -19 1q-72 0 -122 -44t-50 -118v-5q1 -56 30.5 -97t79.5 -57q-17 13 -31 38 q-15 28 -15 58q0 7 1 14q4 47 33 74.5t73 27.5t75.5 -34t32.5 -78v-6q0 -61 -40 -95q-36 -30 -93 -30q-26 0 -51 7q-66 19 -100 78q-27 50 -27 113v17q5 89 68.5 144t159.5 55h3q78 -1 132 -43q37 -29 42 -52v92h405z"/>
<glyph glyph-name="uni0BB4" horiz-adv-x="694" unicode="ழ" d="M412 31h175q19 1 28 55q6 37 6 75q0 80 -31 140q-35 68 -100 68q-16 0 -32 -5q-31 -9 -40 -38q-6 -17 -6 -60v-235zM543 392q47 -20 77 -85q26 -58 31 -128q1 -12 1 -25q0 -34 -6 -76q-12 -78 -38 -78h-198q-1 -24 16.5 -47.5t42.5 -23.5h73v-32h-123q-22 0 -35.5 -21 t-14.5 -48q-1 -53 -58 -82q-45 -24 -102 -25h-5q-63 0 -107 25q-52 30 -54 85v6q0 39 25 62q25 22 65 23h3q76 0 82 -51v-9q0 -22 -13.5 -36.5t-36.5 -14.5q-14 0 -26 6q-21 11 -21 38q0 22 21 34q-6 1 -12 1q-21 0 -38 -15t-17 -40q0 -34 29 -57t70 -23q80 0 84 70 q3 58 37 82q23 17 56 20q-28 9 -42 36q-7 14 -7 37h-292v409h110v-378h182v245q0 88 57 118q31 16 89 16q18 0 36 -2q33 -5 59 -16z"/>
<glyph glyph-name="uni0BB5" horiz-adv-x="751" unicode="வ" d="M147 125q0 -34 14.5 -54t33.5 -20q4 0 7 1q40 7 40 73q0 69 -46 69q-49 0 -49 -69zM600 408h111v-408h-359v33q26 9 49 63q19 46 19 90q0 11 -1 22q-8 72 -55.5 114.5t-118.5 42.5h-3q-86 -1 -141 -51.5t-55 -121.5v-10q3 -56 31.5 -97t78.5 -57q-45 38 -45 100v10 q3 47 32.5 74.5t73.5 27.5q45 0 76.5 -33t31.5 -82q0 -64 -41 -98q-36 -30 -92 -30q-26 0 -51 7q-66 19 -100 78q-27 50 -27 113v17q5 89 71 143.5t165 55.5h5q119 0 191 -46q85 -56 85 -173q0 -51 -17.5 -97t-39.5 -63h126v376z"/>
<glyph glyph-name="uni0BB6" horiz-adv-x="709" unicode="ஶ" d="M540 378v-266q0 -86 50 -86q47 0 47 88v264h-97zM429 125v253h-94v-276q0 -48 -44.5 -76.5t-116.5 -28.5q-164 0 -164 105v306h111v-305q0 -37 7 -52q11 -23 44 -23q52 0 52 84v296h445v-294q0 -60 -21 -88q-24 -32 -81 -32q-77 0 -106 27q-32 29 -32 104z"/>
<glyph glyph-name="uni0BB7" horiz-adv-x="984" unicode="ஷ" d="M147 125q0 -34 14.5 -54t33.5 -20q4 0 7 1q40 7 40 73q0 69 -46 69q-49 0 -49 -69zM780 30h70v157q-15 -11 -31 -17q-21 -8 -39 -12v-128zM669 190v116q0 43 -28 45h-5q-19 0 -32.5 -15.5t-13.5 -44.5q0 -8 1 -17q6 -35 29 -57.5t49 -26.5zM670 -248v248h-318v33 q26 9 49 63q19 46 19 90q0 11 -1 22q-8 72 -55.5 114.5t-118.5 42.5h-3q-86 -1 -141 -51.5t-55 -121.5v-10q3 -56 31.5 -97t78.5 -57q-45 38 -45 100v10q3 47 32.5 74.5t73.5 27.5q45 0 76.5 -33t31.5 -82q0 -64 -41 -98q-36 -30 -92 -30q-26 0 -51 7q-66 19 -100 78 q-27 50 -27 113v17q5 89 71 143.5t165 55.5h5q119 0 191 -46q85 -56 85 -173q0 -51 -17.5 -97t-39.5 -63h195v125q-45 6 -75 35q-34 31 -40 82q-1 11 -1 22q0 50 29 81t78 32h6q114 0 114 -115v-103q49 10 79.5 43t36.5 71l48 17v-322h-164v-248h-110z"/>
<glyph glyph-name="uni0BB8" horiz-adv-x="995" unicode="ஸ" d="M147 125q-1 -32 14 -52.5t32 -20.5h5q40 6 40 75q0 64 -45 64q-46 0 -46 -66zM386 0v198q0 169 -144 173h-6q-86 0 -137.5 -52.5t-51.5 -128.5v-8q5 -121 109 -154q-17 13 -31 38q-15 28 -15 58q0 7 1 14q4 47 33 74.5t73 27.5t75.5 -34t32.5 -78v-6q0 -61 -40 -95 q-36 -30 -93 -30q-26 0 -51 7q-66 19 -100 78q-27 50 -27 113v17q5 90 70 144.5t159 54.5h7q95 -2 163 -43q49 -30 54 -51q6 30 32 55q34 33 84 36h12q42 0 74 -18q68 -38 68 -160v-38q0 -46 2 -64q5 -35 20 -52q22 -25 56 -25q51 0 80 56q22 41 22 89q0 31 -18 69 q-11 23 -42 48q-39 31 -73.5 41.5t-34.5 42.5q0 28 24 38q11 5 25 5q11 0 23 -3q20 -5 46 -30q88 -85 88 -204q0 -70 -36 -131q-41 -71 -139 -74h-7q-72 0 -107 38q-22 24 -31 62q-8 74 -8 115q-1 36 -3 70t-11 48q-18 29 -48 29h-6q-62 -6 -62 -125v-235h-111z"/>
<glyph glyph-name="uni0BB9" horiz-adv-x="1163" unicode="ஹ" d="M147 125q0 -34 14.5 -54t33.5 -20q4 0 7 1q40 7 40 73q0 69 -46 69q-49 0 -49 -69zM352 0v33q26 9 49 63q19 46 19 90q0 11 -1 22q-8 72 -55.5 114.5t-118.5 42.5h-3q-88 -1 -142 -49t-54 -126v-8q2 -56 31 -97t79 -57q-45 38 -45 100v10q3 47 32.5 74.5t73.5 27.5 q45 0 76.5 -33t31.5 -82q0 -64 -41 -98q-36 -30 -92 -30q-26 0 -51 7q-66 19 -100 78q-27 50 -27 113v17q5 89 71 143.5t165 55.5h5q119 0 191 -46q85 -56 85 -173q0 -51 -17.5 -97t-39.5 -63h152v268q0 49 26 79q24 27 63 32q15 2 29 2q81 0 111 -53q8 17 30 33t53 19 q9 1 18 1q29 0 48 -8q55 -23 89 -89q30 -58 30 -152q0 -24 -2 -46q-9 -96 -61.5 -152.5t-127.5 -56.5h-787q-54 0 -71 -13q-12 -9 -12 -23q17 7 31 7q47 0 52 -47v-6q0 -18 -16 -34t-41 -16q-15 0 -29 6q-40 17 -40 66v9q7 84 102 84h741q66 0 106.5 62.5t40.5 151.5 q0 10 -1 21q-5 98 -17 135q-18 54 -63 54h-2q-23 -1 -36 -21.5t-13 -48.5v-296h-111v271q0 50 -3 64q-8 37 -39 40h-4q-23 0 -40 -21t-17 -56v-298h-311z"/>
<glyph glyph-name="uni0BBE" horiz-adv-x="440" unicode="ா" d="M400 408v-33h-110v-375h-111v375h-128v-375h-41v408h390z"/>
<glyph glyph-name="uni0BBF" horiz-adv-x="470" unicode="ி" d="M60 408q-22 12 -36 42.5t-14 64.5q0 58 36.5 100t93.5 53q31 6 59 6q110 0 173 -83q58 -75 58 -188v-403h-37v329q0 108 -55 172q-54 62 -144 62q-10 0 -21 -1q-43 -3 -71 -23q-34 -24 -34 -64q0 -48 40 -67h-48z"/>
<glyph glyph-name="uni0BC0" horiz-adv-x="348" unicode="ீ" d="M150 550q0 -22 16.5 -36.5t38.5 -14.5t38 14.5t16 36.5q0 21 -16.5 35.5t-37.5 14.5q-22 0 -38.5 -14.5t-16.5 -35.5zM96 408q-39 23 -60 55q-26 39 -26 83q0 61 49 99q45 35 108 35q59 0 97 -26q44 -30 44 -86t-39 -82q-26 -17 -58 -17q-8 0 -15 1q-61 7 -80 60 q-4 11 -4 24q0 27 19 49q-65 -11 -71 -72v-10q0 -37 27 -68q28 -31 72 -45h-63z"/>
<glyph glyph-name="uni0BC1" horiz-adv-x="763" unicode="ு" d="M551 420h92v-214h-92v214zM555 35v-36q29 13 62 13h13q85 -7 85 -67q0 -6 -1 -12q-3 -24 -28 -50q-85 -89 -267 -89q-47 0 -86 8q-137 28 -226 116q-97 96 -97 230q0 131 75 219q12 14 74 66l10 -31q-42 -20 -79 -77q-49 -76 -49 -174q0 -21 2 -44q6 -60 43 -114.5 t90 -89.5q96 -63 212 -67h15q61 0 114 14q81 22 100 72q3 8 3 16q0 10 -8.5 22.5t-30.5 12.5q-13 0 -26 -7v-44h-94v113h94z"/>
<glyph glyph-name="uni0BC2" horiz-adv-x="825" unicode="ூ" d="M502 546h283v-36h-84v-334h-108v334h-91v36zM83 367q6 -41 43 -47q5 -1 9 -1q15 0 29 12t14 34q0 19 -12 31t-28 12h-5q-34 -4 -50 -41zM62 391q20 33 48 43q12 4 34 4h9q25 -1 42 -24t17 -49q0 -42 -35 -65q-18 -12 -39 -12q-46 0 -70 42q-18 -40 -24 -108 q-1 -17 -1 -33q0 -102 53 -193q36 -60 86 -93q96 -63 212 -67h26q168 0 210 85q4 8 4 17q0 16 -14.5 25t-31.5 9q-15 0 -27 -6v-44h-92v113h92v-36q29 13 62 13h13q61 -5 78 -39q6 -13 6 -31v-9q-2 -22 -28 -50q-84 -89 -267 -89q-47 0 -86 8q-240 49 -305 254 q-18 57 -20 124v18q0 112 48 193z"/>
<glyph glyph-name="uni0BC6" horiz-adv-x="634" unicode="ெ" d="M280 173q0 -42 16 -71t35 -29q4 0 7 1q26 26 26 78v7q-3 87 -34 94q-4 1 -8 1q-17 0 -29.5 -20t-12.5 -61zM594 0h-31v284q0 126 -74 203q-71 73 -178 73h-3q-179 -1 -232 -181q-12 -40 -12 -89q0 -84 33 -152q37 -76 101 -99q33 -12 60 -12t49 12q-28 7 -46.5 42 t-20.5 82q-1 68 31 112q29 40 71 42h7q51 0 81 -45q29 -43 29 -107q0 -22 -4 -43q-24 -130 -178 -130q-34 0 -69 8q-85 18 -139.5 115t-54.5 209v16q5 160 87.5 254.5t211.5 94.5h11q122 -3 200 -116q70 -101 70 -223v-350z"/>
<glyph glyph-name="uni0BC7" horiz-adv-x="554" unicode="ே" d="M345 170q0 -58 47 -58h3q39 1 39 56q0 53 -43 53q-19 0 -32.5 -15.5t-13.5 -35.5zM345 520q0 -20 13.5 -35.5t32.5 -15.5q43 0 43 53q0 55 -39 56h-3q-47 0 -47 -58zM297 690q92 0 149 -43q37 -28 53 -87q5 -16 5 -31q0 -35 -25 -65t-72 -33h-5q-17 0 -35 6 q-57 19 -57 84v11q3 38 28 59t55 21q9 0 18 -2q-25 40 -87 40q-13 0 -28 -2q-63 -7 -108 -58q-30 -34 -50 -97q-22 -70 -22 -148t22 -148q21 -63 51 -95q51 -55 107 -61q14 -1 26 -1q66 0 89 40q-7 -2 -17 -2q-41 0 -65 31q-17 22 -19 49v11q0 65 57 84q18 6 35 6h5 q53 -3 80 -45q16 -24 16 -54q0 -14 -4 -30q-13 -57 -53 -87q-57 -43 -149 -43q-138 0 -216 107q-71 96 -71 238t71 238q78 107 216 107z"/>
<glyph glyph-name="uni0BC8" horiz-adv-x="852" unicode="ை" d="M118 112q3 -65 40 -65h5q38 4 38 78q0 26 -11 44t-30 18h-2q-40 -1 -40 -63v-12zM418 308q-47 -52 -51 -131v-9q0 -41 15.5 -70t40.5 -29h6q18 3 32 34t14 64q0 9 -1 18q-4 40 -22 78t-34 45zM730 361q76 -61 76 -176v-17q-3 -72 -44 -121q-43 -51 -108 -51h-10l-22 25 q73 9 75 156v6q0 75 -26 116q-33 52 -74 65q-28 9 -59 9q-39 0 -69 -16q42 -24 73 -75q34 -59 34 -124q0 -63 -34 -110q-37 -52 -94 -52h-2q-57 1 -88 54q-25 43 -25 105v9q2 98 64 170q-24 12 -49 25q-32 11 -83 11q-15 0 -31 -1q-89 -5 -138.5 -56.5t-49.5 -132.5v-16 q5 -84 47 -109q-12 28 -12 66q0 8 1 17q6 96 85 104q7 1 14 1q44 0 73 -34q27 -32 29 -81v-7q0 -61 -35 -94q-33 -30 -85 -30q-23 0 -46 7q-50 15 -78.5 64t-28.5 112q0 105 67 167q61 57 159 63q25 2 47 2q61 0 102 -13q15 -4 55 -24q53 34 137 34q21 0 45 -2 q57 -5 108 -46z"/>
<glyph glyph-name="uni0BCA" horiz-adv-x="1079" unicode="ொ" d="M1039 408v-33h-110v-375h-111v375h-128v-375h-41v408h390zM279 173q0 -32 13 -64q15 -36 37 -36q4 0 8 1q26 26 26 78v7q-3 87 -34 94q-4 1 -8 1q-21 0 -33 -27q-9 -23 -9 -54zM593 0h-31v284q0 119 -67 196q-70 80 -185 80h-3q-179 -1 -232 -181q-12 -41 -12 -89 q0 -81 31 -147q36 -80 103 -104q33 -12 60 -12t49 12q-32 8 -51 51q-16 36 -16 77q0 52 23 95q28 52 79 55h6q53 0 84 -48q27 -43 27 -104q0 -21 -4 -43q-24 -130 -178 -130q-32 0 -69 8q-96 21 -150 135q-44 91 -44 192v13q5 151 80 246q81 103 220 103h10q122 -3 200 -116 q70 -101 70 -223v-350z"/>
<glyph glyph-name="uni0BCB" horiz-adv-x="988" unicode="ோ" d="M948 408v-33h-110v-375h-111v375h-128v-375h-41v408h390zM345 170q0 -58 47 -58h3q39 1 39 56q0 53 -43 53q-19 0 -32.5 -15.5t-13.5 -35.5zM345 520q0 -20 13.5 -35.5t32.5 -15.5q43 0 43 53q0 55 -39 56h-3q-47 0 -47 -58zM297 690q92 0 149 -43q37 -28 53 -87 q5 -16 5 -31q0 -35 -25 -65t-72 -33h-5q-17 0 -35 6q-57 19 -57 84v11q3 38 28 59t55 21q9 0 18 -2q-25 40 -87 40q-13 0 -28 -2q-63 -7 -108 -58q-30 -34 -50 -97q-22 -70 -22 -148t22 -148q21 -63 51 -95q51 -55 107 -61q14 -1 26 -1q66 0 89 40q-7 -2 -17 -2 q-41 0 -65 31q-17 22 -19 49v11q0 65 57 84q18 6 35 6h5q53 -3 80 -45q16 -24 16 -54q0 -14 -4 -30q-13 -57 -53 -87q-57 -43 -149 -43q-138 0 -216 107q-71 96 -71 238t71 238q78 107 216 107z"/>
<glyph glyph-name="uni0BCC" horiz-adv-x="1498" unicode="ௌ" d="M781 124q1 -34 17 -56q14 -19 31 -19q3 0 7 1q41 7 41 66v6q-2 64 -41 68h-5q-20 0 -34 -16q-16 -18 -16 -50zM1053 407h405v-30h-110v-378h-111v378h-83v-378h-111v147q0 74 -50 135t-122 66q-10 1 -19 1q-72 0 -120 -42q-52 -46 -52 -120v-5q0 -56 30 -97t80 -57 q-17 13 -31 38q-15 28 -15 58q0 7 1 14q4 47 33 75t73 27q43 0 75 -34t33 -78v-6q0 -61 -40 -95q-36 -30 -93 -30q-26 0 -51 7q-66 19 -100 78q-27 50 -27 113v17q5 89 69 145q63 55 159 54h3q78 -1 132 -43q37 -29 42 -52v92zM280 173q0 -41 18 -73q15 -26 33 -27q4 0 7 1 q26 26 26 78v7q-3 87 -34 94q-4 1 -8 1q-17 0 -28 -18q-14 -22 -14 -63zM594 0h-31v284q0 126 -74 203q-71 73 -178 73h-3q-179 -1 -232 -181q-12 -40 -12 -89q0 -84 33 -152q37 -76 101 -99q33 -12 60 -12t49 12q-29 7 -47 42t-20 82q-1 68 31 112q29 40 71 42h7 q51 0 81 -45q29 -43 29 -107q0 -22 -4 -43q-24 -130 -178 -130q-34 0 -69 8q-86 18 -142 118q-53 94 -52 206v16q5 160 89 256q81 93 210 93h11q122 -3 200 -116q70 -101 70 -223v-350z"/>
<glyph glyph-name="t.pulli" horiz-adv-x="189" unicode="்" d="M10 564q0 29 20 49.5t49 20.5q26 0 48 -20.5t22 -49.5q0 -30 -18.5 -48.5t-51.5 -21.5q-30 0 -49 19q-15 18 -20 51z"/>
<glyph glyph-name="uni0BD0" horiz-adv-x="724" unicode="ௐ" d="M256 -18q0 25 27 25q28 0 28 -25q0 -27 -28 -27q-27 0 -27 27zM313 -182h50v58q0 43 -25 43h-1q-24 -1 -24 -48v-53zM139 136q0 -26 10 -46q12 -24 33 -24h3q36 3 36 72q0 59 -40 59q-42 0 -42 -61zM137 -67q-29 -4 -29 -60q0 -134 185 -134h14q56 1 93 30t44 71 q10 60 50 83q-33 3 -73 39q-48 43 -53 97q-1 10 -1 20q0 63 46 102q35 30 84 30q-15 -18 -15 -65q0 -75 47 -83q6 -1 13 -1q58 0 58 90q0 11 -1 24q-7 91 -95 139q-73 39 -173 39q-106 0 -173 -34q-88 -44 -91 -140v-7q0 -91 71 -123q-39 29 -39 89q0 7 1 14q3 44 31 72.5 t69 28.5h3q53 -1 84 -46q23 -33 23 -71q0 -61 -44 -95q-37 -29 -88 -29q-37 0 -73 16q-64 28 -86 102q-9 31 -9 64q0 29 7 60q24 107 121 165q82 50 187 50h16q163 -6 260 -96q77 -72 81 -189v-7q0 -65 -36 -110q-36 -46 -93 -46q-8 0 -16 1q-91 9 -91 115q0 12 1 24 q-42 -26 -42 -86q0 -59 47 -94q42 -31 103 -31h110v-33h-77q-31 0 -45 -32q-7 -22 -21 -65q-22 -62 -80 -91q-30 -15 -105 -23q-20 -2 -38 -2q-98 0 -156 37q-68 44 -68 134q0 79 64 88q7 1 14 1q26 0 46.5 -13.5t20.5 -48.5v-84h34v66q0 60 72 60q22 0 42 -11 q24 -13 24 -34v-108h-224v96q0 25 -3 33q-5 13 -21 13q-3 0 -7 -1z"/>
<glyph glyph-name="uni0BD7" horiz-adv-x="829" unicode="ௗ" d="M147 125q0 -34 15 -54.5t33 -20.5q3 0 7 1q41 7 41 66v6q-2 64 -41 68h-5q-20 0 -35 -16.5t-15 -49.5zM824 408v-30h-110v-378h-111v378h-83v-378h-111v147q0 74 -50 135t-122 66q-10 1 -19 1q-72 0 -122 -44t-50 -118v-5q1 -56 30.5 -97t79.5 -57q-17 13 -31 38 q-15 28 -15 58q0 7 1 14q4 47 33 74.5t73 27.5t75.5 -34t32.5 -78v-6q0 -61 -40 -95q-36 -30 -93 -30q-26 0 -51 7q-66 19 -100 78q-27 50 -27 113v17q5 89 68.5 144t159.5 55h3q78 -1 132 -43q37 -29 42 -52v92h405z"/>
<glyph glyph-name="uni0BE6" horiz-adv-x="376" unicode="௦" d="M45 205q0 -65 29 -102q23 -30 53 -30h5q32 2 53 32q24 35 24 100q0 127 -71 141q-5 1 -11 1q-29 0 -53 -33q-29 -42 -29 -109zM10 205q0 90 47.5 153.5t115.5 63.5t115.5 -63.5t47.5 -153.5t-47.5 -153.5t-115.5 -63.5t-115.5 63.5t-47.5 153.5z"/>
<glyph glyph-name="uni0BE7" horiz-adv-x="596" unicode="௧" d="M251 189h-123q-80 0 -80 -58q0 -38 42 -62q34 -18 78 -18h13q70 4 70 84v54zM180 377v-157h70v157h-70zM142 409h351v-32h-132v-157h63q126 0 130 -105v-6q0 -53 -33 -83q-30 -26 -81 -26l-36 26q16 1 30 23t16 48v12q0 80 -63 80h-26v-82q0 -102 -164 -107h-8 q-69 0 -120.5 35t-55.5 93v9q0 43 29 64t100 22v186z"/>
<glyph glyph-name="uni0BE8" horiz-adv-x="654" unicode="௨" d="M17 238v7q0 75 58 120q56 43 139 44h5q84 0 139 -35q67 -41 71 -121v-9q0 -62 -52 -103q-52 -43 -130 -43h-126q-26 0 -40.5 -11t-10.5 -26q6 -23 57 -28q12 -1 73 -1h414v-32h-486q-117 0 -117 66q0 64 107 64h74q57 0 91.5 30.5t34.5 86.5q0 61 -36.5 90.5t-91.5 29.5 h-7q-42 -1 -81 -28q-54 -37 -53 -101h-32z"/>
<glyph glyph-name="uni0BE9" horiz-adv-x="598" unicode="௩" d="M558 35v-35h-403v35h133q32 0 54 34q20 31 24 77q1 14 1 27q0 65 -35 72q-7 1 -13 1q-30 0 -41 -32v-110h-111v269h-117v-373h-40v408h305v-35h-37v-107q22 27 46 27.5t26 0.5q45 0 80.5 -34t37.5 -88v-10q0 -47 -16 -83q-15 -32 -35 -44h141z"/>
<glyph glyph-name="uni0BEA" horiz-adv-x="635" unicode="௪" d="M250 218h-114q-37 0 -64 -22.5t-27 -60.5q0 -10 2 -21q7 -36 48 -56q30 -14 61 -14q9 0 17 1q77 9 77 71v102zM179 377v-128h70v128h-70zM141 408h325v-31h-106v-128h136v159h99v-190h-235v-111q0 -100 -164 -107h-14q-65 0 -111 26q-61 35 -61 106q0 41 24 73 q34 46 107 46v157z"/>
<glyph glyph-name="uni0BEB" horiz-adv-x="764" unicode="௫" d="M632 60q-7 -119 -87 -185q-76 -63 -197 -63q-29 0 -64 5q-131 19 -207 128q-67 97 -67 245q0 176 94 291q91 112 255 116h10q145 0 239 -112q107 -128 107 -369q0 -21 -1 -42h-33q2 25 2 48q0 195 -101 290q-89 83 -230 86h-8q-119 0 -211 -84q-40 -37 -64.5 -99.5 t-24.5 -128.5q0 -132 61 -217q71 -99 195 -107q15 -1 30 -1q94 0 140 44t52 138q1 15 1 32q0 43 -11 82q-15 54 -45 63q-10 3 -19 3q-20 0 -33 -14v-209h-110v376h-93v-376h-40v408h354v-31h-110v-129q19 19 64 19q76 0 119 -68q34 -53 34 -121q0 -9 -1 -18z"/>
<glyph glyph-name="uni0BEC" horiz-adv-x="689" unicode="௬" d="M250 214h-114q-37 0 -64 -22.5t-27 -60.5q0 -10 2 -21q7 -36 48 -56q30 -14 61 -14q9 0 17 1q77 9 77 71v102zM179 373v-128h70v128h-70zM649 213h-39v-213h-84v214h-37v-214h-86v214h-43v-111q0 -100 -164 -107h-14q-65 0 -111 26q-61 35 -61 106q0 41 24 73 q34 46 107 46v157h325v-31h-106v-128h289v-32z"/>
<glyph glyph-name="uni0BED" horiz-adv-x="507" unicode="௭" d="M50 139q0 -25 14 -48q17 -27 44 -30h8q40 0 48 45q2 10 2 20q0 25 -13.5 45t-37.5 20q-22 0 -41 -16.5t-24 -35.5zM422 0h-111v375h-39q-103 0 -158 -40q-70 -52 -70 -146v-8q23 52 96 52q15 0 30 -3q84 -19 84 -115q0 -16 -3 -31q-9 -46 -46 -69q-30 -17 -67 -17 q-14 0 -24 2q-46 11 -75 64.5t-29 120.5q0 101 65.5 162t184.5 61h242v-33h-80v-375z"/>
<glyph glyph-name="uni0BEE" horiz-adv-x="971" unicode="௮" d="M600 49h-500q-27 0 -32 -1q-17 -4 -17 -21q0 -28 70 -67t140 -47q29 -3 59 -3q41 0 82 6q58 9 107 40q25 16 52 43q31 31 39 50zM740 252q10 -35 10 -76q0 -54 -14 -96h84v328h111v-595h-111v236h-96q-31 -61 -85 -103q-98 -77 -284 -77q-52 0 -100 7q-78 12 -158 60 q-37 23 -60 49q-22 26 -22 49q0 5 1 10q8 36 89 36h511q22 43 22 107q0 10 -1 21q-7 137 -111 145q-8 1 -16 1q-53 0 -90 -32.5t-37 -83.5q0 -55 45 -100l-19 -20q-62 48 -62 131v5q1 67 55.5 110.5t120.5 43.5h14q159 -11 203 -156z"/>
<glyph glyph-name="uni0BEF" horiz-adv-x="803" unicode="௯" d="M250 226h-114q-36 0 -63.5 -26.5t-27.5 -66.5q0 -10 2 -21q7 -36 48 -56q30 -14 61 -14q9 0 17 1q77 9 77 71v112zM179 377v-119h70v119h-70zM443 130q0 -34 12.5 -57.5t30.5 -23.5q39 0 39 75q0 27 -11 54.5t-28 36.5q-43 -18 -43 -85zM483 258q49 20 100 20q16 0 30 -2 q48 -8 74 -22q33 -18 56 -54q20 -32 20 -76q0 -35 -10 -59q-23 -53 -53 -65h-65q33 36 33 114q0 66 -28 95t-69 29h-11q55 -27 57 -114v-6q0 -121 -110 -121q-47 0 -76 42q-28 39 -28 92q0 56 35 96h-78v-122q0 -101 -164 -108h-13q-66 0 -113 27q-60 36 -60 107q0 50 24 82 q35 47 107 47v148h401v-31h-182v-119h123z"/>
<glyph glyph-name="uni0BF0" horiz-adv-x="581" unicode="௰" d="M193 600q97 -21 185 -78q139 -92 158 -232q5 -40 5 -68q0 -65 -32.5 -129t-92.5 -89q-21 -9 -56 -9q-50 0 -72 14q-29 19 -37 40q-36 -53 -128 -53h-13q-39 1 -68 28q-32 29 -32 77v307h37v-307q0 -33 21 -50.5t46 -17.5h5q51 4 51 92v283h111v-296q0 -73 50 -76h5 q51 0 74 56q19 43 19 111q0 12 -1 26q-7 163 -92 252q-50 52 -151 93z"/>
<glyph glyph-name="uni0BF1" horiz-adv-x="531" unicode="௱" d="M382 374h-79v-374h-111v224q0 120 -50 132q-4 1 -7 1q-11 0 -25.5 -7.5t-20.5 -22.5q-7 -18 -7 -59v-268h-72v266q0 75 26 107q29 37 78 39h6q55 0 79 -52v48h327v-35h-33v-373h-111v374z"/>
<glyph glyph-name="uni0BF2" horiz-adv-x="689" unicode="௲" d="M447 129h-26q-35 0 -35 -58q0 -25 11.5 -36t24.5 -11q3 0 6 1q19 4 19 39v65zM225 233h-83q-43 0 -70 -24t-27 -65q0 -11 2 -23q13 -76 99 -76h9q70 3 70 71v117zM165 377v-113h59v113h-59zM585 233h-69v-74h47q36 0 60 -32q23 -31 23 -79q0 -7 -1 -15q-4 -60 -59 -94 q-45 -27 -99 -27h-318q-39 0 -44 -8h2q26 0 26 -27q0 -25 -29 -25q-12 0 -22 7q-14 10 -14 33q0 16 9 27q21 23 54 23h322q41 0 67 26.5t31 71.5q1 10 1 19q0 29 -10 48q-12 22 -28 22h-18v-73q0 -78 -76 -78q-40 0 -63 27q-21 24 -23 64v8q0 29 12 52q16 30 48 30h33v74 h-112v-126q0 -52 -28 -77q-35 -32 -123 -35h-11q-136 0 -161 123q-2 9 -2 21q0 54 28 84q40 43 89 43v142h396v-31h-188v-113h250v-31z"/>
<glyph glyph-name="uni0BF3" horiz-adv-x="724" unicode="௳" d="M147 125q0 -34 14.5 -54t33.5 -20q4 0 7 1q40 7 40 73q0 69 -46 69q-49 0 -49 -69zM684 0h-332v33q26 9 49 63q19 46 19 90q0 11 -1 22q-8 72 -55.5 114.5t-118.5 42.5h-3q-86 -1 -141 -51.5t-55 -121.5v-10q3 -56 31.5 -97t78.5 -57q-45 38 -45 100v10q3 47 32.5 74.5 t73.5 27.5q45 0 76.5 -33t31.5 -82q0 -64 -41 -98q-36 -30 -92 -30q-26 0 -51 7q-66 19 -100 78q-27 50 -27 113v17q5 89 71 143.5t165 55.5h5q119 0 191 -46q85 -56 85 -173q0 -51 -17.5 -97t-39.5 -63h210v-32z"/>
<glyph glyph-name="uni0BF4" horiz-adv-x="823" unicode="௴" d="M412 31h175q19 1 28 55q6 37 6 75q0 80 -31 140q-35 68 -100 68q-16 0 -32 -5q-31 -9 -40 -38q-6 -17 -6 -60v-235zM541 496q1 -19 14.5 -36t28.5 -19t26 9.5t11 27.5q0 15 -11 25.5t-26 10.5q-13 0 -23 -6zM505 430q1 -7 9 -26q70 -19 106 -97q26 -58 31 -128 q1 -12 1 -25q0 -34 -6 -76q-12 -78 -38 -78h-598v409h110v-378h182v245q0 88 57 118q32 16 99 16h16q-5 15 -5 28q0 45 34 79q-1 7 -1 14q0 28 20.5 58.5t62.5 40.5q16 4 33 4q81 0 109 -74q10 -25 10 -50q0 -32 -17 -68h63v-34h-107l1 32q20 17 20 59q0 16 -4 33 q-8 32 -30 48t-47 16h-9q-28 -3 -48.5 -20.5t-21.5 -41.5q18 12 45 12q33 0 51 -20q21 -23 21 -52q0 -27 -18.5 -46.5t-47.5 -19.5q-23 0 -45 17t-30 43q-8 -10 -8 -30v-8z"/>
<glyph glyph-name="uni0BF5" horiz-adv-x="1354" unicode="௵" d="M248 125q0 -29 12 -51q14 -23 35 -23q4 0 8 1q40 7 40 73q0 69 -46 69q-49 0 -49 -69zM777 376v-376h-324v33q34 12 54 77q14 44 14 79q0 10 -1 19q-8 73 -55.5 115t-118.5 42h-3q-83 -1 -140 -50q-56 -49 -56 -123v-10q6 -121 110 -154q-45 38 -45 100v10q3 46 32 74 t74 28q46 0 77 -33.5t31 -81.5q0 -59 -36 -93.5t-97 -34.5q-103 0 -151 85q-27 49 -27 113v17q5 93 75 147q66 51 161 52h5q120 0 190 -46q86 -55 86 -173q0 -42 -14 -86q-16 -53 -43 -74h162v376h286v-32h-42v-204q10 14 38 22q20 7 39 7h5q57 -2 94.5 -42.5t39.5 -98.5 v-11q0 -150 -177 -231q-173 -79 -416 -79q-20 0 -40 1q-248 7 -384 118q-123 100 -155 216q-15 54 -15 101q0 239 182 358q147 97 379 97h27q141 -3 232 -30q113 -33 204 -114q54 -47 84 -106q12 -23 41 -84q21 -35 56 -42q4 -1 9 -1q23 0 37 28q12 25 12 57q0 14 -3 34 q-19 126 -120 126q-20 0 -40 -6v36q18 7 44 7q70 0 113 -49q38 -44 45 -118q2 -20 2 -32q0 -49 -21 -83q-24 -41 -70 -41q-45 0 -81 48q-14 18 -58 101q-36 67 -67 93q-92 77 -194 109q-91 29 -225 31h-21q-286 0 -415 -132q-114 -117 -114 -280q0 -112 55 -190 q67 -95 165 -147q106 -56 306 -58h7q143 0 279 38q97 27 151 79q60 57 70 134q1 9 1 19q0 76 -41 87q-10 3 -19 3q-32 0 -42 -24v-123h-109v376h-94z"/>
<glyph glyph-name="uni0BF6" horiz-adv-x="541" unicode="௶" d="M218 -58h-104q-54 0 -54 -42v-6q2 -25 28 -40q23 -13 50 -13q53 0 71 34q9 18 9 53v14zM390 408h111v-464h-174q0 -135 -179 -138h-5q-40 0 -72 16q-40 20 -48 58q-3 14 -3 24q0 72 90 72h107v68q-32 -48 -90 -48h-9q-108 6 -108 144v268h66v-270q0 -39 23 -64 q20 -21 44 -21q29 0 51 27.5t22 75.5v252h111v-432h63v432z"/>
<glyph glyph-name="uni0BF7" horiz-adv-x="950" unicode="௷" d="M483 131v-7q0 -23 11 -51q15 -36 38 -36q3 0 7 1q24 5 24 35q0 10 -4 20q-15 39 -65 39q-6 0 -11 -1zM50 139q0 -25 14 -48q17 -27 44 -30h8q40 0 48 45q2 10 2 20q0 25 -13.5 45t-37.5 20q-22 0 -41 -16.5t-24 -35.5zM422 112v-112h-111v375h-39q-103 0 -158 -40 q-70 -52 -70 -146v-8q23 52 96 52q15 0 30 -3q84 -19 84 -115q0 -16 -3 -31q-9 -46 -46 -69q-30 -17 -67 -17q-14 0 -24 2q-46 11 -75 64.5t-29 120.5q0 101 65.5 162t184.5 61h242v-33h-80v-231q5 2 33 9q1 8 7 27q38 99 142 100h4q72 0 118 -36q53 -40 53 -112 q0 -34 -12 -64.5t-28 -42.5h88v254h83v-279h-251v22q17 6 29 39.5t12 63.5q0 9 -1 17q-10 101 -102 104h-3q-44 0 -75 -29q-27 -25 -34 -58q17 6 39 6q41 0 68 -16q43 -25 43 -70q0 -7 -1 -15q-10 -69 -85 -69q-16 0 -32 5q-30 9 -48 46q-16 34 -17 77q-13 -4 -30 -11z"/>
<glyph glyph-name="uni0BF8" horiz-adv-x="1260" unicode="௸" d="M1149 78q58 58 58 145v9q-4 105 -61 105q-5 0 -10 -1q-55 -9 -55 -108q0 -111 68 -150zM663 374q-110 -13 -147 -115q-11 -29 -11 -71q0 -59 21 -99q26 -49 75 -52h5q41 0 67 43q22 38 26 94q1 18 1 35q0 96 -37 165zM222 173q0 -39 27 -72.5t52 -33.5h1q34 36 34 97v10 q-3 79 -54 80h-1q-59 0 -59 -81zM468 222q9 65 51 117q49 61 125 73q-78 115 -291 120h-9q-73 0 -142 -30q-91 -39 -124 -116q-26 -60 -26 -127q0 -73 31 -131q33 -61 91 -86q28 -12 60 -12q24 0 40 7q-33 8 -60 44t-31 82q-1 9 -1 17q0 54 31 95t85 42h3q64 0 101 -47 q34 -42 34 -105q0 -22 -5 -43q-29 -130 -173 -130q-33 0 -68 8q-93 22 -141 114q-39 77 -39 183q0 129 60 218q49 73 126.5 109.5t166.5 36.5h19q134 -5 234 -105q74 -74 90 -140h13q93 0 141 -42q40 -34 56 -67q15 -29 23 -84q2 -15 2 -30q0 -50 -20 -99q-19 -44 -42 -62 h209q-35 17 -63 55q-47 60 -47 147q0 89 49 138q40 40 91 40q67 0 104 -64q29 -50 29 -113q0 -10 -1 -19q-6 -96 -70 -160q15 -15 53 -25v-31h-117l-166 -144l-24 29l132 115h-302v33q26 9 49 60.5t23 98.5q0 8 -1 15q-11 144 -102 163q13 -36 19 -99q3 -27 3 -52 q0 -50 -11 -93q-31 -129 -126 -129q-14 0 -28 3q-57 11 -88 66q-28 50 -28 118q0 19 2 38z"/>
<glyph glyph-name="uni0BF9" horiz-adv-x="678" unicode="௹" d="M214 520q1 -19 14.5 -36t28.5 -19t26 9.5t11 27.5q0 15 -11 25.5t-26 10.5q-13 0 -23 -6zM301 -141q15 -1 30 -1q106 0 157 67q37 49 37 120q0 10 -1 21q-3 38 -19.5 62t-35.5 25h-5q-35 0 -48 -28v-125h-110v376h-93v-376h-40v408h354v-31h-110v-201q23 29 75 29h7 q48 -2 85 -34q46 -40 49 -111v-13q0 -109 -83 -173q-79 -61 -203 -61q-31 0 -62 4q-129 18 -204 128q-68 99 -68 234v11q2 87 20 148q20 66 68 129q30 40 75 74q-1 7 -1 14q0 28 20.5 58.5t62.5 40.5q16 4 33 4q81 0 109 -74q10 -25 10 -50q0 -32 -17 -68h63v-34h-107l1 32 q20 17 20 59q0 16 -4 33q-8 32 -30 48t-47 16h-9q-28 -2 -48.5 -20t-21.5 -42q18 12 45 12q33 0 51 -20q21 -23 21 -52q0 -27 -18.5 -46.5t-47.5 -19.5q-24 0 -46.5 19t-29.5 51q-27 -19 -56 -57q-82 -106 -82 -259q0 -127 64 -217q70 -100 190 -110z"/>
<glyph glyph-name="uni0BFA" horiz-adv-x="612" unicode="௺" d="M330 496q1 -19 14.5 -36t28.5 -19t26 9.5t11 27.5q0 15 -11 25.5t-26 10.5q-13 0 -23 -6zM306 377h-36v-156q18 29 75 29h7q50 -2 88 -40q46 -47 46 -129v-7q-2 -84 -62 -128q-52 -38 -128 -38h-155q-54 0 -71 -13q-12 -9 -12 -23q13 5 29 5q48 0 56 -45q1 -4 1 -9 q0 -18 -15 -33t-42 -15q-16 0 -32 6q-41 15 -41 65q0 5 1 11q7 83 102 83h109q140 0 151 126q1 11 1 22q0 47 -18 77q-17 28 -38 30h-10q-34 0 -43 -25v-170h-110v376h-93v-376h-40v408h237q-5 15 -5 29q0 45 34 80q-1 7 -1 14q0 28 20.5 58.5t62.5 40.5q16 4 33 4 q81 0 109 -74q10 -25 10 -50q0 -32 -17 -68h63v-34h-107l1 32q20 17 20 59q0 16 -4 33q-8 32 -30 48t-47 16h-9q-28 -2 -48.5 -20t-21.5 -42q18 12 45 12q33 0 51 -20q21 -23 21 -52q0 -27 -18.5 -46.5t-47.5 -19.5q-23 0 -45 17t-30 43q-8 -10 -8 -30v-8q1 -8 7 -22h5v-31z "/>
<glyph glyph-name="uni200B" horiz-adv-x="12" unicode="​"/>
<glyph glyph-name="uni200C" horiz-adv-x="136" unicode="‌" d="M86 -134h-36v785h36v-785z"/>
<glyph glyph-name="uni200D" horiz-adv-x="313" unicode="‍" d="M263 491l-24 -23l-65 66v-668h-36v668l-65 -66l-23 23l83 83l-83 82l23 24l83 -84l83 84l24 -24l-84 -82z"/>
<glyph glyph-name="endash" horiz-adv-x="374" unicode="–" d="M324 201h-274v65h274v-65z"/>
<glyph glyph-name="emdash" horiz-adv-x="638" unicode="—" d="M588 201h-538v65h538v-65z"/>
<glyph glyph-name="quoteleft" horiz-adv-x="200" unicode="‘" d="M150 508l-17 -16q-83 99 -83 176q0 25 19 64l65 -25q-24 -42 -24 -73q0 -19 2 -29l9 -39q12 -51 29 -58z"/>
<glyph glyph-name="quoteright" horiz-adv-x="200" unicode="’" d="M150 668q0 -71 -83 -176l-17 16q12 5 29 57l6 41l4 28q0 25 -23 73l65 25q19 -43 19 -64z"/>
<glyph glyph-name="quotesinglbase" horiz-adv-x="199" unicode="‚" d="M149 0q-1 -31 -7.5 -56.5t-18.5 -43.5t-30.5 -27.5t-42.5 -9.5v45q48 0 49 92h-48l-1 97h98z"/>
<glyph glyph-name="quotedblleft" horiz-adv-x="312" unicode="“" d="M149 508l-17 -16q-82 98 -82 176q0 19 18 64l65 -25q-24 -42 -24 -73q0 -19 2 -29l9 -39q12 -51 29 -58zM262 508l-17 -16q-44 51 -52 65q-31 50 -31 97q0 24 18 59l66 -22q-24 -36 -24 -66q0 -17 2 -30t9 -35q12 -35 29 -52z"/>
<glyph glyph-name="quotedblright" horiz-adv-x="312" unicode="”" d="M149 654q0 -48 -31 -97l-51 -65l-17 16q39 40 39 117q0 27 -23 66l65 22q18 -27 18 -59zM262 668q0 -78 -83 -176l-17 16q12 5 29 57l7 41l4 28q0 25 -24 73l66 25q18 -39 18 -64z"/>
<glyph glyph-name="quotedblbase" horiz-adv-x="344" unicode="„" d="M148 0q-1 -31 -7.5 -56.5t-18.5 -43.5t-30.5 -27.5t-41.5 -9.5v45q47 0 48 92h-47l-1 97h97zM294 0q-1 -31 -7 -56.5t-18 -43.5t-30.5 -27.5t-42.5 -9.5v45q48 0 49 92h-48l-1 97h97z"/>
<glyph glyph-name="dagger" horiz-adv-x="529" unicode="†" d="M479 380h-173v-569h-84v569h-172v71h172v193h84v-193h173v-71z"/>
<glyph glyph-name="daggerdbl" horiz-adv-x="530" unicode="‡" d="M480 4h-173v-193h-84v193h-173v71h173v305h-173v71h173v193h84v-193h172v-71h-172v-305h173v-71z"/>
<glyph glyph-name="bullet" horiz-adv-x="362" unicode="•" d="M312 381q0 -27 -11 -51t-29 -42t-41.5 -28.5t-49.5 -10.5q-28 0 -51.5 10.5t-41.5 28.5t-28 42t-10 51t10 51t28 42t41.5 28.5t51.5 10.5q27 0 51 -10.5t41.5 -28.5t28 -42t10.5 -51z"/>
<glyph glyph-name="ellipsis" horiz-adv-x="530" unicode="…" d="M140 0h-89l-1 90h89zM310 0h-90l-1 90h90zM480 0h-90l-1 90h90z"/>
<glyph glyph-name="perthousand" horiz-adv-x="977" unicode="‰" d="M483 43q65 0 65 117t-65 117t-65 -117t65 -117zM483 332q62 0 99 -45.5t37 -126.5t-37 -126t-99 -45q-63 0 -99 45t-36 126q0 82 36 127t99 45zM791 43q66 0 66 117t-66 117q-65 0 -65 -117t65 -117zM791 332q63 0 99.5 -45.5t36.5 -126.5t-36.5 -126t-99.5 -45 q-62 0 -98.5 45t-36.5 126q0 82 36.5 127t98.5 45zM537 644l-342 -644h-64l342 644h64zM184 367q65 0 65 117t-65 117t-65 -117t65 -117zM184 655q62 0 99 -45t37 -126t-37 -126t-99 -45q-63 0 -98.5 45t-35.5 126t35.5 126t98.5 45z"/>
<glyph glyph-name="guilsinglleft" horiz-adv-x="323" unicode="‹" d="M273 34h-71l-152 217l152 218h71l-124 -218z"/>
<glyph glyph-name="guilsinglright" horiz-adv-x="321" unicode="›" d="M271 251l-151 -217h-70l124 217l-124 218h70z"/>
<glyph glyph-name="uni20A8" horiz-adv-x="613" unicode="₨" d="M460 -6q-105 0 -111 114h46q0 -65 64 -65q14 0 25 4t18.5 12t11 18t3.5 22q0 13 -2.5 21t-11 14t-23 11.5t-37.5 14.5q-23 8 -39.5 15.5t-27.5 19t-16 27.5t-5 41q0 22 7 40.5t19 32.5t30 21.5t40 7.5q101 0 103 -99h-45q-2 50 -54 50q-12 0 -22 -3.5t-17 -9t-11 -14.5 t-4 -20t1.5 -17.5t9 -12.5t21.5 -11.5t38 -13.5q23 -7 40.5 -15.5t29 -21t17 -29.5t5.5 -42q0 -24 -7.5 -44.5t-21 -36t-32.5 -23.5t-42 -8zM97 270h106q21 0 37 4.5t26 14.5t15 26.5t5 39.5q0 42 -19 62.5t-57 20.5h-113v-168zM347 2h-51l-33 132q-5 16 -12.5 30.5 t-17.5 25t-22.5 16t-26.5 5.5h-87v-209h-47v490h157q15 0 28 -1t24.5 -4t22 -9.5t20.5 -17.5q16 -19 24 -47.5t8 -57.5q0 -25 -5.5 -47t-15.5 -38.5t-25 -28t-34 -16.5v-1q38 -16 58 -89z"/>
<glyph glyph-name="Euro" horiz-adv-x="655" unicode="€" d="M605 688l-20 -90q-60 49 -135 49q-102 0 -160.5 -58.5t-69.5 -131.5h333l-13 -66h-328l-1 -19l1 -45h314l-13 -66h-291q19 -99 80.5 -145.5t139.5 -46.5q92 0 143 48v-101q-61 -28 -135 -28q-269 0 -325 273h-75l14 66h51q-1 12 -1 44v20h-64l14 66h57q26 135 118 203 t213 68q91 0 153 -40z"/>
<glyph glyph-name="trademark" horiz-adv-x="646" unicode="™" d="M279 591h-85v-261h-60v261h-84v53h229v-53zM596 330h-54v256l-59 -256h-54l-59 256v-256h-55v314h87l54 -242l54 242h86v-314z"/>
<glyph glyph-name="uni25CC" horiz-adv-x="459" unicode="◌" d="M143 77l-29 -41q-44 22 -70 61l42 29q20 -31 57 -49zM283 14q-24 -6 -49 -7h-9q-18 0 -39 3l9 46q12 -1 25 -1h14q19 0 38 4zM68 167l-52 -9q-4 20 -6 44q0 24 4 44l53 -6q-4 -14 -4 -30v-7q0 -18 5 -36zM136 335q-36 -21 -55 -52l-44 25q26 40 66 66zM422 110 q-26 -41 -68 -66l-30 39q34 20 54 53zM447.5 225q0.5 -13 0.5 -18q0 -18 -3 -35l-53 5q3 15 3 30v7q-1 20 -6 37l52 10q6 -23 6.5 -36zM271 410l-7 -49q-16 3 -31 3h-8q-21 -1 -39 -5l-11 47q25 6 48 6q8 1 16 1zM416 320l-44 -28q-21 30 -56 49l29 41q44 -24 71 -62z"/>
<glyph glyph-name="NULL" horiz-adv-x="0"/>
<glyph glyph-name="uni0B95_t.pulli_uni0BB7.akhn" d="M935 30h70v157q-15 -11 -31 -17q-21 -8 -39 -12v-128zM824 190v116q0 43 -28 45h-5q-19 0 -32.5 -15.5t-13.5 -44.5q0 -8 1 -17q6 -35 29 -57.5t49 -26.5zM459 107q0 -32 17 -53t42 -21t41.5 20.5t16.5 53.5q0 30 -22.5 53t-49.5 23h-5q-40 -21 -40 -76zM259 189h-134 q-73 0 -78 -81v-10q0 -23 7 -41q10 -28 33 -29h3q35 0 38 46h29q1 -41 41 -41q30 0 47 27q14 23 14 56v73zM188 377v-157h70v157h-70zM640 30q13 6 22 31.5t9 45.5q0 8 -1 15q-9 59 -57 82q-14 6 -36 7q-21 1 -30 -4q31 -12 48.5 -41t17.5 -64q0 -44 -25.5 -73t-69.5 -29 q-42 0 -68 31t-26 73q0 3 1 27.5t28 57.5h-84v-82q0 -73 -63 -100q-26 -11 -76 -11q-65 0 -88 26q-11 -25 -51 -25h-12q-61 5 -66 93v11q0 45 22 77q18 26 44 35q20 7 71 7v189h351v-32h-132v-157h123q41 22 92 22h4q62 -1 104 -31q46 -32 52 -87q1 -12 1 -23q0 -48 -25 -69 h104v125q-41 6 -72 35q-37 33 -43 82q-1 11 -1 22q0 50 29 81t78 32h6q114 0 114 -115v-103q45 9 77.5 44.5t38.5 69.5l48 17v-322h-164v-248h-110v248h-185v30z" horiz-adv-x="1139"/>
<glyph glyph-name="uni0B95_t.pulli.abvs" d="M245 519q0 26 18 44t44 18t44 -18t18 -44t-18 -44t-44 -18t-44 18t-18 44zM251 189h-123q-80 0 -80 -58q0 -38 42 -62q34 -18 78 -18h13q70 4 70 84v54zM180 377v-157h70v157h-70zM142 409h351v-32h-132v-157h63q126 0 130 -105v-6q0 -53 -33 -83q-30 -26 -81 -26l-36 26 q16 1 30 23t16 48v12q0 80 -63 80h-26v-82q0 -102 -164 -107h-8q-69 0 -120.5 35t-55.5 93v9q0 43 29 64t100 22v186z" horiz-adv-x="596"/>
<glyph glyph-name="uni0B99_t.pulli.abvs" d="M230 519q0 26 18 44t44 18t44 -18t18 -44t-18 -44t-44 -18t-44 18t-18 44zM525 32v377h110v-409h-476v31h135q35 3 57 35q20 29 20 66v7q-1 39 -10 55q-11 21 -38 21h-3q-50 -1 -50 -55v-48h-111v264h-111v-376h-38v408h411v-32h-151v-149q20 37 82 37q12 0 24 -2 q88 -16 88 -130q0 -30 -12 -60q-12 -32 -28 -40h101z" horiz-adv-x="675"/>
<glyph glyph-name="uni0B9A_t.pulli.abvs" d="M247 519q0 26 18 44t44 18t44 -18t18 -44t-18 -44t-44 -18t-44 18t-18 44zM251 189h-123q-80 0 -80 -58q0 -35 34.5 -57.5t79.5 -22.5q89 0 89 82v56zM180 377v-157h70v157h-70zM142 409h369v-32h-150v-157h150v-31h-150v-82q0 -102 -164 -107h-8q-69 0 -120.5 35 t-55.5 93v9q0 43 29 64t100 21v187z" horiz-adv-x="551"/>
<glyph glyph-name="uni0B9C_t.pulli.abvs" d="M323 519q0 26 18 44t44 18t44 -18t18 -44t-18 -44t-44 -18t-44 18t-18 44zM145 224q0 -26 10 -39.5t22 -13.5q3 0 7 1q28 6 28 52q0 53 -30 54h-3q-34 0 -34 -54zM620 390q53 -25 74 -86q13 -36 13 -82q0 -14 -1 -28q-6 -70 -60.5 -111t-144.5 -41h-246q-64 0 -97 -36 t-33 -84q0 -8 1 -17q7 -70 58 -82q15 -4 29 -4q49 0 118 73q51 54 89 76q60 34 144 34h5q63 -1 100 -32q38 -32 38 -87v-11q-4 -56 -49 -86q-32 -22 -74 -27q-11 -1 -21 -1l-55 9q-52 18 -65 43l18 28q30 -34 67 -34q35 0 54.5 21.5t19.5 56.5q0 32 -21.5 55.5t-58.5 23.5 q-32 0 -55 -8q-53 -19 -110 -81q-50 -54 -84 -78q-48 -33 -98 -33q-24 0 -49 7q-106 30 -106 150q0 12 1 24q7 68 68 104q54 32 141 32h249q51 0 81 33q35 37 35 110q0 53 -17 95q-19 48 -49 54q-11 2 -21 2q-68 0 -68 -100v-131h-111v99q0 60 -34.5 94.5t-89.5 38.5h-13 q-57 0 -98 -32.5t-41 -88.5q0 -46 24 -77q27 -33 72 -33h8q-23 9 -35 33.5t-12 50.5v8q3 34 24 57t56 23q42 0 64.5 -27.5t22.5 -65.5q0 -52 -38 -80.5t-87 -28.5q-28 0 -53 10q-81 32 -81 126q0 10 1 20q6 81 83 118q48 24 109 24q11 0 23 -1q140 -9 177 -79q12 33 37 55 q29 25 78 25q8 0 17 -1q45 -4 77 -19z" horiz-adv-x="751"/>
<glyph glyph-name="uni0B9E_t.pulli.abvs" d="M416 519q0 26 18 44t44 18t44 -18t18 -44t-18 -44t-44 -18t-44 18t-18 44zM289 124q0 -66 44 -66h3q41 2 41 62q-1 59 -38 63q-4 1 -8 1q-42 0 -42 -60zM763 183q-14 5 -30 5q-29 0 -46 -18v-170h-110v375h-160q-103 0 -158 -40q-70 -51 -70 -151q0 -56 29 -98 q28 -40 77 -55q-43 32 -43 89q0 8 1 17q4 47 33 75t73 27q43 0 75 -34t33 -78v-7q0 -58 -34 -90q-36 -34 -98 -34q-27 0 -52 7q-61 18 -95 68t-33 116q-1 99 65 160t185 61h458v-33h-176v-151q34 26 93 26h13q50 -2 89 -42q45 -47 45 -127v-7q-3 -169 -139 -260 q-116 -78 -294 -80h-7q-182 0 -319 100q-158 114 -158 298q0 90 42 167t118 115l28 -25q-62 -21 -106 -91t-48 -144q-1 -9 -1 -18q0 -77 39 -148q39 -72 110 -124q78 -58 212 -76q40 -6 77 -6q153 0 243 86q84 80 84 201q0 98 -45 114z" horiz-adv-x="969"/>
<glyph glyph-name="uni0B9F_t.pulli.abvs" d="M374 519q0 26 18 44t44 18t44 -18t18 -44t-18 -44t-44 -18t-44 18t-18 44zM10 408h111v-378h739v-30h-850v408z" horiz-adv-x="900"/>
<glyph glyph-name="uni0BA3_t.pulli.abvs" d="M482 519q0 26 18 44t44 18t44 -18t18 -44t-18 -44t-44 -18t-44 18t-18 44zM118 112q1 -34 14 -49.5t28 -15.5h5q36 5 36 72t-42 68h-2q-23 0 -31 -17t-8 -45v-13zM700 308q-19 -24 -29 -43q-20 -41 -22 -88v-10q0 -41 14.5 -71t38.5 -30h5q21 2 33.5 29t12.5 65 q0 35 -15 82q-17 54 -38 66zM403 301q-49 -49 -51 -124v-7q0 -47 12 -73q15 -31 48 -31h6q43 4 43 82q0 20 -3 41q-9 57 -55 112zM381 325q-42 24 -48 26q-42 16 -112 17h-3q-84 0 -128 -52.5t-44 -133.5v-18q4 -79 58 -123q-23 33 -23 82q0 7 1 15q7 97 85 104q6 1 12 1 q46 0 75 -34q27 -33 29 -81v-7q0 -61 -35 -94q-33 -30 -85 -30q-23 0 -46 7q-50 15 -78.5 64t-28.5 112q0 106 60 167q57 57 152 63q25 2 41 2q11 0 18 -1q82 -7 149 -38q53 39 150 39q91 0 139 -36q39 32 130 32h272v-32h-103v-376h-111v376h-68q-58 0 -85 -19 q40 -27 68 -78q31 -56 31 -117q0 -66 -31 -114q-34 -52 -91 -52h-2q-57 1 -88 54q-26 44 -26 105v9q2 102 59 165q-29 20 -31 21q-30 15 -70 21q-15 2 -30 2q-50 0 -83 -21q103 -69 103 -185v-11q-3 -78 -37.5 -119.5t-92.5 -41.5q-60 0 -92 64q-23 46 -23 104q0 12 1 25 q6 76 62 137z" horiz-adv-x="1161"/>
<glyph glyph-name="uni0BA4_t.pulli.abvs" d="M257 519q0 26 18 44t44 18t44 -18t18 -44t-18 -44t-44 -18t-44 18t-18 44zM251 189h-123q-80 0 -80 -58q0 -35 34.5 -57.5t79.5 -22.5q89 0 89 84v54zM180 377v-157h70v157h-70zM142 409h368v-32h-149v-157h71q46 0 82 -26q52 -38 54 -120v-5q0 -82 -64 -125 q-54 -36 -134 -36h-191q-54 0 -71 -13q-12 -9 -12 -23q17 9 34 9q50 0 54 -49v-5q0 -22 -16.5 -36.5t-42.5 -14.5q-16 0 -32 6q-40 16 -40 66v9q7 83 102 83h154q59 0 98 28q46 34 50 101v12q0 54 -25 83q-22 25 -54 25h-17v-82q0 -102 -164 -107h-8q-69 0 -120.5 35 t-55.5 93v9q0 43 29 64t100 21v187z" horiz-adv-x="610"/>
<glyph glyph-name="uni0BA8_t.pulli.abvs" d="M166 519q0 26 18 44t44 18t44 -18t18 -44t-18 -44t-44 -18t-44 18t-18 44zM26 408h405v-31h-161v-156q18 29 75 29h7q50 -2 88 -40q46 -47 46 -129v-7q-2 -84 -62 -128q-52 -38 -128 -38h-155q-54 0 -71 -13q-12 -9 -12 -23q13 5 29 5q48 0 56 -45q1 -4 1 -9 q0 -18 -14 -31q-16 -17 -43 -17q-16 0 -32 6q-41 15 -41 65q0 5 1 11q7 83 102 83h109q140 0 151 126q1 11 1 22q0 47 -18 77q-17 28 -38 30h-10q-34 0 -43 -25v-170h-110v376h-93v-376h-40v408z" horiz-adv-x="528"/>
<glyph glyph-name="uni0BA9_t.pulli.abvs" d="M314 519q0 26 18 44t44 18t44 -18t18 -44t-18 -44t-44 -18t-44 18t-18 44zM118 112q3 -65 40 -65h5q38 4 38 74q0 66 -42 66q-1 0 -21 -0.5t-20 -65.5v-9zM414 302q-43 -47 -47 -125v-9q0 -41 15.5 -70t40.5 -29h6q16 2 31 30.5t15 65.5q0 33 -17 77q-20 49 -44 60z M846 408v-30h-102v-378h-111v378h-59q-63 0 -111 -25q44 -25 76 -73q37 -58 37 -122q0 -63 -34 -110q-37 -52 -94 -52h-2q-57 1 -88 54q-25 43 -25 105v9q2 98 60 165q-27 14 -53 27q-38 14 -93 14q-13 0 -27 -1q-88 -5 -131 -55.5t-43 -131.5v-18q5 -84 47 -109 q-12 28 -12 66q0 8 1 17q6 96 85 104q7 1 14 1q44 0 73 -34q27 -32 29 -81v-7q0 -61 -35 -94q-33 -30 -85 -30q-23 0 -46 7q-50 15 -78.5 64t-28.5 112q0 106 60 167q56 57 152 63q23 1 43 1q64 0 109 -14q17 -5 60 -26q57 37 150 37h262z" horiz-adv-x="886"/>
<glyph glyph-name="uni0BAA_t.pulli.abvs" d="M231 519q0 26 18 44t44 18t44 -18t18 -44t-18 -44t-44 -18t-44 18t-18 44zM447 32v376h111v-408h-548v408h111v-376h326z" horiz-adv-x="598"/>
<glyph glyph-name="uni0BAE_t.pulli.abvs" d="M265 519q0 26 18 44t44 18t44 -18t18 -44t-18 -44t-44 -18t-44 18t-18 44zM412 31h175q19 1 28 55q6 37 6 75q0 80 -31 140q-35 68 -100 68q-16 0 -32 -5q-31 -9 -40 -38q-6 -17 -6 -60v-235zM359 394q31 16 92 16q48 0 75 -10q62 -23 94 -93q26 -58 31 -128q1 -12 1 -25 q0 -34 -6 -76q-12 -78 -38 -78h-598v409h110v-378h182v245q0 88 57 118z" horiz-adv-x="694"/>
<glyph glyph-name="uni0BAF_t.pulli.abvs" d="M244 519q0 26 18 44t44 18t44 -18t18 -44t-18 -44t-44 -18t-44 18t-18 44zM483 408h111v-408h-371v44q-16 -25 -56 -39q-29 -9 -55 -9h-9q-52 3 -72.5 35t-20.5 109v268h111v-270q0 -91 39 -91q56 0 56 109v252h111v-376h156v376z" horiz-adv-x="634"/>
<glyph glyph-name="uni0BB0_t.pulli.abvs" d="M124 519q0 26 18 44t44 18t44 -18t18 -44t-18 -44t-44 -18t-44 18t-18 44zM401 408v-33h-110v-375h-111v375h-129v-375h-41v408h391z" horiz-adv-x="406"/>
<glyph glyph-name="uni0BB1_t.pulli.abvs" d="M215 519q0 26 18 44t44 18t44 -18t18 -44t-18 -44t-44 -18t-44 18t-18 44zM407 404q58 -24 91 -89q30 -58 30 -152q0 -24 -2 -46q-9 -96 -61.5 -152.5t-127.5 -56.5h-197q-54 0 -71 -13q-12 -9 -12 -23q16 6 31 6q46 0 52 -46v-6q0 -18 -16 -34t-42 -16q-14 0 -28 6 q-40 17 -40 66v9q7 84 102 84h151q66 0 106.5 62.5t40.5 151.5q0 10 -1 21q-5 98 -17 135q-18 54 -63 54h-2q-23 -1 -36 -21.5t-13 -48.5v-295h-111v282q0 46 -3 58q-8 31 -39 34h-5q-23 0 -39.5 -17t-16.5 -51v-306h-37v306q0 93 89 104q17 2 33 2q79 0 107 -53 q16 42 90 53q7 1 14 1q21 0 43 -9z" horiz-adv-x="568"/>
<glyph glyph-name="uni0BB2_t.pulli.abvs" d="M272 519q0 26 18 44t44 18t44 -18t18 -44t-18 -44t-44 -18t-44 18t-18 44zM148 125q-1 -30 13 -51q14 -23 37 -23h2q40 2 40 71q0 65 -41 69h-6q-45 0 -45 -66zM676 172q2 14 2 26q0 30 -15 63t-48 57q-39 28 -76 40q-30 9 -30 40q0 17 13 30q12 12 34 12q12 0 26 -3 q22 -6 46 -30q75 -75 87 -179q1 -11 1 -22q0 -26 -5 -53q-9 -42 -31 -81q-41 -72 -131 -72h-2q-20 0 -36 1q-57 7 -88 40q-23 25 -30 70q-4 67 -4 104q-4 85 -39 119q-32 31 -108 34h-9q-79 0 -133 -52q-54 -51 -54 -124v-10q4 -54 32 -94t74 -55q-41 33 -41 94v11 q3 46 33 74t73 28t75 -34t33 -78v-6q0 -61 -40 -95q-36 -30 -93 -30q-26 0 -51 7q-66 19 -100 78q-27 50 -27 113v17q5 90 71 144t165 55h5q109 0 172 -43q68 -46 71 -136q3 -84 3 -115q5 -30 22 -46q21 -20 57 -20q47 0 76 56q16 30 20 65z" horiz-adv-x="758"/>
<glyph glyph-name="uni0BB3_t.pulli.abvs" d="M298 519q0 26 18 44t44 18t44 -18t18 -44t-18 -44t-44 -18t-44 18t-18 44zM147 125q1 -34 17 -56q14 -19 31 -19q3 0 7 1q41 7 41 66v6q-2 64 -41 68h-5q-20 1 -34 -15q-16 -18 -16 -51zM419 408h405v-30h-110v-378h-111v378h-83v-378h-111v147q0 74 -50 135t-122 66 q-10 1 -19 1q-72 -1 -120 -43q-52 -46 -52 -119v-5q0 -56 30 -97t80 -57q-17 13 -31 38q-15 28 -15 58q0 7 1 14q4 46 33 74t73 28q43 0 75 -34t33 -78v-6q0 -61 -40 -95q-36 -30 -93 -30q-26 0 -51 7q-66 19 -100 78q-27 50 -27 113v17q5 88 69 144q63 55 159 55h3 q78 -1 132 -43q37 -29 42 -52v92z" horiz-adv-x="864"/>
<glyph glyph-name="uni0BB4_t.pulli.abvs" d="M265 519q0 26 18 44t44 18t44 -18t18 -44t-18 -44t-44 -18t-44 18t-18 44zM411 31h119q57 0 86 55q21 41 21 100q0 14 -1 28q-5 64 -45 109q-44 49 -105 49q-12 0 -23 -2q-52 -9 -52 -73v-266zM318 354q12 20 38 36t73 19q22 2 41 2q37 0 59 -7q75 -22 115 -101 q23 -45 23 -119q0 -25 -3 -44q-23 -140 -142 -140h-112q-2 -24 16 -48t43 -23h73v-32h-123q-21 0 -35 -21t-15 -48q-1 -53 -58 -82q-45 -24 -102 -25h-5q-63 0 -107 25q-52 30 -54 85v6q0 39 25 62q25 22 65 23h3q76 0 82 -51v-9q0 -22 -12 -36q-15 -16 -38 -15q-14 0 -26 6 q-21 11 -21 38q0 22 21 34q-6 1 -12 1q-21 0 -38 -15t-17 -40q0 -34 29 -57t70 -23q80 0 84 70q3 58 37 82q23 17 56 20q-28 9 -42 36q-7 14 -7 37h-292v409h110v-378h182v253q0 43 16 70z" horiz-adv-x="707"/>
<glyph glyph-name="uni0BB5_t.pulli.abvs" d="M272 519q0 26 18 44t44 18t44 -18t18 -44t-18 -44t-44 -18t-44 18t-18 44zM147 125q-1 -33 15 -55q13 -18 33 -19q4 0 7 1q40 7 40 73q0 69 -46 69q-49 0 -49 -69zM600 32v376h111v-408h-359v33q26 9 49 63q19 46 19 90q0 11 -1 22q-8 72 -56 115q-47 42 -118 42h-3 q-86 -1 -143 -53q-53 -49 -53 -120v-10q4 -56 32 -97t78 -57q-45 38 -45 100v10q3 46 33 74t73 28q45 0 76 -32q32 -34 32 -83q0 -64 -41 -98q-36 -30 -92 -30q-26 0 -51 7q-66 19 -100 78q-27 50 -27 113v17q5 90 71 144t165 55h5q119 0 191 -46q85 -56 85 -173 q1 -51 -17 -97t-40 -63h126z" horiz-adv-x="751"/>
<glyph glyph-name="uni0BB6_t.pulli.abvs" d="M294 519q0 26 18 44t44 18t44 -18t18 -44t-18 -44t-44 -18t-44 18t-18 44zM540 378v-266q0 -86 50 -86q47 0 47 88v264h-97zM429 125v253h-94v-276q0 -48 -44.5 -76.5t-116.5 -28.5q-164 0 -164 105v306h111v-305q0 -37 7 -52q11 -23 44 -23q52 0 52 84v296h445v-294 q0 -60 -21 -88q-24 -32 -81 -32q-77 0 -106 27q-32 29 -32 104z" horiz-adv-x="709"/>
<glyph glyph-name="uni0BB7_t.pulli.abvs" d="M386 519q0 26 18 44t44 18t44 -18t18 -44t-18 -44t-44 -18t-44 18t-18 44zM147 125q0 -34 14.5 -54t33.5 -20q4 0 7 1q40 7 40 73q0 69 -46 69q-49 0 -49 -69zM780 30h70v157q-15 -11 -31 -17q-21 -8 -39 -12v-128zM669 190v116q0 43 -28 45h-5q-19 0 -32.5 -15.5 t-13.5 -44.5q0 -8 1 -17q6 -35 29 -57.5t49 -26.5zM670 -248v248h-318v33q26 9 49 63q19 46 19 90q0 11 -1 22q-8 72 -55.5 114.5t-118.5 42.5h-3q-86 -1 -141 -51.5t-55 -121.5v-10q3 -56 31.5 -97t78.5 -57q-45 38 -45 100v10q3 47 32.5 74.5t73.5 27.5q45 0 76.5 -33 t31.5 -82q0 -64 -41 -98q-36 -30 -92 -30q-26 0 -51 7q-66 19 -100 78q-27 50 -27 113v17q5 89 71 143.5t165 55.5h5q119 0 191 -46q85 -56 85 -173q0 -51 -17.5 -97t-39.5 -63h195v125q-45 6 -75 35q-34 31 -40 82q-1 11 -1 22q0 51 29 81.5t78 31.5h6q114 0 114 -115v-103 q49 10 79.5 43t36.5 71l48 17v-322h-164v-248h-110z" horiz-adv-x="984"/>
<glyph glyph-name="uni0BB8_t.pulli.abvs" d="M369 519q0 26 18 44t44 18t44 -18t18 -44t-18 -44t-44 -18t-44 18t-18 44zM147 125q-1 -32 15 -54q14 -19 31 -19h5q40 6 40 75q0 64 -45 64q-46 0 -46 -66zM497 0h-111v198q0 169 -144 173h-6q-86 0 -138 -53q-51 -52 -51 -128v-8q5 -121 109 -154q-17 13 -31 38 q-15 28 -15 58q0 7 1 14q4 46 33 74t73 28q43 0 75 -34t33 -78v-6q0 -61 -40 -95q-36 -30 -93 -30q-26 0 -51 7q-66 19 -100 78q-27 50 -27 113v17q5 90 71 146q64 54 158 53h7q95 -2 163 -43q49 -30 54 -51q6 30 32 55q34 33 84 36h12q42 0 74 -18q68 -38 68 -160v-38 q0 -46 2 -64q5 -35 20 -52q22 -25 56 -25q51 0 80 56q22 41 22 89q0 31 -18 69q-11 23 -42 48q-39 31 -73 41t-35 43q0 28 24 38q11 5 25 5q11 0 23 -3q20 -5 46 -30q88 -85 88 -204q0 -70 -36 -131q-41 -71 -139 -74h-7q-72 0 -107 38q-22 24 -31 62q-8 74 -8 115 q-1 36 -3 70t-11 48q-18 29 -48 29h-6q-62 -6 -62 -125v-235z" horiz-adv-x="995"/>
<glyph glyph-name="uni0BB9_t.pulli.abvs" d="M482 519q0 26 18 44t44 18t44 -18t18 -44t-18 -44t-44 -18t-44 18t-18 44zM147 125q0 -34 14.5 -54t33.5 -20q4 0 7 1q40 7 40 73q0 69 -46 69q-49 0 -49 -69zM352 0v33q26 9 49 63q19 46 19 90q0 11 -1 22q-8 72 -55.5 114.5t-118.5 42.5h-3q-88 -1 -142 -49t-54 -126 v-8q2 -56 31 -97t79 -57q-45 38 -45 100v10q3 47 32.5 74.5t73.5 27.5q45 0 76.5 -33t31.5 -82q0 -64 -41 -98q-36 -30 -92 -30q-26 0 -51 7q-66 19 -100 78q-27 50 -27 113v17q5 89 71 143.5t165 55.5h5q120 0 191 -46q85 -56 85 -173q0 -51 -17.5 -97t-39.5 -63h152v268 q0 49 26 79q24 27 63 32q15 2 29 2q81 0 111 -53q8 17 30 33t53 19q9 1 18 1q29 0 48 -8q55 -23 89 -89q30 -58 30 -152q0 -24 -2 -46q-9 -96 -61.5 -152.5t-127.5 -56.5h-787q-54 0 -71 -13q-12 -9 -12 -23q17 7 31 7q47 0 52 -47v-6q0 -18 -16 -34t-41 -16q-15 0 -29 6 q-40 17 -40 66v9q7 84 102 84h741q66 0 106.5 62.5t40.5 151.5q0 10 -1 21q-5 98 -17 135q-18 54 -63 54h-2q-23 -1 -36 -21.5t-13 -48.5v-296h-111v271q0 50 -3 64q-8 37 -39 40h-4q-23 0 -40 -21t-17 -56v-298h-311z" horiz-adv-x="1163"/>
<glyph glyph-name="uni0B95_t.pulli_uni0BB7.akhn_t.pulli.abvs" d="M484 519q0 26 18 44t44 18t44 -18t18 -44t-18 -44t-44 -18t-44 18t-18 44zM935 30h70v157q-15 -11 -31 -17q-21 -8 -39 -12v-128zM824 190v116q0 43 -28 45h-5q-19 0 -32.5 -15.5t-13.5 -44.5q0 -8 1 -17q6 -35 29 -57.5t49 -26.5zM459 107q0 -32 17 -53t42 -21 t41.5 20.5t16.5 53.5q0 30 -22.5 53t-49.5 23h-5q-40 -21 -40 -76zM259 189h-134q-73 0 -78 -81v-10q0 -23 7 -41q10 -28 33 -29h3q35 0 38 46h29q1 -41 41 -41q30 0 47 27q14 23 14 56v73zM188 377v-157h70v157h-70zM640 30q13 6 22 31.5t9 45.5q0 8 -1 15q-9 59 -57 82 q-14 6 -36 7q-21 1 -30 -4q31 -12 48.5 -41t17.5 -64q0 -44 -25.5 -73t-69.5 -29q-42 0 -68 31t-26 73q0 3 1 27.5t28 57.5h-84v-82q0 -73 -63 -100q-26 -11 -76 -11q-65 0 -88 26q-11 -25 -51 -25h-12q-61 5 -66 93v11q0 45 22 77q18 26 44 35q20 7 71 7v189h351v-32h-132 v-157h123q41 22 92 22h4q62 -1 104 -31q46 -32 52 -87q1 -12 1 -23q0 -48 -25 -69h104v125q-41 6 -72 35q-37 33 -43 82q-1 11 -1 22q0 51 29 81.5t78 31.5h6q114 0 114 -115v-103q45 9 77.5 44.5t38.5 69.5l48 17v-322h-164v-248h-110v248h-185v30z" horiz-adv-x="1139"/>
<glyph glyph-name="uni0B95_uni0BBF.abvs" d="M251 189h-123q-80 0 -80 -58q0 -38 42 -62q34 -18 78 -18h13q70 4 70 84v54zM180 377v-157h70v157h-70zM493 408v-31h-132v-157h63q126 0 130 -105v-6q0 -53 -33 -83q-30 -26 -81 -26l-36 26q16 1 30 23t16 48v12q0 80 -63 80h-26v-82q0 -102 -164 -107h-8 q-69 0 -120.5 35t-55.5 93v9q0 43 28 63.5t77 20.5q-28 27 -49 74q-26 57 -26 117q0 122 96 196q85 66 207 66h7q125 -2 217 -78q96 -80 96 -193v-403h-37v339q0 111 -100 177q-80 53 -172 54h-9q-230 0 -258 -149q-3 -19 -3 -38q0 -49 23 -93q17 -32 32 -42v160h351z" horiz-adv-x="706"/>
<glyph glyph-name="uni0B99_uni0BBF.abvs" d="M391 490v8q0 71 49.5 121.5t134.5 50.5q106 0 165 -83q47 -66 47 -147v-440h-36v377q0 74 -42 127q-47 59 -127 61h-6q-67 0 -101 -40q-23 -27 -23 -67q0 -52 32 -88q5 -5 41 -32v71h110v-409h-476v31h135q35 4 56 34t21 67v7q-1 39 -10 55q-11 21 -38 21h-3 q-50 -1 -50 -55v-48h-111v264h-111v-376h-38v408h356v-32h-96v-149q20 37 82 37q12 0 24 -2q88 -17 88 -130q0 -31 -12.5 -62t-27.5 -38h101v274q-19 11 -37 22q-38 26 -62 59q-33 46 -35 103z" horiz-adv-x="827"/>
<glyph glyph-name="uni0B9A_uni0BBF.abvs" d="M251 189h-123q-80 0 -80 -58q0 -38 42 -62q34 -18 78 -18h13q70 4 70 84v54zM180 377v-157h70v157h-70zM509 189h-148v-82q0 -102 -164 -107h-8q-69 0 -120.5 35t-55.5 93v9q0 43 28 63.5t77 20.5q-28 27 -49 74q-26 57 -26 117q0 122 91 195q82 67 202 67h7 q122 -2 204 -78.5t82 -192.5v-403h-37v339q0 113 -82 177q-66 53 -153 54h-14q-105 0 -164 -29q-73 -36 -89 -120q-3 -19 -3 -38q0 -49 23 -93q17 -32 32 -42v160h351v-31h-132v-157h148v-31z" horiz-adv-x="669"/>
<glyph glyph-name="uni0B9C_uni0BBF.abvs" d="M145 224q0 -26 10 -39.5t22 -13.5q3 0 7 1q28 6 28 52q0 53 -30 54h-3q-34 0 -34 -54zM697 297q10 -34 10 -75q0 -14 -1 -28q-6 -70 -60.5 -111t-144.5 -41h-246q-64 0 -97 -36t-33 -84q0 -8 1 -17q7 -70 58 -82q15 -4 29 -4q49 0 118 73q51 54 89 76q60 34 144 34h5 q63 -1 101 -32q37 -32 37 -87v-11q-4 -56 -49 -86q-32 -22 -74 -27q-11 -1 -21 -1l-55 9q-52 18 -65 43l18 28q30 -34 67 -34q35 0 54.5 21.5t19.5 56.5q0 32 -21.5 55.5t-58.5 23.5q-32 0 -55 -8q-53 -19 -110 -81q-50 -54 -84 -78q-48 -33 -98 -33q-24 0 -49 7 q-106 30 -106 150q0 12 1 24q7 68 68 104q54 32 141 32h249q51 0 81 33q35 37 35 110q0 53 -17 95q-19 48 -49 54q-11 2 -21 2q-68 0 -68 -100v-131h-111v99q0 60 -34.5 94.5t-89.5 38.5h-14q-57 0 -97.5 -32.5t-40.5 -92.5q0 -44 24 -73q26 -33 72 -33h8q-23 9 -35 33.5 t-12 50.5v8q3 34 24 57t56 23q42 0 64.5 -27.5t22.5 -65.5q0 -52 -38 -80.5t-87 -28.5q-28 0 -53 10q-81 32 -81 126q0 10 1 20q6 79 83 118q46 24 109 24q11 0 23 -1q140 -9 177 -79q12 33 37 55q28 24 78 24h12q-39 33 -46 89q-1 11 -1 23q0 58 32 97q40 48 117 52h12 q97 0 150 -80q45 -67 45 -150v-440h-36v389q0 69 -42 122q-46 58 -123 58h-3q-51 -1 -82 -35q-18 -20 -18 -53q0 -16 6 -29q16 -35 71.5 -62t76.5 -93z" horiz-adv-x="887"/>
<glyph glyph-name="uni0B9E_uni0BBF.abvs" d="M289 124q0 -66 44 -66h3q41 2 41 62q-1 59 -38 63q-4 1 -8 1q-42 0 -42 -60zM782 571q-47 -3 -77 -31.5t-30 -63.5q0 -41 39 -68h149v-33h-176v-151q34 26 93 26h13q50 -2 89 -42q45 -47 45 -127v-7q-3 -169 -139 -260q-116 -78 -294 -80h-7q-182 0 -319 100 q-158 114 -158 298q0 90 42.5 167t117.5 115l28 -25q-62 -21 -106 -90.5t-48 -144.5q-1 -9 -1 -18q0 -77 39 -148q39 -72 110 -124q78 -58 212 -76q40 -6 77 -6q153 0 243 86q84 80 84 201q0 98 -45 114q-14 5 -30 5q-29 0 -46 -18v-170h-110v375h-160q-103 0 -158 -40 q-70 -51 -70 -151q0 -56 28.5 -97t77.5 -56q-43 32 -43 89q0 8 1 17q4 47 33 74.5t73 27.5t75.5 -34t32.5 -78v-7q0 -58 -35 -91t-97 -33q-27 0 -52 7q-61 18 -94.5 68t-33.5 116q0 99 65.5 160t184.5 61h261q-50 40 -50 107q0 54 34.5 97.5t95.5 55.5q31 6 59 6 q111 0 174 -84q57 -75 57 -187v-403h-37v335q0 116 -56.5 176.5t-141.5 60.5q-9 0 -19 -1z" horiz-adv-x="1076"/>
<glyph glyph-name="uni0B9F_uni0BBF.abvs" d="M364 207q7 -74 57 -129q44 -47 79 -47h10v223q0 63 -9 86q-11 30 -44 30h-4q-34 -2 -60 -35q-30 -39 -30 -103q0 -12 1 -25zM428 30q-29 13 -54 50q-33 48 -44 116q-3 19 -3 40q0 71 32 122q38 58 105 62q9 1 17 1q139 0 139 -160v-231h240v-30h-240v-200h-110v200h-500 v408h110v-378h308z" horiz-adv-x="900"/>
<glyph glyph-name="uni0BA3_uni0BBF.abvs" d="M118 112q1 -34 14 -49.5t28 -15.5h5q36 5 36 72t-42 68h-2q-23 0 -31 -17t-8 -45v-13zM700 308q-19 -24 -29 -43q-20 -41 -22 -88v-10q0 -41 14.5 -71t38.5 -30h5q21 2 33.5 29t12.5 65q0 35 -15 82q-17 54 -38 66zM403 301q-49 -49 -51 -124v-7q0 -47 12 -73 q15 -31 48 -31h6q43 4 43 82q0 20 -3 41q-9 57 -55 112zM915 470q5 -42 50 -62h156v-32h-103v-376h-111v376h-68q-58 0 -85 -19q40 -27 68 -78q31 -56 31 -117q0 -66 -31 -114q-34 -52 -91 -52h-2q-57 1 -88 54q-26 44 -26 105v9q2 102 59 165q-29 20 -31 21q-30 15 -70 21 q-15 2 -30 2q-50 0 -83 -21q103 -69 103 -185v-11q-3 -78 -37.5 -119.5t-92.5 -41.5q-60 0 -92 64q-23 46 -23 104q0 12 1 25q6 76 62 137q-42 24 -48 26q-42 16 -112 17h-3q-84 0 -128 -52.5t-44 -133.5v-18q4 -79 58 -123q-23 33 -23 82q0 7 1 15q7 97 85 104q6 1 12 1 q46 0 75 -34q27 -33 29 -81v-7q0 -61 -35 -94q-33 -30 -85 -30q-23 0 -46 7q-50 15 -78.5 64t-28.5 112q0 106 60 167q57 57 152 63q25 2 41 2q11 0 18 -1q82 -7 149 -38q53 39 150 39q91 0 139 -36q39 32 130 32h66q-24 12 -44 41.5t-22 60.5v11q0 62 43 105t126 43 q111 0 162 -83q36 -59 36 -146v-440h-36v397q0 72 -33 117q-39 54 -114 54h-5q-62 -1 -92 -31q-22 -22 -22 -54q0 -6 1 -13z" horiz-adv-x="1256"/>
<glyph glyph-name="uni0BA4_uni0BBF.abvs" d="M251 189h-123q-80 0 -80 -58q0 -38 42 -62q34 -18 78 -18h13q70 4 70 84v54zM180 377v-157h70v157h-70zM387 189h-26v-82q0 -102 -164 -107h-8q-69 0 -120.5 35t-55.5 93v9q0 43 28 63.5t77 20.5q-28 27 -49 74q-26 57 -26 117q0 122 96 196q85 66 207 66h7 q125 -2 217 -78q96 -80 96 -193v-403h-37v339q0 111 -100 177q-80 53 -172 54h-14q-105 0 -164 -29q-73 -36 -89 -120q-3 -19 -3 -38q0 -49 23 -93q17 -32 32 -42v160h351v-31h-132v-157h63q48 0 84 -24q56 -37 57.5 -81.5t1.5 -47.5q0 -80 -63 -123q-55 -36 -135 -36h-191 q-54 0 -71 -13q-12 -9 -12 -23q17 9 34 9q50 0 54 -49v-5q0 -22 -16.5 -36.5t-42.5 -14.5q-16 0 -32 6q-40 16 -40 66v9q7 83 102 83h154q59 0 98 28q46 34 50 101v12q0 47 -20 77q-21 31 -49 31z" horiz-adv-x="706"/>
<glyph glyph-name="uni0BA8_uni0BBF.abvs" d="M339 562q-53 -4 -81 -31q-24 -23 -24 -56q0 -48 40 -67h157v-31h-161v-156q18 29 75 29h7q50 -2 88 -40q46 -47 46 -129v-7q-2 -84 -62 -128q-52 -38 -128 -38h-155q-54 0 -71 -13q-12 -9 -12 -23q13 5 29 5q48 0 56 -45q1 -4 1 -9q0 -18 -15 -33t-42 -15q-16 0 -32 6 q-41 15 -41 65q0 5 1 11q7 83 102 83h109q140 0 151 126q1 11 1 22q0 47 -18 77q-17 28 -38 30h-10q-34 0 -43 -25v-170h-110v376h-93v-376h-40v408h200q-50 40 -50 107q0 54 34.5 97.5t95.5 55.5q31 6 59 6q111 0 174 -84q57 -75 57 -187v-403h-37v329q0 115 -57.5 174.5 t-140.5 59.5q-11 0 -22 -1z" horiz-adv-x="636"/>
<glyph glyph-name="uni0BA9_uni0BBF.abvs" d="M118 112q3 -65 40 -65h5q38 4 38 74q0 66 -42 66q-1 0 -21 -0.5t-20 -65.5v-9zM414 302q-43 -47 -47 -125v-9q0 -41 15.5 -70t40.5 -29h6q16 2 31 30.5t15 65.5q0 33 -17 77q-20 49 -44 60zM642 479q0 -50 47 -71h157v-30h-102v-378h-111v378h-59q-63 0 -111 -25 q44 -25 76 -73q37 -58 37 -122q0 -63 -34 -110q-37 -52 -94 -52h-2q-57 1 -88 54q-25 43 -25 105v9q2 98 60 165q-27 14 -53 27q-38 14 -93 14q-13 0 -27 -1q-88 -5 -131 -55.5t-43 -131.5v-18q5 -84 47 -109q-12 28 -12 66q0 8 1 17q6 96 85 104q7 1 14 1q44 0 73 -34 q27 -32 29 -81v-7q0 -61 -35 -94q-33 -30 -85 -30q-23 0 -46 7q-50 15 -78.5 64t-28.5 112q0 106 60 167q56 57 152 63q23 1 43 1q64 0 109 -14q17 -5 60 -26q57 37 150 37h55q-24 12 -44 41.5t-22 60.5v11q0 62 43 105t126 43q111 0 162 -83q36 -59 36 -146v-440h-36v394 q0 60 -33 107q-42 60 -119 63h-8q-41 0 -68 -19q-34 -23 -34 -66z" horiz-adv-x="980"/>
<glyph glyph-name="uni0BAA_uni0BBF.abvs" d="M343 469q0 -43 31 -83t73 -55v77h111v-408h-548v408h111v-376h326v264q-48 17 -89 54q-67 59 -70 141v8q0 71 49.5 121.5t134.5 50.5q106 0 165 -83q47 -66 47 -147v-441h-36v389q0 68 -46 120q-50 56 -130 58h-4q-69 0 -103 -34q-22 -22 -22 -64z" horiz-adv-x="724"/>
<glyph glyph-name="uni0BAE_uni0BBF.abvs" d="M412 31h175q19 1 28 55q6 37 6 75q0 80 -31 140q-35 68 -100 68q-16 0 -32 -5q-31 -9 -40 -38q-6 -17 -6 -60v-235zM432 498q-2 12 -2 24q0 58 33 97q40 47 117 51h12q97 0 150 -80q45 -67 45 -150v-440h-36v387q0 59 -41 116q-48 67 -123 67h-2q-61 -1 -86 -42 q-12 -20 -12 -47q0 -55 56 -89q51 -27 77 -85t31 -128q1 -12 1 -25q0 -34 -6 -76q-12 -78 -38 -78h-598v409h110v-378h182v245q0 88 57 118q32 17 90 17q19 0 35 -3q-17 10 -33 38.5t-19 51.5z" horiz-adv-x="827"/>
<glyph glyph-name="uni0BAF_uni0BBF.abvs" d="M334 491v9q0 72 46 121.5t130 49.5q106 0 164 -83q46 -66 46 -147v-440h-36v379q0 70 -46 125q-52 62 -132 62h-3q-55 0 -86 -27t-31 -74v-8q4 -75 97 -113v63h111v-408h-371v44q-16 -25 -56 -39q-29 -9 -55 -9h-9q-52 3 -72.5 35t-20.5 109v268h111v-270q0 -91 39 -91 q56 0 56 109v252h111v-376h156v281q-45 13 -83 44q-63 53 -66 134z" horiz-adv-x="760"/>
<glyph glyph-name="uni0BB0_uni0BBF.abvs" d="M192 468q11 -41 53 -60h156v-33h-110v-375h-111v375h-129v-375h-41v408h185q-24 12 -44 41.5t-22 60.5v11q0 62 43 105t126 43q111 0 162 -83q36 -59 36 -146v-440h-36v390q0 73 -33 119q-39 56 -119 59h-7q-61 0 -93 -32q-19 -19 -19 -47q0 -10 3 -21z" horiz-adv-x="536"/>
<glyph glyph-name="uni0BB1_uni0BBF.abvs" d="M368 453q10 -22 59.5 -59.5t70.5 -78.5q30 -58 30 -152q0 -24 -2 -46q-9 -96 -61.5 -152.5t-127.5 -56.5h-197q-54 0 -71 -13q-12 -9 -12 -23q16 6 31 6q46 0 52 -46v-6q0 -18 -16 -34t-42 -16q-14 0 -28 6q-40 17 -40 66v9q7 84 102 84h151q66 0 106.5 62.5t40.5 151.5 q0 10 -1 21q-5 98 -17 135q-18 54 -63 54h-2q-23 -1 -36 -21.5t-13 -48.5v-295h-111v282q0 46 -3 58q-8 31 -39 34h-5q-23 0 -39.5 -17t-16.5 -51v-306h-37v306q0 93 89 104q17 2 33 2q79 0 107 -53q6 17 27.5 34.5t67.5 17.5q-39 33 -46 87q-1 11 -1 23q0 58 32 97 q40 48 117 52h12q97 0 150 -80q45 -67 45 -150v-440h-36v389q0 69 -42 122q-46 58 -123 58h-3q-35 -1 -56 -13q-10 -5 -23 -20q-20 -22 -20 -53q0 -16 7 -30z" horiz-adv-x="704"/>
<glyph glyph-name="uni0BB2_uni0BBF.abvs" d="M148 125q-1 -30 13 -51q14 -23 37 -23h2q40 2 40 71q0 65 -41 69h-6q-45 0 -45 -66zM434 490v6q0 75 50 124.5t134 49.5h7q106 -3 165 -85q47 -65 47 -145v-440h-36v369q0 78 -44 136q-49 65 -129 66h-4q-66 0 -103 -34q-32 -29 -32 -76v-6q2 -47 40 -86q43 -44 108 -49 q-21 33 -65 53q-29 13 -29 37q0 15 15 24q8 5 17 5q13 0 27 -10q21 -15 39 -36q64 -75 74 -165q1 -11 1 -22q0 -26 -5 -53q-9 -42 -31 -81q-41 -72 -131 -72h-2q-40 0 -68 8q-35 11 -57 34.5t-29 68.5q-1 31 -4 104q-4 85 -39 119q-32 31 -108 34h-9q-79 0 -133 -51.5 t-54 -124.5v-10q3 -54 31.5 -94.5t74.5 -54.5q-41 33 -41 94v11q3 47 32.5 74.5t73.5 27.5t75.5 -34t32.5 -78v-6q0 -61 -40 -95q-36 -30 -93 -30q-26 0 -51 7q-66 19 -100 78q-27 50 -27 113v17q5 89 71 143.5t165 55.5h5q109 0 172 -43q68 -46 71 -136q0 -44 3 -115 q5 -30 22 -46q21 -20 57 -20q47 0 76 56q22 43 22 97q0 52 -22 81q-80 2 -146 55q-73 60 -76 150z" horiz-adv-x="877"/>
<glyph glyph-name="uni0BB3_uni0BBF.abvs" d="M147 125q0 -34 15 -54.5t33 -20.5q3 0 7 1q41 7 41 66v6q-2 64 -41 68h-5q-20 0 -35 -16.5t-15 -49.5zM824 408v-30h-110v-378h-111v378h-83v-378h-111v147q0 74 -50 135t-122 66q-10 1 -19 1q-72 0 -122 -44t-50 -118v-5q1 -56 30.5 -97t79.5 -57q-17 13 -31 38 q-15 28 -15 58q0 7 1 14q4 47 33 74.5t73 27.5t75.5 -34t32.5 -78v-6q0 -61 -40 -95q-36 -30 -93 -30q-26 0 -51 7q-66 19 -100 78q-27 50 -27 113v17q5 89 68.5 144t159.5 55h3q78 -1 132 -43q37 -29 42 -52v92h200q-24 12 -44 41.5t-22 60.5v11q0 62 43 105t126 43 q111 0 162 -83q36 -59 36 -146v-440h-36v390q0 73 -33 119q-39 56 -119 59h-7q-61 0 -93 -32q-19 -19 -19 -47q0 -10 3 -21q11 -41 53 -60h155z" horiz-adv-x="960"/>
<glyph glyph-name="uni0BB4_uni0BBF.abvs" d="M412 31h175q19 1 28 55q6 37 6 75q0 80 -31 140q-35 68 -100 68q-16 0 -32 -5q-31 -9 -40 -38q-6 -17 -6 -60v-235zM608 0h-198q-1 -24 16.5 -47.5t42.5 -23.5h73v-32h-123q-22 0 -35.5 -21t-14.5 -48q-1 -53 -58 -82q-45 -24 -102 -25h-5q-63 0 -107 25q-52 30 -54 85v6 q0 39 25 62q25 22 65 23h3q76 0 82 -51v-9q0 -22 -13.5 -36.5t-36.5 -14.5q-14 0 -26 6q-21 11 -21 38q0 22 21 34q-6 1 -12 1q-21 0 -38 -15t-17 -40q0 -34 29 -57t70 -23q80 0 84 70q3 58 37 82q23 17 56 20q-28 9 -42 36q-7 14 -7 37h-292v409h110v-378h182v245 q0 88 57 118q32 17 90 17q19 0 35 -3q-17 10 -33 38.5t-19 51.5q-2 12 -2 24q0 58 33 97q40 47 117 51h12q97 0 150 -80q45 -67 45 -150v-440h-36v387q0 59 -41 116q-48 67 -123 67h-2q-61 -1 -86 -42q-12 -20 -12 -47q0 -55 56 -89q51 -27 77 -85t31 -128q1 -12 1 -25 q0 -34 -6 -76q-12 -78 -38 -78z" horiz-adv-x="827"/>
<glyph glyph-name="uni0BB5_uni0BBF.abvs" d="M147 125q0 -34 14.5 -54t33.5 -20q4 0 7 1q40 7 40 73q0 69 -46 69q-49 0 -49 -69zM600 306q-154 54 -159 184v8q0 71 49.5 121.5t134.5 50.5q106 0 165 -83q47 -66 47 -147v-440h-36v377q0 74 -42 127q-47 59 -127 61h-6q-67 0 -101 -40q-23 -27 -23 -67q0 -53 42 -89 q26 -23 56 -32v71h111v-408h-359v33q26 9 49 63q19 46 19 90q0 11 -1 22q-8 72 -55.5 114.5t-118.5 42.5h-3q-86 -1 -141 -51.5t-55 -121.5v-10q3 -56 31.5 -97t78.5 -57q-45 38 -45 100v10q3 47 32.5 74.5t73.5 27.5q45 0 76.5 -33t31.5 -82q0 -64 -41 -98q-36 -30 -92 -30 q-26 0 -51 7q-66 19 -100 78q-27 50 -27 113v17q5 89 71 143.5t165 55.5h5q119 0 191 -46q85 -56 85 -173q0 -51 -17.5 -97t-39.5 -63h126v274z" horiz-adv-x="877"/>
<glyph glyph-name="uni0BB6_uni0BBF.abvs" d="M540 378v-266q0 -86 50 -86q47 0 47 88v264h-97zM669 408v-294q0 -60 -21 -88q-24 -32 -81 -32q-77 0 -106 27q-32 29 -32 104v253h-94v-276q0 -48 -44.5 -76.5t-116.5 -28.5q-164 0 -164 105v306h110l1 -305q0 -36 7 -52q11 -23 44 -23q52 0 52 84v296h271 q-24 12 -44 41.5t-22 60.5v11q0 62 43 105t126 43q111 0 162 -83q36 -59 36 -146v-440h-36v394q0 60 -33 107q-42 60 -119 63h-8q-41 0 -68 -19q-34 -23 -34 -66q0 -50 47 -71h124z" horiz-adv-x="836"/>
<glyph glyph-name="uni0BB7_uni0BBF.abvs" d="M147 125q0 -34 14.5 -54t33.5 -20q4 0 7 1q40 7 40 73q0 69 -46 69q-49 0 -49 -69zM780 30h70v157q-15 -11 -31 -17q-21 -8 -39 -12v-128zM669 190v116q0 43 -28 45h-5q-19 0 -32.5 -15.5t-13.5 -44.5q0 -8 1 -17q6 -35 29 -57.5t49 -26.5zM847 670q106 0 165 -83 q47 -66 47 -147v-440h-36v370q0 79 -43 135q-47 60 -128 63h-11q-89 0 -124 -47q-18 -24 -18 -58q0 -41 34 -70q47 -24 47 -99v-103q49 10 79.5 43t36.5 71l48 17v-322h-164v-248h-110v248h-318v33q26 9 49 63q19 46 19 90q0 11 -1 22q-8 72 -55.5 114.5t-118.5 42.5h-3 q-86 -1 -141 -51.5t-55 -121.5v-10q3 -56 31.5 -97t78.5 -57q-45 38 -45 100v10q3 47 32.5 74.5t73.5 27.5q45 0 76.5 -33t31.5 -82q0 -64 -41 -98q-36 -30 -92 -30q-26 0 -51 7q-66 19 -100 78q-27 50 -27 113v17q5 89 71 143.5t165 55.5h5q119 0 191 -46q85 -56 85 -173 q0 -51 -17.5 -97t-39.5 -63h195v125q-45 6 -75 35q-34 31 -40 82q-1 11 -1 22q0 54 31 83.5t81 29.5q8 0 16 -1q-26 46 -26 94q0 71 54.5 119.5t137.5 48.5z" horiz-adv-x="1099"/>
<glyph glyph-name="uni0BB8_uni0BBF.abvs" d="M147 125q-1 -32 14 -52.5t32 -20.5h5q40 6 40 75q0 64 -45 64q-46 0 -46 -66zM386 0v198q0 169 -144 173h-6q-86 0 -137.5 -52.5t-51.5 -128.5v-8q2 -56 32 -99.5t77 -54.5q-18 12 -31 39q-14 28 -14 60v11q3 47 32.5 74.5t73.5 27.5t75.5 -34t32.5 -78v-6q0 -61 -40 -95 q-36 -30 -93 -30q-26 0 -51 7q-66 19 -99 78q-28 49 -28 114v16q5 90 70 144.5t159 54.5h7q95 -2 163 -43q49 -30 54 -51q6 30 32 55q34 33 84 36h12q42 0 74 -18q68 -38 68 -160v-38q0 -46 2 -64q5 -35 20 -52q21 -24 61 -24q81 0 123 105q13 31 13 73q0 39 -7 52 q-94 3 -160 58q-70 58 -74 150v8q0 71 49.5 121.5t134.5 50.5q106 0 165 -83q47 -66 47 -147v-440h-36v377q0 68 -44 127q-49 67 -126 67h-2q-64 -1 -95.5 -34.5t-31.5 -82.5v-12q4 -52 48 -89q46 -39 113 -39h3q-2 14 -15.5 29.5t-28.5 15.5q-3 0 -9 -1t-9 -1q-33 0 -33 35 q0 15 11 25.5t26 10.5q34 0 59 -36q47 -67 49 -164q0 -39 -13 -83q-16 -50 -41 -79q-35 -40 -71 -55q-28 -12 -73 -13h-8q-83 0 -118 38q-22 24 -31 62q-8 74 -8 115q-1 36 -3 70t-11 48q-18 29 -48 29h-6q-62 -6 -62 -125v-235h-111z" horiz-adv-x="1151"/>
<glyph glyph-name="uni0BB9_uni0BBF.abvs" d="M147 125q0 -34 14.5 -54t33.5 -20q4 0 7 1q40 7 40 73q0 69 -46 69q-49 0 -49 -69zM951 411q-39 33 -46 87q-1 11 -1 23q0 58 32 97q40 48 117 52h12q97 0 150 -80q45 -67 45 -150v-440h-36v389q0 69 -42 122q-46 58 -123 58h-3q-50 -1 -79 -33q-20 -22 -20 -53 q0 -16 7 -30q10 -21 58.5 -57.5t70.5 -79.5q30 -60 30 -154q0 -23 -2 -44q-9 -96 -61.5 -152.5t-127.5 -56.5h-787q-54 0 -71 -13q-12 -9 -12 -23q17 7 31 7q47 0 52 -47v-6q0 -18 -16 -34t-41 -16q-15 0 -29 6q-40 17 -40 66v9q7 84 102 84h741q67 0 107 62.5t40 151.5 q0 11 -1 21q-5 98 -17 135q-18 54 -63 54h-2q-23 -1 -36 -21.5t-13 -48.5v-296h-111v271q0 50 -3 64q-8 37 -39 40h-4q-23 0 -40 -21t-17 -56v-298h-311v33q26 9 49 63q19 46 19 90q0 11 -1 22q-8 72 -55.5 114.5t-118.5 42.5h-3q-88 -1 -142 -49t-54 -126v-8q2 -56 31 -97 t79 -57q-45 38 -45 100v10q3 47 32.5 74.5t73.5 27.5q45 0 76.5 -33t31.5 -82q0 -64 -41 -98q-36 -30 -92 -30q-26 0 -51 7q-66 19 -100 78q-27 50 -27 113v17q5 89 71 143.5t165 55.5h5q120 0 191 -46q85 -56 85 -173q0 -51 -17.5 -97t-39.5 -63h152v268q0 49 26 79 q24 27 63 32q15 2 28 2q82 0 112 -53q8 17 31.5 34t60.5 17h4z" horiz-adv-x="1300"/>
<glyph glyph-name="uni0B95_t.pulli_uni0BB7.akhn_uni0BBF.abvs" d="M935 30h70v157q-15 -11 -31 -17q-21 -8 -39 -12v-128zM824 190v116q0 43 -28 45h-5q-19 0 -32.5 -15.5t-13.5 -44.5q0 -8 1 -17q6 -35 29 -57.5t49 -26.5zM459 107q0 -32 17 -53t42 -21t41.5 20.5t16.5 53.5q0 30 -22.5 53t-49.5 23h-5q-40 -21 -40 -76zM259 189h-134 q-73 0 -78 -81v-10q0 -23 7 -41q10 -28 33 -29h3q35 0 38 46h29q1 -41 41 -41q30 0 47 27q14 23 14 56v73zM188 377v-157h70v157h-70zM709 274q-1 12 -1 23q0 53 30.5 82.5t81.5 29.5q8 0 16 -1q-26 41 -26 93q0 74 53.5 121.5t129.5 47.5h9q106 -4 165 -85q47 -65 47 -145 v-440h-36v370q0 79 -43 135q-47 60 -128 63h-11q-87 0 -124 -47q-18 -23 -18 -57q0 -42 34 -71q47 -27 47 -99v-103q45 9 77.5 44.5t38.5 69.5l48 17v-322h-164v-248h-110v248h-185v30q13 6 22 31.5t9 45.5q0 8 -1 15q-9 59 -57 82q-14 6 -36 7q-21 1 -30 -4 q31 -12 48.5 -41t17.5 -64q0 -44 -25.5 -73t-69.5 -29q-42 0 -68 31t-26 73q0 3 1 27.5t28 57.5h-84v-82q0 -73 -63 -100q-26 -11 -76 -11q-65 0 -88 26q-11 -25 -51 -25h-12q-61 5 -66 93v11q0 45 22 77q18 26 44 35q20 7 71 7v189h351v-32h-132v-157h123q41 22 92 22h4 q62 -1 104 -31q46 -32 52 -87q1 -12 1 -23q0 -48 -25 -69h104v125q-41 6 -72 35q-37 33 -43 82z" horiz-adv-x="1254"/>
<glyph glyph-name="uni0B95_uni0BC0.abvs" d="M355 531q0 -21 12 -36t30 -15q17 0 29 15t12 36t-12 36t-29 15q-18 0 -30 -15t-12 -36zM251 189h-123q-80 0 -80 -58q0 -38 42 -62q34 -18 78 -18h13q70 4 70 84v54zM180 377v-157h70v157h-70zM20 464q13 102 96 158q66 45 148 49q17 1 34 1q78 0 130 -20q83 -32 83 -108 q0 -10 -1 -20q-6 -39 -36 -57.5t-66 -18.5h-8q-59 3 -78 57q-4 12 -4 26q0 41 17 54q-24 4 -49 4q-28 0 -56 -5q-62 -11 -107.5 -46.5t-57.5 -93.5q-5 -22 -5 -43q0 -36 13 -69q20 -50 69 -94v171h351v-32h-132v-157h63q126 0 130 -105v-6q0 -53 -33 -83q-30 -26 -81 -26 l-36 26q16 1 30 23t16 48v12q0 80 -63 80h-26v-82q0 -102 -164 -107h-8q-69 0 -120.5 35t-55.5 93v9q0 43 28.5 63.5t72.5 20.5h4q-32 20 -61 70q-39 65 -39 139q0 17 2 34z" horiz-adv-x="596"/>
<glyph glyph-name="uni0B99_uni0BC0.abvs" d="M553 536q0 -23 17.5 -38.5t42.5 -15.5t43 15.5t18 38.5q0 22 -18 37.5t-43 15.5t-42.5 -15.5t-17.5 -37.5zM365 489v8q0 71 49.5 121.5t134.5 50.5h13q41 0 74 -11q79 -26 79 -107q0 -10 -1 -21q-5 -39 -34.5 -58t-60.5 -19q-7 0 -15 1q-64 8 -80 60q-4 13 -4 26 q0 29 16 49h-7q-44 0 -79.5 -33.5t-35.5 -81.5q0 -7 1 -15q11 -99 110 -132v82h110v-409h-476v31h135q35 4 56 34t21 67v7q-1 39 -10 55q-11 21 -38 21h-3q-50 -1 -50 -55v-48h-111v264h-111v-376h-38v408h336v-32h-76v-149q20 37 82 37q12 0 24 -2q88 -17 88 -129 q0 -28 -12.5 -61t-27.5 -40h101v264q-155 55 -160 193z" horiz-adv-x="720"/>
<glyph glyph-name="uni0B9A_uni0BC0.abvs" d="M355 531q0 -21 12 -36t30 -15q17 0 29 15t12 36t-12 36t-29 15q-18 0 -30 -15t-12 -36zM251 189h-123q-80 0 -80 -58q0 -38 42 -62q34 -18 78 -18h13q70 4 70 84v54zM180 377v-157h70v157h-70zM142 238v171h369v-32h-150v-157h150v-31h-150v-82q0 -102 -164 -107h-8 q-69 0 -120.5 35t-55.5 93v9q0 43 28.5 63.5t72.5 20.5h4q-32 20 -61 70q-39 65 -39 139q0 17 2 34q13 102 96 158q66 45 148 49q17 1 34 1q78 0 130 -20q83 -32 83 -108q0 -10 -1 -20q-6 -39 -36 -57.5t-66 -18.5h-8q-59 3 -78 57q-4 12 -4 26q0 41 17 54q-24 4 -49 4 q-28 0 -56 -5q-62 -11 -107.5 -46.5t-57.5 -93.5q-5 -22 -5 -43q0 -36 13 -69q20 -50 69 -94z" horiz-adv-x="551"/>
<glyph glyph-name="uni0B9C_uni0BC0.abvs" d="M541 553q0 -21 16 -36t39 -15q22 0 38 15t16 36q0 20 -16 35t-38 15q-23 0 -39 -15t-16 -35zM145 224q0 -26 10 -39.5t22 -13.5q3 0 7 1q28 6 28 52q0 53 -30 54h-3q-34 0 -34 -54zM448 385q15 13 44 21q-39 17 -65 57t-26 85q0 62 48 100q45 35 108 35q68 0 107 -33 q35 -30 35 -79q0 -10 -2 -22q-6 -39 -35 -58t-60 -19q-7 0 -15 1q-61 7 -80 60q-4 12 -4 24q0 27 19 49q-65 -11 -71 -72v-9q0 -40 34.5 -75.5t94.5 -46.5q22 -5 40 -13q56 -27 77 -93q10 -34 10 -75q0 -14 -1 -28q-6 -70 -60.5 -111t-144.5 -41h-246q-64 0 -97 -36t-33 -84 q0 -8 1 -17q7 -70 58 -82q15 -4 29 -4q49 0 118 73q51 54 89 76q60 34 144 34h5q63 -1 101 -32q37 -32 37 -87v-11q-4 -56 -49 -86q-32 -22 -74 -27q-11 -1 -21 -1l-55 9q-52 18 -65 43l18 28q30 -34 67 -34q35 0 54.5 21.5t19.5 56.5q0 32 -21.5 55.5t-58.5 23.5 q-32 0 -55 -8q-53 -19 -110 -81q-50 -54 -84 -78q-48 -33 -98 -33q-24 0 -49 7q-106 30 -106 150q0 12 1 24q7 68 68 104q54 32 141 32h249q51 0 81 33q35 37 35 110q0 53 -17 95q-19 48 -49 54q-11 2 -21 2q-68 0 -68 -100v-131h-111v99q0 60 -34.5 94.5t-89.5 38.5h-13 q-57 0 -98 -32.5t-41 -88.5q0 -46 24 -77q27 -33 72 -33h8q-23 9 -35 33.5t-12 50.5v8q3 34 24 57t56 23q42 0 64.5 -27.5t22.5 -65.5q0 -52 -38 -80.5t-87 -28.5q-28 0 -53 10q-81 32 -81 126q0 10 1 20q6 81 83 118q48 24 109 24q11 0 23 -1q140 -9 177 -79q12 33 37 55z " horiz-adv-x="751"/>
<glyph glyph-name="uni0B9E_uni0BC0.abvs" d="M696 547q0 -21 16 -36t39 -15q22 0 38 15t16 36q0 20 -16 35t-38 15q-23 0 -39 -15t-16 -35zM289 124q0 -66 44 -66h3q41 2 41 62q-1 59 -38 63q-4 1 -8 1q-42 0 -42 -60zM405 408h231q-32 17 -56 54.5t-24 79.5q0 62 48 100q45 35 109 35q67 0 106 -33q35 -30 35 -79 q0 -10 -2 -22q-6 -39 -34.5 -58t-60.5 -19q-8 0 -15 1q-61 7 -80 60q-4 12 -4 24q0 27 19 49q-65 -11 -71 -72v-11q0 -71 87 -109h170v-33h-176v-151q34 26 93 26h13q50 -2 89 -42q45 -47 45 -127v-7q-3 -169 -139 -260q-116 -78 -294 -80h-7q-182 0 -319 100 q-158 114 -158 298q0 90 42.5 167t117.5 115l28 -25q-62 -21 -106 -90.5t-48 -144.5q-1 -9 -1 -18q0 -77 39 -148q39 -72 110 -124q78 -58 212 -76q40 -6 77 -6q153 0 243 86q84 80 84 201q0 98 -45 114q-14 5 -30 5q-29 0 -46 -18v-170h-110v375h-160q-103 0 -158 -40 q-70 -51 -70 -151q0 -56 28.5 -97t77.5 -56q-43 32 -43 89q0 8 1 17q4 47 33 74.5t73 27.5t75.5 -34t32.5 -78v-7q0 -58 -35 -91t-97 -33q-27 0 -52 7q-61 18 -94.5 68t-33.5 116q0 99 65.5 160t184.5 61z" horiz-adv-x="969"/>
<glyph glyph-name="uni0B9F_uni0BC0.abvs" d="M509 345q-40 -20 -40 -74q0 -62 46 -68h6q17 0 32 15t15 52q0 28 -18 51.5t-39 23.5h-2zM322 170q-9 33 -9 67q0 100 71 149q29 20 70 27q20 4 40 4l46 -5q52 -11 78 -44q32 -41 32 -100q0 -28 -9 -50q-29 -69 -107 -69q-48 0 -75.5 34.5t-27.5 83.5q0 42 31 81 q-31 -2 -58 -18q-52 -31 -52 -104q0 -19 4 -40q15 -69 85 -116q59 -40 109 -40h310v-30h-850v408h110v-378h327q-39 16 -76 56t-49 84z" horiz-adv-x="900"/>
<glyph glyph-name="uni0BA3_uni0BC0.abvs" d="M990 552q0 -21 16 -36t39 -15q22 0 38 15t16 36q0 20 -16 35t-38 15q-23 0 -39 -15t-16 -35zM118 112q1 -34 14 -49.5t28 -15.5h5q36 5 36 72t-42 68h-2q-23 0 -31 -17t-8 -45v-13zM700 308q-19 -24 -29 -43q-20 -41 -22 -88v-10q0 -41 14.5 -71t38.5 -30h5q21 2 33.5 29 t12.5 65q0 35 -15 82q-17 54 -38 66zM403 301q-49 -49 -51 -124v-7q0 -47 12 -73q15 -31 48 -31h6q43 4 43 82q0 20 -3 41q-9 57 -55 112zM849 408h89q-38 23 -63 60t-25 79q0 62 48 100q45 35 108 35q68 0 107 -33q35 -30 35 -79q0 -10 -2 -22q-6 -39 -35 -58t-60 -19 q-7 0 -15 1q-61 7 -80 60q-4 12 -4 24q0 27 19 49q-65 -11 -71 -72q-1 -6 -1 -12q0 -76 100 -113h122v-32h-103v-376h-111v376h-68q-58 0 -85 -19q40 -27 68 -78q31 -56 31 -117q0 -66 -31 -114q-34 -52 -91 -52h-2q-57 1 -88 54q-26 44 -26 105v9q2 102 59 165 q-29 20 -31 21q-30 15 -70 21q-15 2 -30 2q-50 0 -83 -21q103 -69 103 -185v-11q-3 -78 -37.5 -119.5t-92.5 -41.5q-60 0 -92 64q-23 46 -23 104q0 12 1 25q6 76 62 137q-42 24 -48 26q-42 16 -112 17h-3q-84 0 -128 -52.5t-44 -133.5v-18q4 -79 58 -123q-23 33 -23 82 q0 7 1 15q7 97 85 104q6 1 12 1q46 0 75 -34q27 -33 29 -81v-7q0 -61 -35 -94q-33 -30 -85 -30q-23 0 -46 7q-50 15 -78.5 64t-28.5 112q0 106 60 167q57 57 152 63q25 2 41 2q11 0 18 -1q82 -7 149 -38q53 39 150 39q91 0 139 -36q39 32 130 32z" horiz-adv-x="1160"/>
<glyph glyph-name="uni0BA4_uni0BC0.abvs" d="M355 531q0 -21 12 -36t30 -15q17 0 29 15t12 36t-12 36t-29 15q-18 0 -30 -15t-12 -36zM251 189h-123q-80 0 -80 -58q0 -35 34.5 -57.5t79.5 -22.5q89 0 89 84v54zM180 377v-157h70v157h-70zM13 128v9q0 43 28.5 63.5t72.5 20.5h4q-34 21 -62 68q-38 63 -38 139 q0 18 2 36q12 101 96 158q66 45 148 49q17 1 34 1q78 0 130 -20q83 -32 83 -108q0 -10 -1 -20q-6 -39 -36 -57.5t-66 -18.5h-8q-59 3 -78 57q-4 12 -4 26q0 41 17 54q-24 4 -49 4q-28 0 -56 -5q-62 -11 -107.5 -46.5t-57.5 -93.5q-5 -22 -5 -43q0 -36 13 -69q20 -50 69 -94 v171h368v-32h-149v-157h71q46 0 82 -26q52 -38 54 -120v-5q0 -82 -64 -125q-54 -36 -134 -36h-191q-54 0 -71 -13q-12 -9 -12 -23q17 9 34 9q50 0 54 -49v-5q0 -22 -16.5 -36.5t-42.5 -14.5q-16 0 -32 6q-40 16 -40 66v9q7 83 102 83h154q59 0 98 28q46 34 50 101v12 q0 54 -25 83q-22 25 -54 25h-17v-82q0 -102 -164 -107h-8q-69 0 -120.5 35t-55.5 93z" horiz-adv-x="610"/>
<glyph glyph-name="uni0BA8_uni0BC0.abvs" d="M287 550q0 -21 16 -36t39 -15q22 0 38 15t16 36q0 20 -16 35t-38 15q-23 0 -39 -15t-16 -35zM26 408h207q-35 19 -59 56q-27 40 -27 82q0 61 49 99q44 35 108 35q67 0 106 -33q35 -30 35 -79q0 -10 -2 -22q-6 -39 -34.5 -58t-60.5 -19q-8 0 -15 1q-61 7 -80 60 q-4 12 -4 24q0 27 19 49q-65 -11 -71 -72v-10q0 -36 27 -67.5t72 -45.5h135v-31h-161v-156q18 29 75 29h7q50 -2 88 -40q46 -47 46 -129v-7q-2 -84 -62 -128q-52 -38 -128 -38h-155q-54 0 -71 -13q-12 -9 -12 -23q13 5 29 5q48 0 56 -45q1 -4 1 -9q0 -18 -15 -33t-42 -15 q-16 0 -32 6q-41 15 -41 65q0 5 1 11q7 83 102 83h109q140 0 151 126q1 11 1 22q0 47 -18 77q-17 28 -38 30h-10q-34 0 -43 -25v-170h-110v376h-93v-376h-40v408z" horiz-adv-x="528"/>
<glyph glyph-name="uni0BA9_uni0BC0.abvs" d="M692 548q0 -21 16 -36t39 -15q22 0 38 15t16 36q0 20 -16 35t-38 15q-23 0 -39 -15t-16 -35zM118 112q3 -65 40 -65h5q38 4 38 74q0 66 -42 66q-1 0 -21 -0.5t-20 -65.5v-9zM414 302q-43 -47 -47 -125v-9q0 -41 15.5 -70t40.5 -29h6q16 2 31 30.5t15 65.5q0 33 -17 77 q-20 49 -44 60zM584 408h51q-33 18 -57 54q-26 40 -26 82q0 61 49 99q44 35 108 35q67 0 106 -33q35 -30 35 -79q0 -10 -2 -22q-6 -39 -34.5 -58t-60.5 -19q-8 0 -15 1q-61 7 -80 60q-4 12 -4 24q0 27 19 49q-65 -11 -71 -72v-10q0 -36 26 -66q25 -29 63 -45h155v-30h-102 v-378h-111v378h-59q-63 0 -111 -25q44 -25 76 -73q37 -58 37 -122q0 -63 -34 -110q-37 -52 -94 -52h-2q-57 1 -88 54q-25 43 -25 105v9q2 98 60 165q-27 14 -53 27q-38 14 -93 14q-13 0 -27 -1q-88 -5 -131 -55.5t-43 -131.5v-18q5 -84 47 -109q-12 28 -12 66q0 8 1 17 q6 96 85 104q7 1 14 1q44 0 73 -34q27 -32 29 -81v-7q0 -61 -35 -94q-33 -30 -85 -30q-23 0 -46 7q-50 15 -78.5 64t-28.5 112q0 106 60 167q56 57 152 63q23 1 43 1q64 0 109 -14q17 -5 60 -26q57 37 150 37z" horiz-adv-x="862"/>
<glyph glyph-name="uni0BAA_uni0BC0.abvs" d="M534 536q0 -22 16.5 -37.5t40.5 -15.5q23 0 39.5 15.5t16.5 37.5t-16.5 37.5t-39.5 15.5q-24 0 -40.5 -15.5t-16.5 -37.5zM298 494q5 69 58 118q44 40 104 54q28 6 65 6q58 0 95 -16q73 -33 73 -101q0 -12 -2 -26q-6 -39 -35.5 -57.5t-66.5 -18.5h-8q-67 4 -80 60 q-2 10 -2 21q0 39 24 54h-11q-83 0 -130 -43q-32 -30 -32 -78q0 -44 28 -83.5t69 -54.5v79h111v-408h-548v408h111v-376h326v265q-36 3 -87 49q-62 57 -62 134v14z" horiz-adv-x="698"/>
<glyph glyph-name="uni0BAE_uni0BC0.abvs" d="M493 544q0 -21 16 -36t39 -15q22 0 38 15t16 36q0 20 -16 35t-38 15q-23 0 -39 -15t-16 -35zM412 31h175q19 1 28 55q6 37 6 75q0 80 -31 140q-35 68 -100 68q-16 0 -32 -5q-31 -9 -40 -38q-6 -17 -6 -60v-235zM526 400q62 -23 94 -93q26 -58 31 -128q1 -12 1 -25 q0 -34 -6 -76q-12 -78 -38 -78h-598v409h110v-378h182v245q0 88 57 118q21 11 66 16q-72 42 -72 126q0 12 2 24q9 54 55 86q42 28 100 28q67 0 106 -33q35 -30 35 -79q0 -10 -2 -22q-6 -39 -34.5 -58t-60.5 -19q-8 0 -15 1q-61 7 -80 60q-4 12 -4 24q0 27 19 49 q-65 -11 -71 -72q-1 -6 -1 -12q0 -70 81 -103q20 -1 43 -10z" horiz-adv-x="698"/>
<glyph glyph-name="uni0BAF_uni0BC0.abvs" d="M515 537q0 -23 17 -38.5t42 -15.5t43 15.5t18 38.5q0 22 -18 37.5t-43 15.5t-42 -15.5t-17 -37.5zM483 32v265q-130 55 -135 193v9q0 68 43.5 114.5t118.5 53.5q12 1 23 1q34 0 64 -9q56 -18 73 -66q8 -21 8 -43q0 -10 -2 -19q-6 -39 -35.5 -58t-62.5 -19q-6 0 -13 1 q-63 6 -80 60q-4 13 -4 26q0 29 16 49q-45 -5 -72 -42.5t-27 -78.5v-9q4 -58 37 -96q23 -27 48 -34v78h111v-408h-371v44q-16 -25 -56 -39q-29 -9 -55 -9h-9q-52 3 -72.5 35t-20.5 109v268h111v-270q0 -91 39 -91q56 0 56 109v252h111v-376h156z" horiz-adv-x="686"/>
<glyph glyph-name="uni0BB0_uni0BC0.abvs" d="M253 552q0 -21 16 -36t39 -15q22 0 38 15t16 36q0 20 -16 35t-38 15q-23 0 -39 -15t-16 -35zM234 605q-65 -11 -71 -72q-1 -6 -1 -12q0 -76 100 -113h138v-33h-110v-375h-111v375h-128v-375h-41v408h191q-38 23 -63 60t-25 79q0 62 48 100q45 35 108 35q68 0 107 -33 q35 -30 35 -79q0 -10 -2 -22q-6 -39 -35 -58t-60 -19q-7 0 -15 1q-61 7 -80 60q-4 12 -4 24q0 27 19 49z" horiz-adv-x="423"/>
<glyph glyph-name="uni0BB1_uni0BC0.abvs" d="M338 552q0 -21 16 -36t39 -15q22 0 38 15t16 36q0 20 -16 35t-38 15q-23 0 -39 -15t-16 -35zM407 404q58 -24 91 -89q30 -58 30 -152q0 -24 -2 -46q-9 -96 -61.5 -152.5t-127.5 -56.5h-197q-54 0 -71 -13q-12 -9 -12 -23q16 6 31 6q46 0 52 -46v-6q0 -18 -16 -34t-42 -16 q-14 0 -28 6q-40 17 -40 66v9q7 84 102 84h151q66 0 106.5 62.5t40.5 151.5q0 10 -1 21q-5 98 -17 135q-18 54 -63 54h-2q-23 -1 -36 -21.5t-13 -48.5v-295h-111v282q0 46 -3 58q-8 31 -39 34h-5q-23 0 -39.5 -17t-16.5 -51v-306h-37v306q0 93 89 104q17 2 33 2 q79 0 107 -53q11 30 41 42q-46 21 -74.5 61.5t-28.5 84.5q0 62 48 100q45 35 108 35q68 0 107 -33q35 -30 35 -79q0 -10 -2 -22q-6 -39 -35 -58t-60 -19q-7 0 -15 1q-61 7 -80 60q-4 12 -4 24q0 27 19 49q-65 -11 -71 -72q-1 -6 -1 -12q0 -80 103 -109q7 1 14 1q21 0 43 -9z " horiz-adv-x="568"/>
<glyph glyph-name="uni0BB2_uni0BC0.abvs" d="M577 550q0 -21 16 -36t39 -15t39 15t16 36q0 20 -16 35t-39 15t-39 -15t-16 -35zM148 125q-1 -30 13 -51q14 -23 37 -23h2q40 2 40 71q0 65 -41 69h-6q-45 0 -45 -66zM675 282q-89 3 -154.5 46.5t-87.5 113.5q-10 31 -10 62q0 26 7 52q15 56 64 89q46 32 104 32 q65 0 100 -32t35 -78q0 -11 -2 -23q-5 -35 -32 -56.5t-63 -21.5q-39 0 -66 22q-30 24 -30 61q0 31 17 48q-45 -14 -66 -46t-21 -69v-10q12 -150 196 -158q-6 21 -14 32q-10 14 -27 14q-5 0 -11 -2q-4 -1 -8 -1q-14 0 -24 11t-10 25q0 13 9.5 24.5t26.5 11.5q30 0 59 -37 q45 -58 50 -164v-11q0 -36 -6 -64q-12 -48 -31 -81q-41 -72 -131 -72h-2q-40 0 -68 8q-35 11 -57 34.5t-29 68.5q-1 31 -4 104q-4 85 -39 119q-32 31 -108 34h-9q-79 0 -133 -51.5t-54 -124.5v-10q3 -54 31.5 -94.5t74.5 -54.5q-41 33 -41 94v11q3 47 32.5 74.5t73.5 27.5 t75.5 -34t32.5 -78v-6q0 -61 -40 -95q-36 -30 -93 -30q-26 0 -51 7q-66 19 -100 78q-27 50 -27 113v17q5 89 71 143.5t165 55.5h5q109 0 172 -43q68 -46 71 -136q0 -44 3 -115q5 -30 22 -46q21 -20 57 -20q47 0 76 56q16 32 22 65q5 29 5 54q0 32 -8 56z" horiz-adv-x="780"/>
<glyph glyph-name="uni0BB3_uni0BC0.abvs" d="M695 548q0 -21 16 -36t39 -15q22 0 38 15t16 36q0 20 -16 35t-38 15q-23 0 -39 -15t-16 -35zM147 125q0 -34 15 -54.5t33 -20.5q3 0 7 1q41 7 41 66v6q-2 64 -41 68h-5q-20 0 -35 -16.5t-15 -49.5zM824 408v-30h-110v-378h-111v378h-83v-378h-111v147q0 74 -50 135 t-122 66q-10 1 -19 1q-72 0 -122 -44t-50 -118v-5q1 -56 30.5 -97t79.5 -57q-17 13 -31 38q-15 28 -15 58q0 7 1 14q4 47 33 74.5t73 27.5t75.5 -34t32.5 -78v-6q0 -61 -40 -95q-36 -30 -93 -30q-26 0 -51 7q-66 19 -100 78q-27 50 -27 113v17q5 89 68.5 144t159.5 55h3 q78 -1 132 -43q37 -29 42 -52v92h219q-35 18 -59 55t-24 80q0 62 48 100q44 35 108 35q68 0 107 -33q35 -30 35 -79q0 -10 -2 -22q-6 -39 -35 -58t-60 -19q-7 0 -15 1q-61 7 -80 60q-4 12 -4 24q0 27 19 49q-65 -11 -71 -72v-10q0 -70 89 -111h130z" horiz-adv-x="865"/>
<glyph glyph-name="uni0BB4_uni0BC0.abvs" d="M492 538q0 -21 16 -36t39 -15q22 0 38 15t16 36q0 20 -16 35t-38 15q-23 0 -39 -15t-16 -35zM412 31h175q19 1 28 55q6 37 6 75q0 80 -31 140q-35 68 -100 68q-16 0 -32 -5q-31 -9 -40 -38q-6 -17 -6 -60v-235zM543 392q47 -20 77 -85q26 -58 31 -128q1 -12 1 -25 q0 -34 -6 -76q-12 -78 -38 -78h-198q-1 -24 16.5 -47.5t42.5 -23.5h73v-32h-123q-22 0 -35.5 -21t-14.5 -48q-1 -53 -58 -82q-45 -24 -102 -25h-5q-63 0 -107 25q-52 30 -54 85v6q0 39 25 62q25 22 65 23h3q76 0 82 -51v-9q0 -22 -13.5 -36.5t-36.5 -14.5q-14 0 -26 6 q-21 11 -21 38q0 22 21 34q-6 1 -12 1q-21 0 -38 -15t-17 -40q0 -34 29 -57t70 -23q80 0 84 70q3 58 37 82q23 17 56 20q-28 9 -42 36q-7 14 -7 37h-292v409h110v-378h182v245q0 88 57 118q24 13 60 14q-27 14 -47 48t-20 75q0 11 2 23q9 54 55 86q42 28 100 28 q67 0 106 -33q35 -30 35 -79q0 -10 -2 -22q-6 -39 -34.5 -58t-60.5 -19q-8 0 -15 1q-61 7 -80 60q-4 12 -4 24q0 27 19 49q-65 -11 -71 -72q-1 -6 -1 -12q0 -36 22 -61q22 -28 61 -38q33 -5 59 -16z" horiz-adv-x="697"/>
<glyph glyph-name="uni0BB5_uni0BC0.abvs" d="M630 536q0 -23 17.5 -38.5t42.5 -15.5t43 15.5t18 38.5q0 22 -18 37.5t-43 15.5t-42.5 -15.5t-17.5 -37.5zM147 125q0 -34 14.5 -54t33.5 -20q4 0 7 1q40 7 40 73q0 69 -46 69q-49 0 -49 -69zM600 32v264q-51 18 -91 54q-64 57 -67 139v8q0 71 49.5 121.5t134.5 50.5h13 q41 0 74 -11q79 -26 79 -107q0 -10 -1 -21q-5 -39 -34 -58t-61 -19q-8 0 -15 1q-64 7 -80 60q-4 13 -4 26q0 29 16 49q-52 -3 -88 -37q-34 -32 -34 -78q0 -7 1 -15q10 -87 108 -132v81h111v-408h-359v33q26 9 49 63q19 46 19 90q0 11 -1 22q-8 72 -55.5 114.5t-118.5 42.5 h-3q-86 -1 -141 -51.5t-55 -121.5v-10q3 -56 31.5 -97t78.5 -57q-45 38 -45 100v10q3 47 32.5 74.5t73.5 27.5q45 0 76.5 -33t31.5 -82q0 -64 -41 -98q-36 -30 -92 -30q-26 0 -51 7q-66 19 -100 78q-27 50 -27 113v17q5 89 71 143.5t165 55.5h5q119 0 191 -46 q85 -56 85 -173q0 -51 -17.5 -97t-39.5 -63h126z" horiz-adv-x="832"/>
<glyph glyph-name="uni0BB6_uni0BC0.abvs" d="M537 551q0 -21 16 -36t39 -15q22 0 38 15t16 36q0 20 -16 35t-38 15q-23 0 -39 -15t-16 -35zM540 378v-266q0 -86 50 -86q47 0 47 88v264h-97zM669 408v-294q0 -60 -21 -88q-24 -32 -81 -32q-77 0 -106 27q-32 29 -32 104v253h-94v-276q0 -48 -44.5 -76.5t-116.5 -28.5 q-164 0 -164 105v306h111v-305q0 -37 7 -52q11 -23 44 -23q52 0 52 84v296h261q-37 17 -62.5 56t-25.5 82q0 62 48 100q45 35 108 35q68 0 107 -33q35 -30 35 -79q0 -10 -2 -22q-6 -39 -35 -58t-60 -19q-7 0 -15 1q-61 7 -80 60q-4 12 -4 24q0 27 19 49q-65 -11 -71 -72v-9 q0 -38 28 -70q29 -35 71 -45h123z" horiz-adv-x="742"/>
<glyph glyph-name="uni0BB7_uni0BC0.abvs" d="M698 542q0 -21 16 -36t39 -15q22 0 38 15t16 36q0 20 -16 35t-38 15q-23 0 -39 -15t-16 -35zM147 125q0 -34 14.5 -54t33.5 -20q4 0 7 1q40 7 40 73q0 69 -46 69q-49 0 -49 -69zM780 30h70v157q-15 -11 -31 -17q-21 -8 -39 -12v-128zM669 190v116q0 43 -28 45h-5 q-19 0 -32.5 -15.5t-13.5 -44.5q0 -8 1 -17q6 -35 29 -57.5t49 -26.5zM554 274q-2 12 -2 23q0 87 81 110q-29 16 -50 51q-25 39 -25 80q0 61 49 99q44 35 107 35q68 0 107 -33q35 -30 35 -79q0 -10 -2 -22q-6 -39 -35 -58t-60 -19q-7 0 -15 1q-61 7 -80 60q-4 12 -4 24 q0 27 19 49q-65 -11 -71 -72q-1 -6 -1 -12q0 -80 103 -109q70 -20 70 -108v-103q49 10 79.5 43t36.5 71l48 17v-322h-164v-248h-110v248h-318v33q26 9 49 63q19 46 19 90q0 11 -1 22q-8 72 -55.5 114.5t-118.5 42.5h-3q-86 -1 -141 -51.5t-55 -121.5v-10q3 -56 31.5 -97 t78.5 -57q-45 38 -45 100v10q3 47 32.5 74.5t73.5 27.5q45 0 76.5 -33t31.5 -82q0 -64 -41 -98q-36 -30 -92 -30q-26 0 -51 7q-66 19 -100 78q-27 50 -27 113v17q5 89 71 143.5t165 55.5h5q119 0 191 -46q85 -56 85 -173q0 -51 -17.5 -97t-39.5 -63h195v125q-45 6 -75 35 q-34 31 -40 82z" horiz-adv-x="984"/>
<glyph glyph-name="uni0BB8_uni0BC0.abvs" d="M846 550q0 -21 16 -36t39 -15t39 15t16 36q0 20 -16 35t-39 15t-39 -15t-16 -35zM147 125q-1 -32 14 -52.5t32 -20.5h5q40 6 40 75q0 64 -45 64q-46 0 -46 -66zM386 0v198q0 169 -144 173h-6q-86 0 -137.5 -52.5t-51.5 -128.5v-8q5 -121 109 -154q-17 13 -31 38 q-15 28 -15 58q0 7 1 14q4 47 33 74.5t73 27.5t75.5 -34t32.5 -78v-6q0 -61 -40 -95q-36 -30 -93 -30q-26 0 -51 7q-66 19 -100 78q-27 50 -27 113v17q5 90 70 144.5t159 54.5h7q95 -2 163 -43q49 -30 54 -51q6 30 32 55q34 33 84 36h12q42 0 74 -18q68 -38 68 -160v-38 q0 -46 2 -64q5 -35 20 -52q21 -24 65 -24q39 0 67 23q20 17 37 46q13 23 19 51t6 53q0 31 -9 57q-89 3 -154.5 46.5t-87.5 113.5q-10 31 -10 62q0 26 7 52q15 56 64 89q46 32 104 32q65 0 100 -32t35 -78q0 -11 -2 -23q-5 -35 -32 -56.5t-63 -21.5q-39 0 -66 22 q-30 24 -30 61q0 31 17 48q-45 -14 -66 -46t-21 -69v-10q12 -150 196 -158q-6 21 -14 32q-10 14 -27 14q-5 0 -11 -2q-4 -1 -8 -1q-14 0 -24 11t-10 25q0 13 9.5 24.5t26.5 11.5q30 0 59 -37q46 -60 51 -160v-16q0 -88 -42 -140q-36 -45 -76 -62q-34 -14 -89 -16h-7 q-72 0 -107 38q-22 24 -31 62q-3 12 -8 115q-1 36 -3 70t-11 48q-18 29 -48 29h-6q-62 -6 -62 -125v-235h-111z" horiz-adv-x="1049"/>
<glyph glyph-name="uni0BB9_uni0BC0.abvs" d="M941 548q0 -21 16 -36t39 -15q22 0 38 15t16 36q0 20 -16 35t-38 15q-23 0 -39 -15t-16 -35zM147 125q0 -34 14.5 -54t33.5 -20q4 0 7 1q40 7 40 73q0 69 -46 69q-49 0 -49 -69zM1004 405q54 -20 89 -89q30 -58 30 -152q0 -24 -2 -46q-9 -96 -61.5 -152.5t-127.5 -56.5 h-787q-54 0 -71 -13q-12 -9 -12 -23q17 7 31 7q47 0 52 -47v-6q0 -18 -16 -34t-41 -16q-15 0 -29 6q-40 17 -40 66v9q7 84 102 84h741q66 0 106.5 62.5t40.5 151.5q0 10 -1 21q-5 98 -17 135q-18 54 -63 54h-2q-23 -1 -36 -21.5t-13 -48.5v-296h-111v271q0 50 -3 64 q-8 37 -39 40h-4q-23 0 -40 -21t-17 -56v-298h-311v33q26 9 49 63q19 46 19 90q0 11 -1 22q-8 72 -55.5 114.5t-118.5 42.5h-3q-88 -1 -142 -49t-54 -126v-8q2 -56 31 -97t79 -57q-45 38 -45 100v10q3 47 32.5 74.5t73.5 27.5q45 0 76.5 -33t31.5 -82q0 -64 -41 -98 q-36 -30 -92 -30q-26 0 -51 7q-66 19 -100 78q-27 50 -27 113v17q5 89 71 143.5t165 55.5h5q120 0 191 -46q85 -56 85 -173q0 -51 -17.5 -97t-39.5 -63h152v268q0 49 26 79q24 27 63 32q15 2 29 2q81 0 111 -53q11 24 43 41q-42 17 -69.5 57t-27.5 85q0 62 48 100 q45 35 108 35q68 0 107 -33q35 -30 35 -79q0 -10 -2 -22q-6 -39 -35 -58t-60 -19q-7 0 -15 1q-61 7 -80 60q-4 12 -4 24q0 27 19 49q-65 -11 -71 -72q-1 -5 -1 -11q0 -36 24 -64q24 -30 64 -42q9 1 17 1q28 0 49 -8z" horiz-adv-x="1163"/>
<glyph glyph-name="uni0B95_t.pulli_uni0BB7.akhn_uni0BC0.abvs" d="M867 544q0 -21 16 -36t39 -15q22 0 38 15t16 36q0 20 -16 35t-38 15q-23 0 -39 -15t-16 -35zM935 30h70v157q-15 -11 -31 -17q-21 -8 -39 -12v-128zM824 190v116q0 43 -28 45h-5q-19 0 -32.5 -15.5t-13.5 -44.5q0 -8 1 -17q6 -35 29 -57.5t49 -26.5zM459 107 q0 -32 17 -53t42 -21t41.5 20.5t16.5 53.5q0 30 -22.5 53t-49.5 23h-5q-40 -21 -40 -76zM259 189h-134q-73 0 -78 -81v-10q0 -23 7 -41q10 -28 33 -29h3q35 0 38 46h29q1 -41 41 -41q30 0 47 27q14 23 14 56v73zM188 377v-157h70v157h-70zM935 294v-103q45 9 77.5 44.5 t38.5 69.5l48 17v-322h-164v-248h-110v248h-185v30q13 6 22 31.5t9 45.5q0 8 -1 15q-9 59 -57 82q-14 6 -36 7q-21 1 -30 -4q31 -12 48.5 -41t17.5 -64q0 -44 -25.5 -73t-69.5 -29q-42 0 -68 31t-26 73q0 3 1 27.5t28 57.5h-84v-82q0 -73 -63 -100q-26 -11 -76 -11 q-65 0 -88 26q-11 -25 -51 -25h-12q-61 5 -66 93v11q0 45 22 77q18 26 44 35q20 7 71 7v189h351v-32h-132v-157h123q41 22 92 22h4q62 -1 104 -31q46 -32 52 -87q1 -12 1 -23q0 -48 -25 -69h104v125q-41 6 -72 35q-37 33 -43 82q-1 12 -1 23q0 91 84 109q-26 14 -46 49.5 t-20 75.5q0 15 3 29q12 55 57 86q42 28 97 28q68 0 107 -33q35 -30 35 -79q0 -10 -2 -22q-6 -39 -35 -58t-60 -19q-7 0 -15 1q-61 7 -80 60q-4 12 -4 24q0 27 19 49q-64 -10 -73 -72q-1 -9 -1 -19q0 -74 66 -98q95 -10 95 -114z" horiz-adv-x="1139"/>
<glyph glyph-name="uni0B95_uni0BC1.blws" d="M372 188h-123q-80 0 -80 -58q0 -38 38 -60q35 -20 89 -20q76 0 76 88v50zM301 376v-157h70v157h-70zM189 378q-26 -18 -52 -37q-40 -32 -65 -78q-29 -51 -29 -125q0 -139 85.5 -215t202.5 -76q70 0 133 28q101 45 108 172q1 9 1 18q0 51 -21 86q-22 37 -53 37h-17v-82 q0 -102 -164 -107h-8q-69 0 -120.5 35t-55.5 93v9q0 43 29 64t100 22v186h351v-32h-132v-157h53q44 0 80 -24q48 -30 57 -92q3 -25 3 -47q0 -135 -122 -213q-71 -45 -206 -45q-195 0 -287 151q-50 81 -50 182q0 90 39 154q43 72 128 122z" horiz-adv-x="715"/>
<glyph glyph-name="uni0B99_uni0BC1.blws" d="M525 409h110v-608h-110v199h-366v31h135q35 4 56 34t21 67v7q-1 39 -10 55q-11 21 -38 21h-3q-50 -1 -50 -55v-48h-111v264h-111v-376h-38v408h411v-32h-151v-149q20 37 82 37q12 0 24 -2q88 -17 88 -129q0 -28 -12.5 -61t-27.5 -40h101v377z" horiz-adv-x="675"/>
<glyph glyph-name="uni0B9A_uni0BC1.blws" d="M251 189h-123q-80 0 -80 -58q0 -38 35 -59q32 -19 83 -20h2q83 0 83 84v53zM180 377v-157h70v157h-70zM142 409l380 -1v-31h-161v-157h221v-31h-60v-189h-109v189h-52v-82q0 -102 -164 -107h-8q-69 0 -120.5 35t-55.5 93v9q0 43 29 64t100 21v187z" horiz-adv-x="622"/>
<glyph glyph-name="uni0B9C_uni0BC1.blws" d="M145 224q0 -22 8 -37q9 -16 24 -16q3 0 7 1q28 6 28 52q0 53 -30 54h-3q-34 0 -34 -54zM693 308q14 -37 14 -86q0 -93 -61 -139q-55 -41 -145 -41h-246q-62 0 -96 -35.5t-34 -84.5q0 -8 1 -17q7 -70 58 -82q17 -4 29 -4q49 0 118 73q52 55 89 76q60 34 144 34h5 q64 -1 101 -33t37 -86v-11q-3 -49 -40 -79q-33 -28 -83 -34q-11 -1 -22 -1q-28 0 -54 9q-52 18 -65 43l18 28q30 -34 67 -34q35 0 54.5 21.5t19.5 56.5t-22.5 57t-57.5 22q-32 0 -55 -8q-52 -19 -110 -81q-50 -55 -84 -78q-47 -33 -98 -33q-24 0 -49 7q-106 30 -106 150 q0 87 69 128q54 32 141 32h249q59 0 89 43q27 38 27 100q0 44 -14 86q-18 56 -52 63q-10 2 -21 2q-68 0 -68 -100v-131h-111v99q0 58 -33.5 93.5t-90.5 39.5h-14q-52 0 -91 -27q-47 -34 -47 -94q0 -50 26 -80q27 -30 70 -30h8q-24 10 -35.5 35t-11.5 49v8q3 35 24.5 57.5 t55.5 22.5q41 0 64 -26.5t23 -66.5q0 -52 -37.5 -80.5t-87.5 -28.5q-28 0 -53 10q-81 32 -81 126q0 10 1 20q6 81 83 118q48 24 110 24q11 0 22 -1q140 -9 177 -79q29 80 114 80q9 0 18 -1q116 -10 150 -101zM989 375q-4 -16 -4 -38q0 -55 23 -83q11 -13 28 -13h7 q18 3 29 24q15 30 15 70q0 24 -5 40h-93zM1136 410q5 -29 5 -68q0 -142 -96 -146h-4q-46 0 -71 46q-22 39 -22 92q0 22 4 41h-270v35h454z" horiz-adv-x="1146"/>
<glyph glyph-name="uni0B9E_uni0BC1.blws" d="M168 122q0 -25 10 -47q13 -28 35 -28t34 28q10 22 10 47t-10 47q-12 28 -34 28t-35 -28q-10 -22 -10 -47zM103 -67q-43 0 -43 -23q0 -32 46 -71q68 -58 216 -58q118 0 182.5 53t85.5 99h-487zM337 -266q-70 1 -138 20q-78 23 -123 63q-60 53 -60 101q0 5 1 10q5 39 65 39 h522q16 46 16 103q0 132 -58 132q-34 0 -47 -32v-170h-111v375h-112q-104 0 -162 -43q-66 -49 -66 -148q0 -55 28 -96q28 -42 78 -57q-43 32 -43 89q0 8 1 17q4 46 32.5 74t73.5 28q44 0 75.5 -33.5t32.5 -78.5v-7q0 -58 -34.5 -91t-97.5 -33q-96 0 -146 75q-34 50 -34 116 q0 107 73 166q67 55 177 55h379v-33h-144v-154q26 26 74 27h2q50 0 89.5 -41.5t42.5 -132.5v-15q0 -54 -13 -92h56v441h104v-475h-173q-12 -33 -45.5 -74.5t-80.5 -69.5q-94 -55 -225 -55h-9z" horiz-adv-x="910"/>
<glyph glyph-name="uni0B9F_uni0BC1.blws" d="M612 27q-5 -114 -78 -172q-68 -55 -187 -55q-36 0 -75 5q-127 17 -198 134q-64 104 -64 251q0 167 89 286q98 132 265 132q153 0 251 -110q119 -134 119 -402q0 -46 -4 -96h-33q2 31 2 61q0 233 -105 342q-86 89 -231 89q-141 0 -225 -81.5t-90 -224.5v-17 q0 -114 62 -206q70 -104 179 -112q14 -1 27 -1q86 0 136 45q48 43 51 114v20q0 131 -64 131q-35 0 -49 -27v-133h-110v408h111v-228q26 35 76 35h11q68 -5 104 -59q30 -46 30 -116v-13z" horiz-adv-x="774"/>
<glyph glyph-name="uni0BA3_uni0BC1.blws" d="M118 112q1 -34 14 -49.5t28 -15.5h5q36 5 36 72t-42 68h-2q-23 0 -31 -17t-8 -45v-13zM700 308q-19 -24 -29 -43q-20 -41 -22 -88v-10q0 -41 14.5 -71t38.5 -30h5q21 2 33.5 29t12.5 65q0 35 -15 82q-17 54 -38 66zM403 301q-49 -49 -51 -124v-7q0 -47 12 -73 q15 -31 48 -31h6q43 4 43 82q0 20 -3 41q-9 57 -55 112zM891 -77h-788q-38 0 -38 -11q0 -5 5 -11q16 -20 101 -40q106 -25 253 -29q32 -1 61 -1q301 0 406 92zM926 298q-36 59 -90 68q-11 2 -24 2q-9 0 -20 -1q-28 -3 -38 -10q40 -27 68 -78q31 -56 31 -117q0 -66 -31 -114 q-34 -52 -91 -52h-2q-57 1 -88 54q-26 44 -26 105v9q2 102 59 165q-29 20 -31 21q-30 15 -70 21q-15 2 -30 2q-50 0 -83 -21q103 -69 103 -185v-11q-3 -78 -37.5 -119.5t-92.5 -41.5q-60 0 -92 64q-23 46 -23 104q0 12 1 25q6 76 62 137q-42 24 -48 26q-42 16 -112 17h-3 q-84 0 -128 -52.5t-44 -133.5v-18q4 -79 58 -123q-23 33 -23 82q0 7 1 15q7 97 85 104q6 1 12 1q46 0 75 -34q27 -33 29 -81v-7q0 -61 -35 -94q-33 -30 -85 -30q-23 0 -46 7q-50 15 -78.5 64t-28.5 112q0 106 60 167q57 57 152 63q25 2 41 2q11 0 18 -1q82 -7 149 -38 q53 39 150 39q91 0 139 -36q40 33 125 33q20 0 36 -3q66 -12 114 -58q76 -73 82 -196q1 -14 1 -27q0 -104 -43 -169h100v452h111v-486h-228q-42 -52 -126 -82q-126 -45 -352 -45q-69 0 -159 5q-163 9 -260.5 41.5t-97.5 76.5q0 39 60 39h836q47 66 47 171q0 15 -1 31 q-6 87 -38 139z" horiz-adv-x="1285"/>
<glyph glyph-name="uni0BA4_uni0BC1.blws" d="M431 -75h-340q-38 0 -38 -11q0 -5 5 -11q23 -28 44 -41q45 -26 126 -29h12q74 0 131 34q42 26 60 58zM254 189h-123q-80 0 -80 -58q0 -38 35 -59q31 -19 78 -20h4q86 0 86 82v55zM183 377v-157h70v157h-70zM190 -198q-67 5 -123.5 40.5t-56.5 77.5q0 39 60 39h379 q21 26 21 110q0 63 -30 95q-24 25 -56 25h-20v-82q0 -102 -164 -107h-8q-69 0 -120.5 35t-55.5 93v9q0 43 29 64t100 21v187h368v-32h-149v-157h71q46 0 82 -26q53 -38 54 -120v-10q0 -80 -16 -106h62v450h109v-484h-188q-39 -62 -106.5 -93.5t-171.5 -31.5q-32 0 -70 3z " horiz-adv-x="766"/>
<glyph glyph-name="uni0BA8_uni0BC1.blws" d="M360 -75h-269q-41 0 -41 -12q0 -4 2 -10q30 -70 164 -70h4q54 0 95 33q34 26 45 59zM351 247q48 -1 84 -38q44 -46 51 -135q1 -8 1 -16q0 -21 -4.5 -52.5t-10.5 -46.5h64v450l105 -1v-484h-179q-36 -69 -97 -99q-53 -26 -118 -26q-26 0 -65 3q-66 5 -119 40t-53 78 q0 39 60 39h301q16 50 16 105v12q-4 106 -46 121q-8 3 -19 3q-33 0 -43 -30v-170h-108v376h-106v-376h-40v408h405v-31h-150v-156q20 26 67 26h4z" horiz-adv-x="681"/>
<glyph glyph-name="uni0BA9_uni0BC1.blws" d="M626 -76h-533q-36 0 -36 -11q0 -18 33 -38q58 -34 212 -41q19 -1 37 -1q97 0 166 23q57 20 121 68zM119 109q3 -63 38 -63q5 0 11 2q26 9 26 71q0 75 -34 77h-2q-22 0 -32 -26q-7 -19 -7 -48v-13zM424 305q-47 -56 -50 -126v-14q0 -36 9 -63q13 -36 38 -36q6 0 14 3 q33 13 33 95q0 11 -1 23q-8 93 -43 118zM478 353q40 -20 68 -71q30 -56 30 -122q0 -64 -30 -110q-33 -52 -90 -52h-2q-57 1 -88 54q-26 44 -26 105v9q2 91 57 160q-60 49 -158 49h-11q-87 -2 -134.5 -56.5t-47.5 -135.5v-17q4 -79 58 -123q-23 33 -23 82q0 7 1 15 q7 97 85 104q6 1 12 1q46 0 75 -34q27 -33 29 -81v-7q0 -61 -35 -94q-33 -30 -85 -30q-23 0 -46 7q-50 15 -78.5 64t-28.5 112q0 105 63 167q59 57 155 63q25 2 47 2q62 0 106 -14q17 -5 58 -25q54 37 127 37q21 0 45 -3q57 -7 112 -60q76 -73 82 -196v-21q0 -98 -42 -175 h100v451h111v-485h-228q-36 -45 -126 -83q-104 -44 -265 -44q-51 0 -97 5q-246 26 -246 118q0 39 60 39h574q25 31 37 91q8 41 8 84q0 16 -1 31q-5 79 -44 135q-26 38 -63 53q-23 10 -55 10q-33 0 -50 -9z" horiz-adv-x="1014"/>
<glyph glyph-name="uni0BAA_uni0BC1.blws" d="M447 408h111v-607h-111v199h-437v408h111v-376h326v376z" horiz-adv-x="598"/>
<glyph glyph-name="uni0BAE_uni0BC1.blws" d="M591 31h175q19 0 28 55q6 36 6 75q0 76 -28 134q-35 74 -103 74q-58 0 -72 -43q-6 -18 -6 -60v-235zM471 -66q6 16 10 66h-292v409h110v-378h182v245q0 88 57 118q31 16 92 16q48 0 75 -10q112 -42 125 -221q1 -12 1 -25q0 -35 -6 -76q-11 -78 -38 -78h-196v-8 q0 -47 -22 -91.5t-66 -68.5q-64 -35 -176 -35q-178 0 -252 110q-60 90 -60 228v21q4 108 55 190q19 30 51 62l22 -20q-33 -28 -58 -78.5t-32 -96.5q-6 -38 -6 -78q0 -187 113 -258q59 -37 133 -37q58 0 104 21q56 25 74 73z" horiz-adv-x="873"/>
<glyph glyph-name="uni0BAF_uni0BC1.blws" d="M483 408h111v-607h-111v199h-260v44q-16 -25 -56 -39q-29 -9 -55 -9h-9q-52 3 -72.5 35t-20.5 109v268h111v-270q0 -91 39 -91q56 0 56 109v252h111v-376h156v376z" horiz-adv-x="634"/>
<glyph glyph-name="uni0BB0_uni0BC1.blws" d="M683 106q3 -22 3 -44q0 -145 -130 -218q-83 -46 -201 -46q-210 0 -297 152q-48 85 -48 191q0 82 27 145q35 81 88 122l22 -24q-50 -32 -88 -128q-17 -43 -17 -106q0 -151 86 -232q83 -78 206 -78q78 0 147 33q54 26 82 82q22 46 22 97q0 129 -68 129q-30 0 -48 -26v-156 h-111v376h-109v-376h-40v408h405v-31h-144v-173q24 24 65 28q9 1 18 1q41 0 72 -20q47 -32 58 -106z" horiz-adv-x="726"/>
<glyph glyph-name="uni0BB1_uni0BC1.blws" d="M362 -75h-271q-37 0 -37 -13q0 -12 18 -29q48 -46 137 -46h15q51 2 90 30q36 24 48 58zM318 367q-44 -4 -44 -72v-295h-111v282q0 46 -3 58q-8 31 -39 34h-5q-23 0 -39.5 -17t-16.5 -51v-306h-37v306q0 48 27 76q24 25 62 28q14 1 27 1q76 0 108 -54q11 28 41 43 q25 12 56 12h5q33 -1 55 -12q50 -25 77 -85q29 -63 29 -174q0 -34 -3 -67q-5 -67 -22 -115h73v449h114v-484h-197q-31 -64 -93 -93q-68 -32 -130 -32q-24 0 -62 3q-67 5 -123.5 40.5t-56.5 77.5q0 39 60 39h301q10 9 18.5 74.5t8.5 114.5v20q-4 102 -14 138q-16 61 -60 61 h-6z" horiz-adv-x="712"/>
<glyph glyph-name="uni0BB2_uni0BC1.blws" d="M173 125q-1 -30 13 -51q14 -23 37 -23h2q40 2 40 71q0 65 -41 69h-6q-45 0 -45 -66zM488 -75h-397q-38 0 -38 -11q0 -5 5 -11q20 -25 65 -42q59 -22 144 -22q16 0 34 1q146 7 187 85zM504 -41q9 18 14 45q-4 1 -14 4q-32 7 -55.5 32.5t-30.5 70.5q-1 31 -4 104 q-4 85 -39 119q-32 31 -108 34h-9q-79 0 -133 -51.5t-54 -124.5v-10q3 -54 31.5 -94.5t74.5 -54.5q-41 33 -41 94v11q3 47 32.5 74.5t73.5 27.5t75.5 -34t32.5 -78v-6q0 -61 -40 -95q-36 -30 -93 -30q-26 0 -51 7q-66 19 -100 78q-27 50 -27 113v17q5 89 71 143.5t165 55.5 h5q109 0 172 -43q68 -46 71 -136q0 -44 3 -115q5 -30 22 -46q21 -20 57 -20q47 0 76 56q16 30 20 65q2 14 2 26q0 30 -15 63t-48 57q-39 28 -76 40q-30 9 -30 40q0 17 13 30q12 12 34 12q12 0 26 -3q22 -6 46 -30q75 -75 87 -179q1 -11 1 -22q0 -26 -5 -53q-9 -42 -31 -81 q-26 -46 -72 -62q-3 -34 -11 -52h165v450h112v-484h-292q-23 -54 -80 -84q-77 -41 -196 -41q-25 0 -64 2q-110 4 -183.5 39.5t-73.5 79.5q0 39 60 39h434z" horiz-adv-x="939"/>
<glyph glyph-name="uni0BB3_uni0BC1.blws" d="M248 125q0 -28 13 -51q14 -24 35 -24q3 0 7 1q41 7 41 66v6q-2 64 -41 68h-7q-22 0 -35 -19t-13 -47zM860 201q-34 0 -45 -31v-170h-111v378h-83v-378h-111v147q0 74 -49.5 135t-122.5 66q-10 1 -19 1q-69 0 -117 -39q-55 -45 -55 -123v-5q1 -55 30 -96.5t80 -57.5 q-46 34 -46 94q0 8 1 16q4 46 32.5 74t73.5 28q44 0 75.5 -33.5t32.5 -78.5v-6q0 -57 -35.5 -91t-97.5 -34q-103 0 -151 85q-27 49 -27 113v17q5 93 72 148q63 51 155 51h4q78 -1 132 -43q37 -29 42 -52v92h405v-30h-110v-154q31 26 77 26h7q65 -3 102 -58q32 -46 32 -110 v-8q-2 -100 -66.5 -161.5t-184.5 -90.5q-99 -24 -268 -24q-77 0 -124 6q-105 14 -174 48q-73 37 -124 96q-82 96 -82 246q0 134 76 213h36q-28 -31 -40 -51q-43 -71 -43 -161q0 -77 31 -149q28 -64 99 -120.5t153 -75.5q43 -10 152 -14q20 -1 38 -1q169 0 280 57 q118 61 132 156q3 21 3 43q0 41 -13 71q-18 39 -54 39z" horiz-adv-x="1075"/>
<glyph glyph-name="uni0BB4_uni0BC1.blws" d="M596 31h175q19 0 28 55q6 36 6 75q0 76 -28 134q-35 74 -103 74q-58 0 -72 -43q-6 -18 -6 -60v-235zM487 -113v113h-293v409h110v-378h182v245q0 88 57 118q31 16 92 16q48 0 75 -10q112 -42 125 -221q1 -12 1 -25q0 -35 -6 -76q-11 -78 -38 -78h-195v-38q26 12 65 12 q71 0 90 -36q8 -15 8 -31q0 -31 -27 -55q-66 -59 -296 -59q-87 0 -147 9q-148 22 -216 107q-64 79 -64 205q0 88 21 152q28 87 83 142l22 -20q-70 -80 -86 -175q-7 -45 -8 -83v-9q0 -174 115 -242q40 -23 103 -38q32 -7 99 -12q29 -2 62 -2q87 0 153 16q78 19 90 46 q4 9 4 17q0 32 -41 32q-15 0 -30 -7v-44h-110z" horiz-adv-x="878"/>
<glyph glyph-name="uni0BB5_uni0BC1.blws" d="M147 125q0 -34 14.5 -54t33.5 -20q4 0 7 1q40 7 40 73q0 69 -46 69q-49 0 -49 -69zM600 408h111v-607h-111v199h-248v33q26 9 49 63q19 46 19 90q0 11 -1 22q-8 72 -55.5 114.5t-118.5 42.5h-3q-86 -1 -141 -51.5t-55 -121.5v-10q3 -56 31.5 -97t78.5 -57q-45 38 -45 100 v10q3 47 32.5 74.5t73.5 27.5q45 0 76.5 -33t31.5 -82q0 -64 -41 -98q-36 -30 -92 -30q-26 0 -51 7q-66 19 -100 78q-27 50 -27 113v17q5 89 71 143.5t165 55.5h5q119 0 191 -46q85 -56 85 -173q0 -51 -17.5 -97t-39.5 -63h126v376z" horiz-adv-x="751"/>
<glyph glyph-name="uni0BB6_uni0BC1.blws" d="M940 374q-4 -16 -4 -38q0 -55 23 -83q11 -13 28 -13h7q18 3 29 24q15 30 15 70q0 24 -5 40h-93zM1087 409q5 -29 5 -68q0 -142 -96 -146h-4q-46 0 -71 46q-22 39 -22 92q0 22 4 41h-208v35h392zM540 378v-266q0 -86 50 -86q47 0 47 88v264h-97zM429 125v253h-94v-276 q0 -55 -56 -83q-44 -22 -105 -22q-164 0 -164 105v306h111v-305q0 -37 7 -52q11 -23 44 -23q52 0 52 84v296h445v-294q0 -59 -21 -87q-24 -33 -81 -33q-76 0 -107 28t-31 103z" horiz-adv-x="1097"/>
<glyph glyph-name="uni0BB7_uni0BC1.blws" d="M1083 373q-4 -16 -4 -38q0 -55 23 -83q11 -13 28 -13h7q18 3 29 24q15 30 15 70q0 24 -5 40h-93zM1230 408q5 -29 5 -68q0 -142 -96 -146h-4q-46 0 -71 46q-22 39 -22 92q0 22 4 41h-270v35h454zM147 125q0 -29 12 -51q14 -23 35 -23q4 0 8 1q40 7 40 73q0 69 -46 69 q-49 0 -49 -69zM780 30h70v157q-26 -19 -70 -29v-128zM669 190v116q0 43 -28 45h-5q-21 0 -33.5 -17t-12.5 -43q0 -45 30 -74q23 -23 49 -27zM670 -248v248h-318v33q34 12 54 77q14 44 14 79q0 10 -1 19q-8 73 -55.5 115t-118.5 42h-3q-83 -1 -140 -50q-56 -49 -56 -123v-10 q6 -121 110 -154q-45 38 -45 100v10q3 46 32 74t74 28q46 0 77 -33.5t31 -81.5q0 -59 -36 -93.5t-97 -34.5q-103 0 -151 85q-27 49 -27 113v17q5 93 75 147q66 51 161 52h5q120 0 190 -46q86 -55 86 -173q0 -42 -14 -86q-16 -53 -43 -74h195v125q-54 7 -85 45.5t-31 93.5 q0 50 28.5 81t78.5 32h6q114 0 114 -115v-103q44 9 76.5 40t39.5 74l48 17v-322h-164v-248h-110z" horiz-adv-x="1240"/>
<glyph glyph-name="uni0BB8_uni0BC1.blws" d="M1198 411q-4 -16 -4 -38q0 -55 23 -83q11 -13 28 -13h7q18 3 29 24q15 30 15 70q0 24 -5 40h-93zM1345 446q5 -29 5 -68q0 -142 -96 -146h-4q-46 0 -71 46q-22 39 -22 92q0 22 4 41h-270v35h454zM147 125q0 -26 12 -49q13 -24 33 -24h6q40 6 40 75q0 64 -45 64t-46 -66z M497 0h-111v198q0 169 -144 173h-6q-82 0 -136 -51q-53 -50 -53 -129v-9q5 -121 109 -154q-46 34 -46 94q0 8 1 16q4 46 32 74t74 28q43 0 75 -34t33 -78v-6q-1 -56 -35 -90q-36 -34 -98 -35q-26 0 -51 7q-68 19 -101 80q-26 48 -26 111v17q5 94 75 149q63 50 154 50h7 q95 -2 163 -43q49 -30 54 -51q8 37 42 63t74 28h13q71 0 107 -49q34 -46 34 -128v-40q0 -47 2 -63q10 -77 76 -77q51 0 80 56q22 42 22 89q0 31 -18 69q-11 23 -42 48q-33 18 -65 36q-43 23 -43 48q0 28 24 38q11 5 25 5q11 0 23 -3q20 -4 46 -30q88 -85 88 -204 q0 -87 -43 -142q-48 -61 -132 -63h-7q-115 0 -138 100q-7 68 -8 115q-1 98 -14 118q-18 29 -48 29h-6q-62 -6 -62 -125v-235z" horiz-adv-x="1355"/>
<glyph glyph-name="uni0BB9_uni0BC1.blws" d="M1392 374q-4 -16 -4 -38q0 -55 23 -83q11 -13 28 -13h7q18 3 29 24q15 30 15 70q0 24 -5 40h-93zM1539 409q5 -29 5 -68q0 -142 -96 -146h-4q-46 0 -71 46q-22 39 -22 92q0 22 4 41h-270v35h454zM147 125q0 -29 12 -51q14 -23 35 -23q4 0 8 1q40 7 40 73q0 69 -46 69 q-49 0 -49 -69zM352 0v33q34 12 54 77q14 44 14 79q0 10 -1 19q-8 73 -55.5 115t-118.5 42h-3q-87 -1 -141 -48q-55 -48 -55 -127v-8q4 -120 110 -154q-45 38 -45 100v10q3 46 32 74t74 28q46 0 77 -33.5t31 -81.5q0 -59 -36 -93.5t-97 -34.5q-103 0 -151 85q-27 49 -27 113 v17q5 93 75 147q66 51 161 52h5q120 0 190 -46q86 -55 86 -173q0 -42 -14 -86q-16 -53 -43 -74h152v268q0 99 89 111q15 2 29 2q81 0 111 -53q22 47 83 52q9 1 18 1q29 0 48 -8q64 -26 94 -101q25 -60 25 -140q0 -130 -63 -199q-53 -56 -128 -56h-787q-83 0 -83 -36 q17 7 31 7q47 0 52 -47v-7q0 -20 -16.5 -34.5t-40.5 -14.5q-15 0 -29 6q-40 17 -40 66v9q7 84 102 84h741q78 0 118 83q28 60 28 133v19q-5 98 -17 135q-18 54 -63 54h-2q-24 -1 -36.5 -22.5t-12.5 -47.5v-296h-111v271q0 50 -3 64q-8 37 -39 40h-6q-25 0 -40 -24 q-15 -22 -15 -53v-298h-311z" horiz-adv-x="1549"/>
<glyph glyph-name="uni0B95_t.pulli_uni0BB7.akhn_uni0BC1.blws" d="M1240 372q-4 -16 -4 -38q0 -55 23 -83q11 -13 28 -13h7q18 3 29 24q15 30 15 70q0 24 -5 40h-93zM1387 407q5 -29 5 -68q0 -142 -96 -146h-4q-46 0 -71 46q-22 39 -22 92q0 22 4 41h-270v35h454zM934 30h70v157q-26 -19 -70 -29v-128zM823 190v116q0 43 -28 45h-5 q-21 0 -33.5 -17t-12.5 -43q0 -45 30 -74q23 -23 49 -27zM458 107q0 -29 15 -50q16 -24 44 -24t44 24q14 21 14 50q0 30 -22.5 53t-49.5 23h-5q-40 -21 -40 -76zM258 189h-134q-73 0 -78 -81v-11q0 -21 6 -38q11 -30 34 -31h3q35 0 38 46h29q1 -41 41 -41q31 0 47 27 q14 23 14 56v73zM187 377v-157h70v157h-70zM639 30q17 8 25 41q6 22 6 39q0 6 -1 12q-9 60 -57 82q-13 6 -36 7q-21 1 -30 -4q66 -26 66 -105q0 -44 -25.5 -73t-69.5 -29t-71 34q-23 29 -23 69v7q2 46 29 79h-84v-82q0 -73 -63 -100q-26 -11 -76 -11q-65 0 -88 26 q-11 -25 -51 -25h-12q-61 5 -66 93v9q0 35 13 64q18 38 53 50q20 7 71 7v189h351v-32h-132v-157h123q41 22 92 22h4q60 -1 102 -30q48 -32 54 -88q1 -12 1 -23q0 -49 -25 -69h104v125q-52 8 -84 47t-32 92q0 50 28.5 81t78.5 32h6q114 0 114 -115v-103q40 8 74.5 41t41.5 73 l48 17v-322h-164v-248h-110v248h-185v30z" horiz-adv-x="1397"/>
<glyph glyph-name="uni0B95_uni0BC2.blws" d="M252 188h-123q-80 0 -80 -58q0 -42 46 -64q35 -16 83 -16q74 0 74 89v49zM181 376v-157h70v157h-70zM531 0h-115v114q0 74 -32 74h-22v-82q0 -102 -164 -107h-8q-62 0 -112 29q-60 36 -64 99v10q0 48 37 68q30 16 92 17v186h351v-32h-132v-157h46q93 0 118 -37 q26 42 91 42h12q48 -3 77 -31.5t29 -76.5q0 -70 -43 -83h150v-33h-254v30q24 6 36 36q7 19 7 42v10q-4 60 -36 63h-5q-18 0 -33 -12q-26 -22 -26 -59v-110z" horiz-adv-x="882"/>
<glyph glyph-name="uni0B99_uni0BC2.blws" d="M697 -23q-7 1 -14 1q-20 0 -39 -13v-83h-110v118h-366v31h135q35 4 56 34t21 67v7q-1 39 -10 55q-11 21 -38 21h-3q-50 -1 -50 -55v-48h-111v264h-111v-376h-38v408h411v-32h-151v-149q20 37 82 37q12 0 24 -2q88 -17 88 -129q0 -28 -12.5 -61t-27.5 -40h101v376h110 v-407q26 24 77 24h4q43 -1 74.5 -27t31.5 -65q0 -92 -156 -122q-86 -17 -277 -17q-84 0 -142 6q-117 11 -163 26q-65 21 -72 66q-1 6 -1 11q0 56 102 56h236v-29h-212q-88 0 -88 -33q0 -3 1 -7q9 -41 219 -59q48 -4 99 -4q118 0 227 20q114 21 129 72q3 9 3 17q0 33 -39 41z " horiz-adv-x="837"/>
<glyph glyph-name="uni0B9A_uni0BC2.blws" d="M374 189h-123q-80 0 -80 -58q0 -38 35 -59q32 -19 83 -20h2q83 0 83 84v53zM303 377v-157h70v157h-70zM727 19q-4 58 -50 58q-24 0 -32 -15v-62h-109v189h-52v-82q0 -102 -164 -107h-8q-69 0 -120.5 35t-55.5 93v9q0 43 29 64t100 21v186h380v-31h-161v-157h244v-31h-83 v-86q27 17 71 17q96 0 114 -70q6 -23 6 -44q0 -109 -126 -164q-60 -26 -132 -36q-51 -6 -163 -9h-16q-102 0 -186 35q-98 40 -150.5 119.5t-52.5 181.5q0 92 39 152q48 75 128 122l12 -30q-71 -39 -117 -114q-30 -49 -30 -124q0 -137 88 -218q95 -87 288 -87q96 0 177 24 q62 19 97 59q35 39 35 91v11z" horiz-adv-x="841"/>
<glyph glyph-name="uni0B9C_uni0BC2.blws" d="M145 224q0 -22 8 -37q9 -16 24 -16q3 0 7 1q28 6 28 52q0 53 -30 54h-3q-34 0 -34 -54zM693 308q14 -37 14 -86q0 -93 -61 -139q-55 -41 -145 -41h-246q-62 0 -96 -35.5t-34 -84.5q0 -8 1 -17q7 -70 58 -82q17 -4 29 -4q49 0 118 73q52 55 89 76q60 34 144 34h5 q64 -1 101 -33t37 -86v-11q-3 -49 -40 -79q-33 -28 -83 -34q-11 -1 -22 -1q-28 0 -54 9q-52 18 -65 43l18 28q30 -34 67 -34q35 0 54.5 21.5t19.5 56.5t-22.5 57t-57.5 22q-32 0 -55 -8q-52 -19 -110 -81q-50 -55 -84 -78q-47 -33 -98 -33q-24 0 -49 7q-106 30 -106 150 q0 87 69 128q54 32 141 32h249q59 0 89 43q27 38 27 100q0 44 -14 86q-18 56 -52 63q-10 2 -21 2q-68 0 -68 -100v-131h-111v99q0 58 -33.5 93.5t-90.5 39.5h-14q-52 0 -91 -27q-47 -34 -47 -94q0 -50 26 -80q27 -30 70 -30h8q-24 10 -35.5 35t-11.5 49v8q3 35 24.5 57.5 t55.5 22.5q41 0 64 -26.5t23 -66.5q0 -52 -37.5 -80.5t-87.5 -28.5q-28 0 -53 10q-81 32 -81 126q0 10 1 20q6 81 83 118q48 24 110 24q11 0 22 -1q140 -9 177 -79q29 80 114 80q9 0 18 -1q116 -10 150 -101zM942 374q-5 -18 -5 -41q0 -40 13.5 -67t41.5 -27q23 0 36 26 t13 66q0 25 -5 43h-94zM675 409h241q18 46 65 77q50 33 115 33h11q96 -4 157 -61q62 -59 62 -152q-1 -96 -82 -152q-72 -51 -169 -51h-190v31h137q206 0 206 171v8q-2 71 -40 116q-42 49 -110 49q-39 0 -73 -17q-37 -19 -52 -52h137q5 -29 5 -63q0 -147 -96 -151h-4 q-46 0 -71 46q-22 39 -22 92q0 22 4 41h-231v35z" horiz-adv-x="1332"/>
<glyph glyph-name="uni0B9E_uni0BC2.blws" d="M168 122q0 -31 13 -53t32 -22q18 0 31 22t13 53t-13 53t-31 22q-19 0 -32 -22t-13 -53zM103 -67q-43 0 -43 -23q0 -32 46 -71q68 -58 216 -58q115 0 180 53q50 41 79 99h-478zM337 -266q-82 1 -156 26q-67 22 -105 57q-60 53 -60 101q0 5 1 10q5 39 65 39h513 q23 36 25 103v16q0 116 -58 116q-34 0 -47 -32v-170h-111v375h-112q-103 0 -158 -40q-70 -51 -70 -151q0 -56 28.5 -97t77.5 -56q-43 32 -43 89q0 8 1 17q4 47 33.5 74.5t72.5 27.5q44 0 75.5 -34t32.5 -78v-7q0 -58 -35 -91t-97 -33q-27 0 -52 7q-61 18 -94.5 68t-33.5 116 q0 99 65.5 160t184.5 61h379v-33h-144v-154q35 26 74 27h2q50 0 88 -40q44 -46 44 -127v-7q-1 -58 -22 -107h65v441h340v-34h-58v-373l-108 -1v374h-70v-441h-182q-12 -32 -45 -74q-38 -47 -77 -70q-94 -55 -220 -55h-9z" horiz-adv-x="1111"/>
<glyph glyph-name="uni0B9F_uni0BC2.blws" d="M451 416q0 -27 18 -46.5t44 -19.5t44 19.5t18 46.5t-19 43.5t-46 16.5q-26 0 -42.5 -16.5t-16.5 -43.5zM435 481q-24 11 -72 11q-141 0 -225 -81.5t-90 -224.5v-17q0 -114 62 -206q70 -104 179 -112q14 -1 27 -1q86 0 136 45q48 43 51 114v13q0 111 -65 135q-11 4 -25 4 q-49 0 -62 -39v-122h-111v408h111v-228q15 20 50 29q23 7 45 7q7 0 15 -1q73 -7 112 -57t39 -120v-11q-5 -114 -78 -172q-68 -55 -187 -55q-36 0 -75 5q-127 17 -198 134q-64 104 -64 251q0 168 85 287q96 133 262 135h4q96 0 170 -45q85 -51 89 -136q1 -45 -24 -79 q-29 -39 -78 -39q-13 0 -26 3q-40 8 -62 38q-19 28 -19 61q0 40 24 66z" horiz-adv-x="661"/>
<glyph glyph-name="uni0BA3_uni0BC2.blws" d="M118 112q3 -66 40 -66q4 0 7 1q36 5 36 72t-42 68h-2q-26 0 -35 -25q-4 -14 -4 -39v-11zM700 308q-20 -26 -29 -43q-20 -40 -22 -88v-12q0 -31 9 -58q15 -41 45 -41h4q25 3 37 38q9 25 9 56q0 33 -14 81q-17 54 -39 67zM403 301q-49 -49 -51 -124v-8q0 -41 9 -66 q15 -37 50 -37h7q43 4 43 82q0 84 -58 153zM891 -77h-788q-38 0 -38 -11q0 -26 106 -51t253 -29q32 -1 61 -1q301 0 406 92zM836 366q-12 2 -25 2q-9 0 -19 -1q-27 -3 -38 -10q45 -30 72 -85t27 -110q0 -64 -29 -111q-33 -55 -93 -55h-2q-59 1 -90 58q-24 43 -24 101v9 q2 102 59 165q-29 20 -31 21q-46 23 -100 23q-50 0 -83 -21q103 -69 103 -185v-11q-3 -69 -31 -111q-34 -50 -99 -50q-60 0 -92 64q-23 46 -23 104q0 93 63 162q-41 23 -48 26q-43 16 -112 17h-3q-87 0 -133 -58q-40 -49 -40 -128q0 -9 1 -18q4 -79 58 -123q-23 33 -23 82 q0 7 1 15q7 97 85 104q7 1 13 1q43 0 72 -31t31 -84v-7q0 -55 -30.5 -89.5t-89.5 -34.5q-83 0 -124 71q-29 49 -29 112q0 102 55.5 162.5t156.5 67.5q24 2 40 2q11 0 19 -1q83 -7 149 -38q53 39 150 39q91 0 139 -36q40 33 125 33q20 0 36 -3q66 -12 114 -58q76 -73 82 -196 q1 -14 1 -27q0 -104 -43 -169h100v452h348v-36h-58v-455h-108v455h-108v-450h-191q-103 -127 -478 -127q-69 0 -159 5q-108 6 -201 26q-157 33 -157 92q0 39 60 39h836q47 66 47 171q0 16 -1 31q-5 74 -32 127q-34 70 -96 80z" horiz-adv-x="1487"/>
<glyph glyph-name="uni0BA4_uni0BC2.blws" d="M431 -75h-340q-38 0 -38 -11q0 -5 5 -11q24 -29 44 -41q44 -26 88 -27.5t50 -1.5q74 0 131 34q42 26 60 58zM254 189h-123q-80 0 -80 -58q0 -40 38 -61q31 -17 75 -18h4q86 0 86 82v55zM183 377v-157h70v157h-70zM796 372h-105v-448h-153q-79 -125 -278 -125q-31 0 -70 3 q-56 4 -112 33q-68 36 -68 85q0 39 60 39h379q21 26 21 110q0 47 -19 80q-23 40 -67 40h-20v-82q0 -102 -164 -107h-8q-62 0 -112 29q-60 36 -64 99v10q0 48 37 68q30 16 92 16v187h368v-32h-149v-157h71q63 0 99 -41t37 -105v-10q0 -80 -16 -106h62v450h346v-36h-55v-452 h-112v452z" horiz-adv-x="968"/>
<glyph glyph-name="uni0BA8_uni0BC2.blws" d="M360 -75h-269q-41 0 -41 -12q0 -4 2 -10q30 -70 164 -70h4q54 0 95 33q34 26 45 59zM351 247q48 -1 84 -38q44 -46 51 -135q1 -8 1 -16q0 -21 -4.5 -52.5t-10.5 -46.5h70v449h333v-36h-52v-448l-109 -1v449h-98v-448h-154q-36 -69 -97 -99q-53 -26 -118 -26q-26 0 -65 3 q-66 5 -119 40t-53 78q0 39 60 39h301q16 50 16 105v12q-4 106 -46 121q-8 3 -19 3q-33 0 -43 -30v-170h-108v376h-106v-376h-40v408h405v-31h-150v-156q20 26 67 26h4z" horiz-adv-x="880"/>
<glyph glyph-name="uni0BA9_uni0BC2.blws" d="M626 -76h-533q-36 0 -36 -11q0 -18 33 -38q58 -34 212 -41q19 -1 37 -1q98 0 166 23q55 19 121 68zM119 109q3 -63 38 -63q5 0 11 2q26 9 26 71q0 75 -34 77h-1q-25 0 -35 -33q-5 -17 -5 -40v-14zM424 305q-47 -56 -50 -126v-15q0 -29 6 -53q12 -45 41 -45q6 0 14 3 q33 13 33 95q0 11 -1 23q-8 93 -43 118zM478 353q46 -23 73 -81q25 -53 25 -112q0 -61 -28 -107q-33 -55 -92 -55h-2q-59 1 -90 58q-24 43 -24 101v9q2 91 57 160q-60 49 -158 49h-11q-90 -2 -136 -57.5t-46 -134.5v-17q4 -79 58 -123q-23 33 -23 82q0 7 1 15q7 97 85 104 q7 1 13 1q43 0 72 -31t31 -84v-7q0 -55 -30.5 -89.5t-89.5 -34.5q-83 0 -124 71q-29 49 -29 112q0 102 58.5 162.5t159.5 67.5q30 2 47 2q61 0 106 -14q19 -6 58 -25q54 37 127 37q21 0 45 -3q57 -7 112 -60q76 -73 82 -196v-21q0 -98 -42 -175l100 1v450h339v-36h-53v-454 h-104v454h-107v-448l-192 -1q-54 -68 -181 -101q-99 -26 -210 -26q-50 0 -97 5q-246 26 -246 118q0 39 60 39h574q45 56 45 167q0 19 -1 39q-4 60 -29 110q-29 57 -78 78q-24 10 -55 10q-33 0 -50 -9z" horiz-adv-x="1207"/>
<glyph glyph-name="uni0BAA_uni0BC2.blws" d="M643 -28q-10 5 -23 5q-20 0 -28 -12v-87h-111v122h-437v408h111v-376h326v376h111v-405q17 22 80 22q44 0 74 -24q32 -27 32 -70q0 -90 -156 -120q-86 -17 -236 -17q-72 0 -130 6q-117 11 -163 26q-65 21 -72 66q-1 6 -1 11q0 56 102 56h236v-29h-212q-88 0 -88 -33 q0 -3 1 -7q10 -44 219 -59q55 -4 105 -4q98 0 177 16q40 8 69 28q37 26 37 61q0 28 -23 40z" horiz-adv-x="783"/>
<glyph glyph-name="uni0BAE_uni0BC2.blws" d="M655 31h175q19 0 28 55q6 36 6 75q0 76 -28 134q-35 74 -103 74q-58 0 -72 -43q-6 -18 -6 -60v-235zM88 339q7 -40 41 -46q5 -1 10 -1q16 0 29 11.5t13 33.5q0 20 -11.5 31t-27.5 11h-6q-32 -4 -48 -40zM55 200q0 -90 29 -171q32 -91 103 -139q64 -44 162 -44 q59 0 107 19q59 24 79 70q6 14 10 65h-292v409h110v-378h182v245q0 88 57 118q31 16 92 16q48 0 75 -10q112 -42 125 -221q1 -12 1 -25q0 -35 -6 -76q-11 -78 -38 -78h-196v-9q0 -102 -88 -152q-67 -38 -198 -38q-27 0 -72 6q-121 16 -197 113q-63 80 -76 220q-3 29 -3 56 q0 105 44 170q22 32 49 41q13 4 28 4q7 0 14 -1q59 -9 59 -73q0 -42 -35 -65q-18 -12 -39 -12q-46 0 -70 42q-16 -48 -16 -102z" horiz-adv-x="937"/>
<glyph glyph-name="uni0BAF_uni0BC2.blws" d="M614 -118h-111v117h-260v44q-16 -25 -54 -38q-28 -10 -57 -10h-9q-58 4 -79 47q-14 30 -14 97v268h111v-270q0 -91 39 -91q56 0 56 109v252h111v-376h156v376h111v-405q28 24 75 24h4q42 -1 74 -26.5t32 -65.5q0 -92 -156 -122q-87 -17 -253 -17q-73 0 -135 6 q-118 11 -163 26q-65 21 -72 66q-1 5 -1 10q0 56 102 56h236v-30h-212q-88 0 -88 -32q0 -3 1 -6q9 -41 219 -59q58 -5 112 -5q97 0 192 16q43 7 74 26q40 25 40 62q0 35 -32 45q-10 3 -18 3q-18 0 -31 -13v-84z" horiz-adv-x="805"/>
<glyph glyph-name="uni0BB0_uni0BC2.blws" d="M116 356q-3 -8 -3 -18q0 -20 13 -33.5t32 -13.5q46 0 46 44q0 34 -30 41q-6 2 -13 2q-24 0 -45 -22zM46 176q0 -72 22 -138q25 -75 72 -118q86 -79 234 -79q183 0 239 114q22 45 22 97q0 129 -67 129q-30 0 -48 -26v-155h-112v376h-109v-376h-40v408h405v-31h-144v-174 q24 24 65 28q10 1 20 1q110 0 128 -126q3 -21 3 -44q0 -145 -130 -218q-82 -46 -210 -46q-232 0 -322 145q-60 96 -60 219v15q3 97 39 158q44 74 111 74q23 0 39 -9q35 -19 35 -68q0 -33 -21.5 -53.5t-51.5 -20.5t-53 19t-28 49q-38 -60 -38 -150z" horiz-adv-x="776"/>
<glyph glyph-name="uni0BB1_uni0BC2.blws" d="M362 -75h-271q-37 0 -37 -13q0 -12 18 -29q48 -46 137 -46h15q43 2 82 25q43 25 56 63zM318 367q-44 -4 -44 -72v-295h-111v282q0 46 -3 58q-8 31 -39 34h-7q-25 0 -39 -19q-15 -18 -15 -49v-306h-37v306q0 43 23.5 72t65.5 32q13 1 27 1q76 0 108 -54q22 55 97 55h5 q33 -1 55 -12q106 -53 106 -259q0 -111 -25 -182h73v449h350v-36h-56v-452h-110v452h-110v-448h-157q-29 -59 -93 -93q-60 -32 -130 -32q-23 0 -62 3q-56 4 -112 33q-68 36 -68 85q0 39 60 39h301q13 12 22 99q5 62 5 98v12q-4 100 -14 138q-16 61 -60 61h-6z" horiz-adv-x="913"/>
<glyph glyph-name="uni0BB2_uni0BC2.blws" d="M173 125q0 -27 12 -49q13 -25 38 -25h2q40 2 40 71q0 65 -41 69h-6q-44 0 -45 -66zM488 -75h-397q-38 0 -38 -11q0 -5 5 -11q52 -64 203 -64q19 0 40 1q146 7 187 85zM504 -41q9 18 14 45q-4 1 -14 4q-73 17 -86 103q-2 50 -4 104q-4 81 -36 115.5t-111 37.5h-9 q-77 0 -131 -50q-56 -51 -56 -126v-10q3 -52 30.5 -93t75.5 -56q-41 33 -41 94v11q3 46 32 74t74 28q44 0 75.5 -33.5t32.5 -78.5v-6q0 -57 -35.5 -91t-97.5 -34q-103 0 -151 85q-27 49 -27 113v17q5 93 75 147q66 51 161 52h5q99 0 162 -37q79 -46 81 -142q1 -34 3 -115 q11 -66 79 -66q47 0 76 56q22 42 22 91q0 74 -63 120q-40 29 -76 40q-30 9 -30 40q0 19 14 31t33 12q38 0 72 -34q76 -76 87 -179q1 -12 1 -25q0 -66 -36 -131q-26 -46 -72 -62q-3 -34 -11 -52h165v450h348v-36h-59v-373h-111v373h-104v-448h-254q-53 -125 -276 -125 q-14 0 -64 2q-77 3 -151 27q-106 34 -106 92q0 39 60 39h434z" horiz-adv-x="1140"/>
<glyph glyph-name="uni0BB3_uni0BC2.blws" d="M348 125q0 -28 13 -51q14 -24 35 -24q3 0 7 1q41 7 41 66v6q-2 64 -41 68h-7q-22 0 -35 -19t-13 -47zM110 356q-2 -10 -2 -19q0 -26 23 -40q12 -7 21 -7q19 0 32.5 13.5t13.5 32.5q0 41 -44 41q-24 0 -44 -21zM172 -65q140 -100 415 -100q185 0 309 66q115 61 128 147 q3 19 3 43q0 41 -13 71q-18 39 -54 39q-34 0 -45 -31v-170h-111v378h-83v-378h-111v147q0 74 -49.5 135t-122.5 66q-10 1 -19 1q-69 0 -117 -39q-55 -45 -55 -123v-5q1 -55 30 -96.5t80 -57.5q-46 34 -46 94q0 8 1 16q4 46 32 74t74 28q44 0 75.5 -33.5t32.5 -78.5v-6 q0 -57 -35.5 -91t-97.5 -34q-103 0 -151 85q-27 49 -27 113v17q5 93 72 148q63 51 155 51h4q78 -1 132 -43q37 -29 42 -52v92h405v-30h-110v-154q31 26 77 26h7q65 -3 102 -58q32 -46 32 -110v-8q-2 -94 -73 -159q-65 -60 -178 -88t-297 -28q-89 0 -138 7q-245 35 -351 153 q-83 93 -83 234v10q2 85 40 140q9 13 39 43q27 22 67 22q46 0 65 -38q7 -16 7 -33v-8q-2 -29 -24 -50t-51 -21t-50.5 19.5t-26.5 48.5q-10 -17 -28 -63q-9 -34 -9 -66v-6q2 -73 31.5 -140t98.5 -116z" horiz-adv-x="1175"/>
<glyph glyph-name="uni0BB4_uni0BC2.blws" d="M646 33h175q19 0 28 55q6 36 6 75q0 76 -28 134q-35 74 -103 74q-58 0 -72 -43q-6 -18 -6 -60v-235zM78 339q7 -41 43 -47q5 -1 9 -1q15 0 29 12t14 34q0 19 -12 31t-28 12h-5q-34 -4 -50 -41zM387 -174q43 -3 75 -3q221 0 252 68q4 9 4 17q0 32 -41 32q-15 0 -30 -7v-44 h-110v113h-293v409h110v-378h182v245q0 88 57 118q31 16 92 16q48 0 75 -10q112 -42 125 -221q1 -12 1 -25q0 -35 -6 -76q-11 -78 -38 -78h-195v-38q26 12 65 12q71 0 90 -36q8 -15 8 -31q0 -31 -27 -55q-73 -66 -305 -66q-177 0 -271 51q-127 69 -171 204q-14 43 -21 113 q-2 17 -2 34q0 35 7 73q11 64 36 101q23 34 50 43q10 3 31 3h11q42 -2 56 -52q3 -11 3 -21q0 -42 -35 -65q-18 -12 -39 -12q-46 0 -70 42q-16 -32 -16 -102q0 -160 87 -260q91 -103 253 -114z" horiz-adv-x="928"/>
<glyph glyph-name="uni0BB5_uni0BC2.blws" d="M147 125q0 -29 12 -51q14 -23 35 -23q4 0 8 1q40 7 40 73q0 69 -46 69q-49 0 -49 -69zM788 -78v6q0 19 -12 32t-35 13q-17 0 -30 -8v-83h-111v118h-248v33q34 12 54 77q14 44 14 79q0 10 -1 19q-8 73 -55.5 115t-118.5 42h-3q-83 -1 -140 -50q-56 -49 -56 -123v-10 q6 -121 110 -154q-45 38 -45 100v10q3 46 32 74t74 28q46 0 77 -33.5t31 -81.5q0 -59 -36 -93.5t-97 -34.5q-103 0 -151 85q-27 49 -27 113v17q5 93 75 147q66 51 161 52h5q120 0 190 -46q86 -55 86 -173q0 -42 -14 -86q-16 -53 -43 -74h126v376h111v-407q21 23 80 24h3 q39 0 71 -26t32 -66q0 -92 -156 -122q-87 -17 -325 -17q-94 0 -156 6q-118 11 -163 26q-65 21 -72 66q-1 6 -1 11q0 56 102 56h236v-30h-212q-88 0 -88 -33q0 -3 1 -6q9 -41 219 -59q47 -4 111 -4q387 0 395 95z" horiz-adv-x="903"/>
<glyph glyph-name="uni0BB6_uni0BC2.blws" d="M973 372q-5 -18 -5 -41q0 -40 13.5 -67t41.5 -27q23 0 36 26t13 66q0 25 -5 43h-94zM706 407h241q18 46 65 77q50 33 115 33h11q96 -4 157 -61q62 -59 62 -152q-1 -96 -82 -152q-72 -51 -169 -51h-190v31h137q206 0 206 171v8q-2 71 -40 116q-42 49 -110 49 q-39 0 -73 -17q-37 -19 -52 -52h137q5 -29 5 -63q0 -147 -96 -151h-4q-46 0 -71 46q-22 39 -22 92q0 22 4 41h-231v35zM540 378v-266q0 -86 50 -86q47 0 47 88v264h-97zM429 125v253h-94v-276q0 -55 -56 -83q-44 -22 -105 -22q-164 0 -164 105v306h111v-305q0 -37 7 -52 q11 -23 44 -23q52 0 52 84v296h445v-294q0 -59 -21 -87q-24 -33 -81 -33q-76 0 -107 28t-31 103z" horiz-adv-x="1363"/>
<glyph glyph-name="uni0BB7_uni0BC2.blws" d="M1055 373q-5 -18 -5 -41q0 -40 13.5 -67t41.5 -27q23 0 36 26t13 66q0 25 -5 43h-94zM788 408h241q18 46 65 77q50 33 115 33h11q96 -4 157 -61q62 -59 62 -152q-1 -96 -82 -152q-72 -51 -169 -51h-190v31h137q206 0 206 171v8q-2 71 -40 116q-42 49 -110 49 q-39 0 -73 -17q-37 -19 -52 -52h137q5 -29 5 -63q0 -147 -96 -151h-4q-46 0 -71 46q-22 39 -22 92q0 22 4 41h-231v35zM147 125q0 -29 12 -51q14 -23 35 -23q4 0 8 1q40 7 40 73q0 69 -46 69q-49 0 -49 -69zM780 30h70v157q-26 -19 -70 -29v-128zM669 190v116q0 43 -28 45 h-5q-21 0 -33.5 -17t-12.5 -43q0 -45 30 -74q23 -23 49 -27zM670 -248v248h-318v33q34 12 54 77q14 44 14 79q0 10 -1 19q-8 73 -55.5 115t-118.5 42h-3q-83 -1 -140 -50q-56 -49 -56 -123v-10q6 -121 110 -154q-45 38 -45 100v10q3 46 32 74t74 28q46 0 77 -33.5t31 -81.5 q0 -59 -36 -93.5t-97 -34.5q-103 0 -151 85q-27 49 -27 113v17q5 93 75 147q66 51 161 52h5q120 0 190 -46q86 -55 86 -173q0 -42 -14 -86q-16 -53 -43 -74h195v125q-54 7 -85 45.5t-31 93.5q0 50 28.5 81t78.5 32h6q114 0 114 -115v-103q44 9 76.5 40t39.5 74l48 17v-322 h-164v-248h-110z" horiz-adv-x="1445"/>
<glyph glyph-name="uni0BB8_uni0BC2.blws" d="M1170 405q-5 -18 -5 -41q-1 -40 13 -67t42 -27q23 0 36 26t13 66q0 25 -5 43h-94zM903 440h241q18 46 65 77q50 33 115 33h11q96 -4 157 -61q62 -59 62 -152q-1 -96 -82 -152q-72 -51 -169 -51h-190v31h137q206 0 206 171v8q-2 71 -40 116q-42 49 -110 49q-39 0 -73 -17 q-37 -19 -52 -52h137q5 -29 5 -63q0 -147 -96 -151h-4q-46 0 -71 46q-22 39 -22 92q0 22 4 41h-231v35zM147 125q0 -26 12 -49q13 -24 33 -24h6q40 6 40 75q0 64 -45 64t-46 -66zM497 0h-111v198q0 169 -144 173h-6q-82 0 -136 -51q-53 -50 -53 -129v-9q5 -121 109 -154 q-46 34 -46 94q0 8 1 16q4 46 32 74t74 28q43 0 75 -34t33 -78v-6q-1 -56 -35 -90q-36 -34 -98 -35q-26 0 -51 7q-68 19 -101 80q-26 48 -26 111v17q5 94 75 149q63 50 154 50h7q95 -2 163 -43q49 -30 54 -51q8 37 42 63t74 28h13q71 0 107 -49q34 -46 34 -128v-40 q0 -47 2 -63q10 -77 76 -77q51 0 80 56q22 42 22 89q0 31 -18 69q-11 23 -42 48q-33 18 -65 36q-43 23 -43 48q0 28 24 38q11 5 25 5q11 0 23 -3q20 -4 46 -30q88 -85 88 -204q0 -87 -43 -142q-48 -61 -132 -63h-7q-115 0 -138 100q-7 68 -8 115q-1 98 -14 118 q-18 29 -48 29h-6q-62 -6 -62 -125v-235z" horiz-adv-x="1560"/>
<glyph glyph-name="uni0BB9_uni0BC2.blws" d="M1359 373q-5 -18 -5 -41q0 -40 13.5 -67t41.5 -27q23 0 36 26t13 66q0 25 -5 43h-94zM1092 408h241q18 46 65 77q50 33 115 33h11q96 -4 157 -61q62 -59 62 -152q-1 -96 -82 -152q-72 -51 -169 -51h-190v31h137q206 0 206 171v8q-2 71 -40 116q-42 49 -110 49 q-39 0 -73 -17q-37 -19 -52 -52h137q5 -29 5 -63q0 -147 -96 -151h-4q-46 0 -71 46q-22 39 -22 92q0 22 4 41h-231v35zM147 125q0 -29 12 -51q14 -23 35 -23q4 0 8 1q40 7 40 73q0 69 -46 69q-49 0 -49 -69zM352 0v33q34 12 54 77q14 44 14 79q0 10 -1 19q-8 73 -55.5 115 t-118.5 42h-3q-87 -1 -141 -48q-55 -48 -55 -127v-8q4 -120 110 -154q-45 38 -45 100v10q3 46 32 74t74 28q46 0 77 -33.5t31 -81.5q0 -59 -36 -93.5t-97 -34.5q-103 0 -151 85q-27 49 -27 113v17q5 93 75 147q66 51 161 52h5q120 0 190 -46q86 -55 86 -173q0 -42 -14 -86 q-16 -53 -43 -74h152v268q0 99 89 111q15 2 29 2q81 0 111 -53q22 47 83 52q9 1 18 1q29 0 48 -8q64 -26 94 -101q25 -60 25 -140q0 -130 -63 -199q-53 -56 -128 -56h-787q-83 0 -83 -36q17 7 31 7q47 0 52 -47v-7q0 -20 -16.5 -34.5t-40.5 -14.5q-15 0 -29 6q-40 17 -40 66 v9q7 84 102 84h741q78 0 118 83q28 60 28 133v19q-5 98 -17 135q-18 54 -63 54h-2q-24 -1 -36.5 -22.5t-12.5 -47.5v-296h-111v271q0 50 -3 64q-8 37 -39 40h-6q-25 0 -40 -24q-15 -22 -15 -53v-298h-311z" horiz-adv-x="1749"/>
<glyph glyph-name="uni0B95_t.pulli_uni0BB7.akhn_uni0BC2.blws" d="M1212 374q-5 -18 -5 -41q0 -40 13.5 -67t41.5 -27q23 0 36 26t13 66q0 25 -5 43h-94zM945 409h241q18 46 65 77q50 33 115 33h11q96 -4 157 -61q62 -59 62 -152q-1 -96 -82 -152q-72 -51 -169 -51h-190v31h137q206 0 206 171v8q-2 71 -40 116q-42 49 -110 49 q-39 0 -73 -17q-37 -19 -52 -52h137q5 -29 5 -63q0 -147 -96 -151h-4q-46 0 -71 46q-22 39 -22 92q0 22 4 41h-231v35zM934 30h70v157q-26 -19 -70 -29v-128zM823 190v116q0 43 -28 45h-5q-21 0 -33.5 -17t-12.5 -43q0 -45 30 -74q23 -23 49 -27zM458 107q0 -29 15 -50 q16 -24 44 -24t44 24q14 21 14 50q0 30 -22.5 53t-49.5 23h-5q-40 -21 -40 -76zM258 189h-134q-73 0 -78 -81v-11q0 -21 6 -38q11 -30 34 -31h3q35 0 38 46h29q1 -41 41 -41q31 0 47 27q14 23 14 56v73zM187 377v-157h70v157h-70zM639 30q17 8 25 41q6 22 6 39q0 6 -1 12 q-9 60 -57 82q-13 6 -36 7q-21 1 -30 -4q66 -26 66 -105q0 -44 -25.5 -73t-69.5 -29t-71 34q-23 29 -23 69v7q2 46 29 79h-84v-82q0 -73 -63 -100q-26 -11 -76 -11q-65 0 -88 26q-11 -25 -51 -25h-12q-61 5 -66 93v9q0 35 13 64q18 38 53 50q20 7 71 7v189h351v-32h-132 v-157h123q41 22 92 22h4q60 -1 102 -30q48 -32 54 -88q1 -12 1 -23q0 -49 -25 -69h104v125q-52 8 -84 47t-32 92q0 50 28.5 81t78.5 32h6q114 0 114 -115v-103q40 8 74.5 41t41.5 73l48 17v-322h-164v-248h-110v248h-185v30z" horiz-adv-x="1602"/>
<glyph glyph-name="uni0BB6_t.pulli_uni0BB0_uni0BC0.akhn" d="M857 569q0 -27 13 -41.5t29 -14.5h4q40 3 40 56q0 61 -37 65h-4q-18 0 -31.5 -18t-13.5 -47zM964 60q-4 125 -75 125q-9 0 -24 -5v-180h-111v377h-32q-69 0 -69 -125v-252h-111v252q0 128 -46 130h-2q-35 0 -47 -37q-6 -22 -6 -75v-270h-421v408h111v-376h199v240 q0 74 43 107q40 31 122 32h7q99 0 131 -54q28 51 97 51h81q-88 52 -88 139q0 62 48 100q45 35 108 35q58 0 97 -26q45 -30 45 -86q0 -11 -2 -22q-6 -39 -35 -58t-60 -19q-7 0 -15 1q-58 7 -80 60q-7 17 -7 37q0 53 37 80q-100 -21 -100 -104v-7q2 -47 47 -87q47 -43 109 -43 h106v-31h-156v-168q15 10 55 10q39 0 66 -11q74 -31 83 -110q2 -20 2 -40q0 -127 -101 -201q-79 -58 -232 -89q-98 -20 -284 -20q-78 0 -132 6q-310 35 -310 115q0 27 26 45.5t75 18.5h236v-27h-212q-88 0 -88 -35q0 -13 13 -24q50 -45 262 -65q49 -5 109 -5q160 0 266 23.5 t173 73.5q92 68 92 177v9z" horiz-adv-x="1111"/>
<glyph glyph-name="glyph320" d="M888 569q0 -27 13 -41.5t29 -14.5h4q40 3 40 56q0 61 -37 65h-4q-18 0 -31.5 -18t-13.5 -47zM621 333q-54 -54 -54 -160q0 -44 18 -74t42 -30q4 0 9 1q41 8 41 101v13q-2 51 -19 94q-16 39 -37 55zM890 649q-100 -21 -100 -104v-7q2 -47 47 -87q47 -43 109 -43h106v-30 h-102v-378q0 -94 -112 -164q-85 -54 -191 -74q-97 -18 -225 -18q-66 0 -123 6q-287 32 -287 119q0 27 26 46.5t75 19.5h236v-30h-212q-88 0 -88 -35q0 -37 104 -65q65 -17 133 -23q82 -8 135 -8q62 0 135 12q80 13 169 54q37 17 72 60q42 51 42 100v378h-59q-76 0 -96 -8 q46 -21 72 -76.5t26 -121.5v-10q-2 -67 -33 -113q-35 -52 -93 -53h-2q-77 0 -105 86q-12 37 -14 85v12q0 45 14.5 91t50.5 85q-16 16 -39.5 23t-38.5 7t-29 -4q-22 -7 -37 -26q-17 -23 -17 -83v-272h-421v408h111v-376h199v221q0 144 166 157q12 1 24 1q32 0 66 -6 q40 -7 56 -17q25 14 59 18q24 2 91 2h52q-38 23 -63 60t-25 79q0 62 48 100q45 35 108 35q58 0 97 -26q45 -30 45 -86q0 -11 -2 -22q-6 -39 -35 -58t-60 -19q-7 0 -15 1q-58 7 -80 60q-7 17 -7 37q0 53 37 80z" horiz-adv-x="1092"/>
<glyph glyph-name="glyph321" d="M2213 409v-33h-110v-375h-111v375h-172v-375h-41v408h434zM1565 32h70v157q-15 -11 -31 -17q-21 -8 -39 -12v-128zM1454 192v116q0 43 -28 45h-5q-19 0 -32.5 -15.5t-13.5 -44.5q0 -8 1 -17q6 -35 29 -57.5t49 -26.5zM1089 109q0 -32 17 -53t42 -21t41.5 20.5t16.5 53.5 q0 30 -22.5 53t-49.5 23h-5q-40 -21 -40 -76zM889 191h-134q-73 0 -78 -81v-10q0 -23 7 -41q10 -28 33 -29h3q35 0 38 46h29q1 -41 41 -41q30 0 47 27q14 23 14 56v73zM818 379v-157h70v157h-70zM1270 32q13 6 22 31.5t9 45.5q0 8 -1 15q-9 59 -57 82q-14 6 -36 7 q-21 1 -30 -4q31 -12 48.5 -41t17.5 -64q0 -44 -25.5 -73t-69.5 -29q-42 0 -68 31t-26 73q0 3 1 27.5t28 57.5h-84v-82q0 -73 -63 -100q-26 -11 -76 -11q-65 0 -88 26q-11 -25 -51 -25h-12q-61 5 -66 93v11q0 45 22 77q18 26 44 35q20 7 71 7v189h351v-32h-132v-157h123 q41 22 92 22h4q62 -1 104 -31q46 -32 52 -87q1 -12 1 -23q0 -48 -25 -69h104v125q-41 6 -72 35q-37 33 -43 82q-1 11 -1 22q0 50 29 81t78 32h6q114 0 114 -115v-103q45 9 77.5 44.5t38.5 69.5l48 17v-322h-164v-248h-110v248h-185v30zM280 173q0 -42 16 -71t35 -29q4 0 7 1 q26 26 26 78v7q-3 87 -34 94q-4 1 -8 1q-17 0 -29.5 -20t-12.5 -61zM594 0h-31v284q0 126 -74 203q-71 73 -178 73h-3q-179 -1 -232 -181q-12 -40 -12 -89q0 -84 33 -152q37 -76 101 -99q33 -12 60 -12t49 12q-28 7 -46.5 42t-20.5 82q-1 68 31 112q29 40 71 42h7 q51 0 81 -45q29 -43 29 -107q0 -22 -4 -43q-24 -130 -178 -130q-34 0 -69 8q-85 18 -139.5 115t-54.5 209v16q5 160 87.5 254.5t211.5 94.5h11q122 -3 200 -116q70 -101 70 -223v-350z" horiz-adv-x="2218"/>
<glyph glyph-name="glyph322" d="M345 170q0 -58 47 -58h3q39 1 39 56q0 53 -43 53q-19 0 -32.5 -15.5t-13.5 -35.5zM345 520q0 -20 13.5 -35.5t32.5 -15.5q43 0 43 53q0 55 -39 56h-3q-47 0 -47 -58zM297 690q92 0 149 -43q37 -28 53 -87q5 -16 5 -31q0 -35 -25 -65t-72 -33h-5q-17 0 -35 6 q-57 19 -57 84v11q3 38 28 59t55 21q9 0 18 -2q-25 40 -87 40q-13 0 -28 -2q-63 -7 -108 -58q-30 -34 -50 -97q-22 -70 -22 -148t22 -148q21 -63 51 -95q51 -55 107 -61q14 -1 26 -1q66 0 89 40q-7 -2 -17 -2q-41 0 -65 31q-17 22 -19 49v11q0 65 57 84q18 6 35 6h5 q53 -3 80 -45q16 -24 16 -54q0 -14 -4 -30q-13 -57 -53 -87q-57 -43 -149 -43q-138 0 -216 107q-71 96 -71 238t71 238q78 107 216 107zM2166 409v-33h-110v-375h-111v375h-172v-375h-41v408h434zM1505 31h70v157q-15 -11 -31 -17q-21 -8 -39 -12v-128zM1394 191v116 q0 43 -28 45h-5q-19 0 -32.5 -15.5t-13.5 -44.5q0 -8 1 -17q6 -35 29 -57.5t49 -26.5zM1029 108q0 -32 17 -53t42 -21t41.5 20.5t16.5 53.5q0 30 -22.5 53t-49.5 23h-5q-40 -21 -40 -76zM829 190h-134q-73 0 -78 -81v-10q0 -23 7 -41q10 -28 33 -29h3q35 0 38 46h29 q1 -41 41 -41q30 0 47 27q14 23 14 56v73zM758 378v-157h70v157h-70zM1210 31q13 6 22 31.5t9 45.5q0 8 -1 15q-9 59 -57 82q-14 6 -36 7q-21 1 -30 -4q31 -12 48.5 -41t17.5 -64q0 -44 -25.5 -73t-69.5 -29q-42 0 -68 31t-26 73q0 3 1 27.5t28 57.5h-84v-82q0 -73 -63 -100 q-26 -11 -76 -11q-65 0 -88 26q-11 -25 -51 -25h-12q-61 5 -66 93v11q0 45 22 77q18 26 44 35q20 7 71 7v189h351v-32h-132v-157h123q41 22 92 22h4q62 -1 104 -31q46 -32 52 -87q1 -12 1 -23q0 -48 -25 -69h104v125q-41 6 -72 35q-37 33 -43 82q-1 11 -1 22q0 50 29 81 t78 32h6q114 0 114 -115v-103q45 9 77.5 44.5t38.5 69.5l48 17v-322h-164v-248h-110v248h-185v30z" horiz-adv-x="2171"/>
<glyph glyph-name="glyph323" d="M1939 125q1 -34 17 -56q14 -19 31 -19q3 0 7 1q41 7 41 66v6q-2 64 -41 68h-5q-20 1 -34 -15q-16 -18 -16 -51zM2211 408h405v-30h-110v-378h-111v378h-83v-378h-111v147q0 74 -50 135t-122 66q-10 1 -19 1q-72 -1 -120 -43q-52 -46 -52 -119v-5q0 -56 30 -97t80 -57 q-17 13 -31 38q-15 28 -15 58q0 7 1 14q4 46 33 74t73 28q43 0 75 -34t33 -78v-6q0 -61 -40 -95q-36 -30 -93 -30q-26 0 -51 7q-66 19 -100 78q-27 50 -27 113v17q5 88 69 144q63 55 159 55h3q78 -1 132 -43q37 -29 42 -52v92zM1587 32h70v157q-15 -11 -31 -17 q-21 -8 -39 -12v-128zM1476 192v116q0 43 -28 45h-5q-19 -1 -31 -15q-14 -16 -15 -45q0 -8 1 -17q6 -36 29 -58t49 -26zM1111 109q0 -32 17 -53t42 -21q26 1 42 21t16 53q0 30 -24 54q-22 22 -48 22h-5q-40 -21 -40 -76zM911 191h-134q-73 0 -78 -81v-10q0 -23 7 -41 q10 -28 33 -29h3q35 0 38 46h29q1 -41 41 -41q30 0 47 27q14 23 14 56v73zM840 379v-157h70v157h-70zM1292 32q14 6 24 36q8 21 7 41q0 8 -1 15q-9 59 -57 82q-14 6 -36 7q-21 1 -30 -4q31 -12 49 -41t17 -64q1 -44 -25 -73t-70 -29q-42 0 -69 32q-25 30 -25 72v6 q2 46 29 79h-84v-82q0 -73 -63 -100q-26 -11 -76 -11q-65 0 -88 26q-11 -25 -51 -25h-12q-61 5 -66 93v11q0 45 22 77q18 26 44 35q20 7 71 7v189h351v-32h-132v-157h123q41 22 92 22h4q62 -1 104 -31q46 -32 52 -87q1 -12 1 -23q0 -48 -25 -69h104v125q-41 6 -72 35 q-37 33 -43 82q-1 11 -1 22q0 50 29 81t78 32h6q114 0 114 -115v-103q45 9 77 45t39 69l48 17v-322h-164v-248h-110v248h-185v30zM280 173q0 -41 18 -73q15 -26 33 -27q4 0 7 1q26 26 26 78v7q-3 87 -34 94q-4 1 -8 1q-17 0 -28 -18q-14 -22 -14 -63zM594 0h-31v284 q0 126 -74 203q-71 73 -178 73h-3q-179 -1 -232 -181q-12 -40 -12 -89q0 -84 33 -152q37 -76 101 -99q33 -12 60 -12t49 12q-29 7 -47 42t-20 82q-1 68 31 112q29 40 71 42h7q51 0 81 -45q29 -43 29 -107q0 -22 -4 -43q-24 -130 -178 -130q-34 0 -69 8q-86 18 -142 118 q-53 94 -52 206v16q5 160 89 256q81 93 210 93h11q122 -3 200 -116q70 -101 70 -223v-350z" horiz-adv-x="2621"/>
</font>
</defs>
</svg>
